<?xml version="1.0" encoding="UTF-8"?>
<svg width="130px" height="19px" viewBox="0 0 130 19" version="1.1" xmlns="http://www.w3.org/2000/svg" xmlns:xlink="http://www.w3.org/1999/xlink">
    <!-- Generator: Sketch 52.4 (67378) - http://www.bohemiancoding.com/sketch -->
    <title>DS Logo</title>
    <desc>Created with Sketch.</desc>
    <g id="Symbols" stroke="none" stroke-width="1" fill="none" fill-rule="evenodd" opacity="0.470098586">
        <g id="Footer/Desktop" transform="translate(-1166.000000, -159.000000)" fill="#1C1C1C">
            <g id="Powerd-by" transform="translate(1068.000000, 159.000000)">
                <g id="DS-Logo" transform="translate(98.000000, 0.000000)">
                    <g id="Combined-Shape">
                        <path d="M69.1513008,8.04346415 C68.4764946,7.68487658 67.7094576,7.4684981 66.9073295,7.4684981 C66.3048795,7.4684981 65.2096004,7.61346555 65.2096004,8.33217311 C65.2096004,9.93294479 70.1562123,9.35736577 70.1562123,12.2171782 C70.1562123,13.8905869 68.4212182,15.0233558 66.0679365,15.0233558 C65.2456232,15.0233558 64.4602643,14.8976969 63.6944695,14.5912118 L63.0556861,12.8289225 C64.1146319,13.4939952 65.2263696,13.8360325 66.4862356,13.8360325 C67.2355716,13.8360325 68.4938849,13.5847148 68.4938849,12.6677113 C68.4938849,10.8502547 63.5482046,11.4261402 63.5482046,8.69259959 C63.5482046,6.78472984 65.5558539,6.28117482 67.12564,6.28117482 C67.8007568,6.28117482 68.4938849,6.33542268 69.1516113,6.51532944 L69.1516113,8.04346415 L69.1513008,8.04346415 Z M101.501317,9.32150702 C101.300707,8.06277271 100.461004,7.4684981 99.147414,7.4684981 C97.9238813,7.4684981 97.01089,8.18812512 96.7913373,9.32150702 L101.501317,9.32150702 Z M96.7192918,10.3641693 C96.7553145,12.5598286 98.3073998,13.8357261 100.370325,13.8357261 C101.465294,13.8357261 102.52455,13.5307734 103.364254,12.8825574 L103.418288,12.8825574 L102.505297,14.5734357 C101.719938,14.8983099 100.845764,15.0233558 99.986807,15.0233558 C96.8841892,15.0233558 94.7482863,13.0986294 94.7482863,10.5986304 C94.7482863,8.09832498 96.5916593,6.28117482 99.3110692,6.28117482 C101.795399,6.28117482 103.490955,8.04346415 103.418288,10.3641693 L96.7192918,10.3641693 Z M111.724025,10.9400548 C111.724025,9.19492867 110.77439,7.46880459 108.820775,7.46880459 C107.123045,7.46880459 106.028387,8.78117379 106.028387,10.4009475 C106.028387,12.0553541 107.032367,13.8360325 108.894683,13.8360325 C110.574712,13.8360325 111.723714,12.5598286 111.723714,10.9400548 L111.724025,10.9400548 Z M104.185636,10.7239828 C104.185636,8.0259945 106.394826,6.28117482 109.022626,6.28117482 C110.190883,6.28117482 111.195794,6.58674047 112.070279,7.34314569 C113.001281,8.1513469 113.566777,9.33897667 113.566777,10.5618522 C113.566777,13.1528773 111.37715,15.0230493 108.803074,15.0230493 C106.302285,15.0230493 104.185325,13.2791491 104.185325,10.7239828 L104.185636,10.7239828 Z M128.996331,8.04346415 C128.320903,7.68487658 127.553556,7.4684981 126.750186,7.4684981 C126.149909,7.4684981 125.053078,7.61346555 125.053078,8.33217311 C125.053078,9.93294479 130,9.35736577 130,12.2171782 C130,13.8905869 128.265316,15.0233558 125.911103,15.0233558 C125.090653,15.0233558 124.305605,14.8976969 123.537326,14.5912118 L122.899474,12.8289225 C123.95842,13.4939952 125.07171,13.8360325 126.330334,13.8360325 C127.079049,13.8360325 128.338915,13.5847148 128.338915,12.6677113 C128.338915,10.8502547 123.391992,11.4261402 123.391992,8.69259959 C123.391992,6.78472984 125.401194,6.28117482 126.970049,6.28117482 C127.645166,6.28117482 128.338915,6.33542268 128.996331,6.51532944 L128.996331,8.04346415 Z M78.7625532,14.7898142 L78.7628637,14.7898142 L77.1014679,14.7898142 L77.1014679,13.62088 C76.4452942,14.6092945 75.7512344,15.0230493 74.4733571,15.0230493 C72.3197534,15.0230493 71.2974515,13.8185629 71.2974515,11.2814792 L71.2974515,8.5114669 C71.2974515,7.68487658 71.4061409,7.01888446 70.6033918,6.5695773 L70.6033918,6.51594241 L71.78997,6.51594241 C72.1921209,6.51594241 72.6467533,6.49602088 72.9026393,6.28117482 L72.9572946,6.28117482 L72.9572946,10.9756071 C72.9572946,12.6309331 73.4324228,13.6564323 75.0223941,13.6564323 C76.2257415,13.6564323 77.1014679,12.6842615 77.1014679,11.3001748 L77.1014679,8.53077546 C77.1014679,7.68487658 77.211089,7.03666059 76.4089609,6.5695773 L76.4089609,6.51594241 L77.3393425,6.51594241 C77.8138496,6.51594241 78.3805874,6.58674047 78.7075874,6.28117482 L78.7625532,6.28117482 L78.7625532,12.8289225 C78.7625532,13.0940321 78.7523053,13.3432045 78.7625532,13.5712294 L78.7625532,14.7898142 Z M120.392474,10.3825584 L120.392164,10.3825584 C120.392164,8.45752552 119.8453,7.4684981 118.184215,7.4684981 C116.522198,7.4684981 116.248922,8.56540827 116.248922,9.62737915 L116.248922,12.8102269 C116.248922,13.0765625 116.238053,13.323283 116.248922,13.5503884 L116.248922,14.7898142 L114.587216,14.7898142 L114.587216,13.5362901 C114.599016,13.3070393 114.587216,13.0581734 114.587216,12.7930637 L114.587216,8.51116041 C114.587216,7.6845701 114.695905,7.01919094 113.894087,6.5695773 L113.894087,6.51563592 L114.971666,6.51563592 C115.372574,6.51563592 115.811369,6.49632736 116.193335,6.28117482 L116.248922,6.28117482 L116.248922,7.66648748 C116.886774,6.80311895 117.637041,6.28148131 118.821756,6.28148131 C119.8453,6.28148131 121.013246,6.67746006 121.597064,7.52182651 C122.107594,8.24084055 122.053559,9.35705929 122.053559,10.2020387 L122.053559,12.8102269 C122.053559,13.0498983 122.043622,13.2751648 122.051386,13.4829617 L122.051386,14.7898142 L120.392474,14.7898142 L120.392474,13.5350642 C120.403343,13.3097976 120.392474,13.0676744 120.392474,12.8102269 L120.392474,10.3825584 Z M84.4069514,6.28117482 L85.0640567,6.33542268 L85.0640567,7.99013574 C84.8628259,7.77437023 84.5345838,7.7029592 84.2243531,7.7029592 C82.8365441,7.7029592 82.2527265,8.4228927 82.2527265,10.2743692 L82.2527265,12.7933702 C82.2527265,13.0578669 82.2403049,13.3070393 82.2527265,13.5359836 L82.2527265,14.7901207 L80.5913307,14.7901207 L80.5913307,13.5359836 C80.6031313,13.3070393 80.5913307,13.0578669 80.5913307,12.7933702 L80.5913307,8.49399725 C80.5913307,7.66618099 80.7006413,7.01919094 79.916214,6.56988379 L79.916214,6.51563592 L81.0844703,6.51563592 C81.5052537,6.51563592 81.9424958,6.49632736 82.1977607,6.28117482 L82.2527265,6.28117482 L82.2527265,7.64901782 C82.6530142,6.83959067 83.4930284,6.28117482 84.4069514,6.28117482 Z M87.4424923,9.05149364 C87.4424923,10.2204278 88.5001959,11.2103747 89.6867741,11.2103747 C90.7820531,11.2103747 91.5841813,10.5079108 91.5841813,9.46524853 C91.5841813,8.31347752 90.5988338,7.46880459 89.3029451,7.46880459 C88.2989651,7.46880459 87.4424923,8.00791188 87.4424923,9.05149364 Z M89.8876943,13.2242883 C93.0452779,13.2242883 94.7246852,14.0692677 94.7246852,15.8508656 C94.7246852,17.7394268 92.752127,18.8513547 90.1882982,18.9990805 C89.0880505,18.9963222 89.0722129,17.9616285 90.1100418,17.8129832 C90.1783609,17.8089989 90.24668,17.8028692 90.3159307,17.7967395 C90.3658017,17.7956984 90.4154787,17.7902622 90.4643694,17.7804958 C91.5959818,17.641658 92.8816227,17.179785 92.8816227,15.9771375 C92.8816227,14.3941419 90.2699706,14.3043418 89.1573012,14.3043418 L87.8980563,14.340507 C87.094065,14.3576702 86.5652132,13.7106801 86.5652132,13.0630771 C86.5652132,12.541133 87.6238484,12.2898152 88.0070563,12.108989 C86.6931562,11.8573647 85.5984982,10.6884306 85.5984982,9.33897667 C85.5984982,7.2524261 87.6418598,6.28086834 89.5237399,6.28086834 L95.0162834,6.28086834 L94.5964316,7.21656735 C94.4507877,7.54082858 94.414765,7.64871134 94.0135456,7.64871134 C93.3738306,7.64871134 92.7536797,7.50527631 92.1329077,7.41425024 C92.8996341,7.89972264 93.4294175,8.67329103 93.4294175,9.59029445 C93.4294175,11.6241296 91.202526,12.2542629 89.5395775,12.397698 C89.2849337,12.4148611 88.7917941,12.5769918 88.7917941,12.8828639 C88.7917941,13.2794556 89.6491986,13.2242883 89.8876943,13.2242883 Z M47.9605854,11.3001748 C47.9605854,11.9830236 47.7407221,13.8357261 49.6937162,13.8357261 C49.9496022,13.8357261 50.1874768,13.7459259 50.4241093,13.6567388 L49.4558416,14.9335557 C49.2669224,14.9909531 49.0706117,15.021197 48.8729556,15.0233558 C46.042993,15.0233558 46.2985685,12.1457672 46.2985685,11.4436099 L46.2985685,7.7029592 L45.0579561,7.7029592 L45.0579561,7.05474322 C46.7730755,6.76726019 47.2292607,5.50729994 47.2292607,3.83481075 L47.9605854,3.83481075 L47.9605854,6.51563592 L49.6750837,6.51563592 C49.9135794,6.51563592 50.1874768,6.51563592 50.369454,6.40744668 L50.4241093,6.40744668 L50.4241093,8.04346415 L50.369454,8.04346415 C50.0775452,7.66648748 49.5294399,7.7029592 49.0546223,7.7029592 L47.9605854,7.7029592 L47.9605854,11.2998683 L47.9605854,11.3001748 Z M58.7636952,15.0233558 C57.558795,14.9507189 56.3538949,14.5912118 56.3538949,13.1528773 L56.3538949,10.310228 C55.8253536,10.5799348 55.2045816,10.7239828 54.601821,10.8677243 C53.7254736,11.0666332 52.7401261,11.2643161 52.7401261,12.3606133 C52.7401261,13.476832 53.7630491,13.8360325 54.7300746,13.8360325 C55.1685589,13.8360325 55.605801,13.7103737 56.0436642,13.5847148 L54.9679492,14.9332492 C54.6564763,14.9878036 54.3285447,15.0233558 54.018314,15.0233558 C52.1743199,15.0233558 50.8973742,13.8715848 50.8973742,12.3796153 C50.8973742,9.03279805 56.3535844,10.5802413 56.3535844,8.61965614 C56.3535844,7.75690058 55.2781799,7.4684981 54.6021316,7.4684981 C53.6708183,7.4684981 52.9407358,7.81022899 52.1193541,8.18812512 L53.3428867,6.38905758 L54.5282227,6.28117482 C56.5001598,6.28117482 57.9975899,6.83959067 58.0149802,9.01563489 L58.0149802,11.7136232 C58.0149802,13.1344882 58.0522451,13.6748214 59.5676865,13.8360325 L58.7636952,15.0233558 Z M42.1177513,8.49399725 C42.1177513,7.66648748 42.2273724,7.01919094 41.423381,6.56927082 L41.423381,6.51563592 L42.5376031,6.51563592 C42.9577655,6.51563592 43.4133295,6.49632736 43.7238708,6.22692696 L43.7791471,6.22692696 L43.7791471,12.7927573 C43.7791471,13.0575604 43.7673465,13.3067328 43.7791471,13.5356771 L43.7791471,14.7892012 L42.1177513,14.7892012 L42.1177513,13.5356771 C42.1289308,13.3067328 42.1177513,13.0578669 42.1177513,12.7927573 L42.1177513,8.49399725 Z M60.2092648,4.94980355 L60.2089543,4.95011003 C60.2089543,4.12351972 60.319507,3.45691462 59.5350797,3.00730098 L59.5350797,2.9533596 L60.6477491,2.9533596 C61.0676009,2.9533596 61.5421079,2.97174871 61.8160053,2.66587658 L61.8700395,2.66587658 L61.8700395,12.7930637 C61.8700395,13.0909673 61.8538914,13.3692557 61.8700395,13.6227189 L61.8700395,14.7895077 L60.2092648,14.7895077 L60.2092648,13.5476301 C60.2213759,13.3147014 60.2092648,13.0624642 60.2092648,12.7927573 L60.2092648,4.94980355 Z M28.1971177,8.49399725 C28.1971177,7.66648748 28.3076703,7.01919094 27.5033684,6.56927082 L27.5033684,6.51563592 L28.6169695,6.51563592 C29.0368213,6.51563592 29.4930064,6.49632736 29.8038582,6.22692696 L29.858824,6.22692696 L29.858824,12.7927573 C29.858824,13.0575604 29.8464024,13.3067328 29.858824,13.5356771 L29.858824,14.7892012 L28.1971177,14.7892012 L28.1971177,13.5356771 C28.2082971,13.3067328 28.1971177,13.0578669 28.1971177,12.7927573 L28.1971177,8.49399725 Z M24.3069671,14.7898142 L24.3072777,14.7898142 L24.3072777,10.9400548 C24.3072777,10.2204278 24.3622435,9.42908329 24.0153689,8.76401062 C23.5588732,7.89972264 22.6278705,7.46880459 21.6602239,7.46880459 C20.1997482,7.46880459 19.0134806,8.78117379 19.0134806,10.4184172 C19.0134806,12.2352609 20.3273807,13.8360325 22.244352,13.8360325 C22.8291012,13.8360325 23.3216197,13.62088 23.8144487,13.3150079 L22.7368704,14.9332492 C22.4266397,15.0230493 22.116409,15.0230493 21.7875458,15.0230493 C19.1227911,15.0230493 17.169797,13.3496407 17.169797,10.6700415 C17.169797,8.24114704 18.9951586,6.28117482 21.495637,6.28117482 C22.5176283,6.28117482 23.5408618,6.65845798 24.3069671,7.32475659 L24.3069671,4.95041652 C24.3069671,4.1238262 24.4165882,3.47622318 23.6129074,3.00760747 L23.6129074,2.95305312 L24.8541408,2.95305312 C25.2739926,2.95305312 25.7124769,2.95305312 25.9130866,2.66587658 L25.9683629,2.66587658 L25.9683629,12.8105334 C25.9683629,13.0765625 25.9565624,13.3238959 25.9683629,13.5534533 L25.9683629,14.7898142 L24.3069671,14.7898142 Z M33.0375245,9.05149364 L33.037835,9.05149364 C33.037835,10.2204278 34.0967808,11.2103747 35.2830484,11.2103747 C36.378638,11.2103747 37.1813872,10.5079108 37.1813872,9.46524853 C37.1813872,8.31347752 36.1957292,7.46880459 34.9007721,7.46880459 C33.8958606,7.46880459 33.0375245,8.00791188 33.0375245,9.05149364 Z M35.4836581,13.2242883 L35.4833475,13.2242883 C38.6418628,13.2242883 40.3218911,14.0692677 40.3218911,15.8508656 C40.3218911,17.7424916 38.3440538,18.8544196 35.7740142,19 C35.7709088,19 35.768735,18.9990805 35.7662506,18.9990805 C34.6684872,18.9990805 34.6433334,17.9763398 35.6643931,17.8169675 C35.7535185,17.8108378 35.844507,17.8028692 35.9367378,17.7936746 C35.9531965,17.7924487 35.9671708,17.7903033 35.9826979,17.7893839 C37.1323217,17.6621925 38.4763443,17.2076751 38.4763443,15.9771375 C38.4763443,14.3941419 35.8671766,14.3043418 34.7529545,14.3043418 L33.4943307,14.340507 C32.6909604,14.3576702 32.1614875,13.7106801 32.1614875,13.0630771 C32.1614875,12.541133 33.2204333,12.2898152 33.6033307,12.108989 C32.2894306,11.8573647 31.194462,10.6884306 31.194462,9.33897667 C31.194462,7.2524261 33.2384447,6.28086834 35.1190826,6.28086834 L40.6141105,6.28086834 L40.1939481,7.21656735 C40.0467516,7.54082858 40.0119709,7.64871134 39.6095094,7.64871134 C38.9704155,7.64871134 38.3496435,7.50527631 37.7288715,7.41425024 C38.4959084,7.89972264 39.0253813,8.67329103 39.0253813,9.59029445 C39.0253813,11.6241296 36.7988004,12.2542629 35.1374046,12.397698 C34.8808975,12.4148611 34.388379,12.5769918 34.388379,12.8828639 C34.388379,13.2794556 35.2470256,13.2242883 35.4836581,13.2242883 Z M12.4383902,0.000988631389 C12.5134128,-0.00421068297 12.5884308,0.0111697351 12.655148,0.0454289709 C12.7253137,0.0808177671 12.786788,0.130923955 12.8352619,0.192235334 C12.8901114,0.259502889 12.932575,0.335748016 12.9607206,0.417501883 C12.9929483,0.507758291 13.0111655,0.602304503 13.0147548,0.69793575 L13.2548032,6.50674786 C13.2591508,6.59348314 13.2485924,6.67837951 13.2262334,6.75929158 C13.2051166,6.83959067 13.1715781,6.91682492 13.1299656,6.98578407 C13.0874215,7.05351727 13.0368032,7.11358835 12.9793531,7.16140003 C12.921903,7.20859874 12.8566893,7.24353804 12.7886808,7.26254011 L8.70257869,8.37661345 C8.61811146,8.39959984 8.53923398,8.44066884 8.46812002,8.49644913 C8.32145535,8.61201898 8.21833581,8.77282622 8.1752796,8.95311193 C8.15254598,9.044071 8.14613472,9.1382576 8.15633659,9.2314004 L8.69388353,13.9013139 C8.70257869,13.981613 8.69636786,14.0652834 8.67525105,14.1480344 C8.65278419,14.2316888 8.61838416,14.311767 8.57308298,14.3858668 C8.52650178,14.4612621 8.46843057,14.5299148 8.40228527,14.5890664 C8.33613998,14.6479116 8.26161008,14.6969492 8.18086935,14.7318885 L2.42529739,17.1669126 C2.31971336,17.211353 2.21412932,17.2352588 2.11475612,17.2420015 C2.01414074,17.2472117 1.91942566,17.2352588 1.83464789,17.2067557 C1.74955958,17.1767201 1.6759613,17.1298279 1.61695846,17.0694504 C1.55826615,17.0066209 1.51479038,16.9290802 1.49367357,16.8380541 L0.0198446872,10.566143 C-0.00624077978,10.4558084 -0.00624077978,10.3427154 0.0176708983,10.2336067 C0.041272035,10.125111 0.087853226,10.020293 0.153066893,9.92528266 C0.290419137,9.72675739 0.496469336,9.58453698 0.732536909,9.52531961 L6.50798351,8.0731932 C6.60158127,8.04878875 6.68938109,8.0063996 6.76635385,7.94845377 C6.84349415,7.89038381 6.90962238,7.81930881 6.96168431,7.73851147 C7.01613924,7.65658954 7.05546079,7.56579554 7.07782674,7.47033701 C7.10111734,7.37716554 7.10763871,7.27602546 7.09521706,7.17488537 L6.35488666,1.32776263 C6.33904906,1.2091529 6.34650205,1.09452747 6.37134535,0.988483625 C6.39503744,0.88552147 6.43755219,0.787685339 6.49680402,0.69977466 C6.55247361,0.617465991 6.62544847,0.547953035 6.71076696,0.495962068 C6.79372833,0.443940977 6.88848827,0.413082858 6.98652761,0.406161934 L12.4383902,0.000988631389 Z"></path>
                    </g>
                </g>
            </g>
        </g>
    </g>
</svg>