<?xml version="1.0" encoding="UTF-8"?>
<svg width="1264px" height="231px" viewBox="0 0 1264 231" version="1.1" xmlns="http://www.w3.org/2000/svg" xmlns:xlink="http://www.w3.org/1999/xlink">
    <!-- Generator: Sketch 52.4 (67378) - http://www.bohemiancoding.com/sketch -->
    <title>Group 34</title>
    <desc>Created with Sketch.</desc>
    <g id="Symbols" stroke="none" stroke-width="1" fill="none" fill-rule="evenodd">
        <g id="illustrations/triangle" transform="translate(0.000000, 3.000000)">
            <g id="Group-34" transform="translate(0.000000, -4.000000)">
                <polygon id="Fill-1" fill="#ADF5FF" points="792.2404 36.9301 695.2404 204.9391 889.2404 204.9391"></polygon>
                <path d="M591.2217,229.4588 L848.2017,231.2668 L721.2767,7.8118 L591.2217,229.4588 Z M605.8267,221.1628 L721.1587,24.6088 L833.7137,222.7668 L605.8267,221.1628 Z" id="Fill-2" fill="#1C1C1C"></path>
                <polygon id="Fill-3" fill="#333333" points="721.2756 7.8695 723.0556 16.3025 765.8176 16.7475 765.4046 8.2895"></polygon>
                <polygon id="Fill-4" fill="#333333" points="730.4025 30.809 732.1855 39.244 774.9445 39.687 774.5315 31.229"></polygon>
                <polygon id="Fill-5" fill="#333333" points="741.1105 54.6732 742.8915 63.1062 791.3685 63.5772 785.2405 55.0932"></polygon>
                <polygon id="Fill-6" fill="#333333" points="757.3185 78.1332 759.0985 86.5672 802.7725 87.0382 802.3605 78.5802"></polygon>
                <polygon id="Fill-7" fill="#333333" points="771.2482 101.184 773.0262 109.616 816.9542 110.067 816.5412 101.609"></polygon>
                <polygon id="Fill-8" fill="#333333" points="785.7336 125.1849 787.5146 133.6189 829.3446 134.2409 828.9316 125.7829"></polygon>
                <polygon id="Fill-9" fill="#333333" points="798.3312 149.2113 800.1122 157.6453 843.7792 158.1283 843.3662 149.6703"></polygon>
                <polygon id="Fill-10" fill="#333333" points="812.2824 172.5453 814.0604 180.9783 857.5704 181.5033 857.1574 173.0453"></polygon>
                <polygon id="Fill-11" fill="#333333" points="824.4982 197.5638 826.2782 205.9978 871.1462 206.5098 870.7332 198.0518"></polygon>
                <polygon id="Fill-12" fill="#333333" points="757.7433 11.9261 877.6683 222.9991 837.4893 222.7171 842.2663 231.1481 892.1543 231.5001 765.3933 8.3401"></polygon>
                <g id="Group-33" transform="translate(0.000000, 0.500000)" fill="#1C1C1C">
                    <path d="M1037.52427,19.9736729 C1040.14918,17.34877 1040.14918,13.09343 1037.52427,10.4685271 C1034.89943,7.8436806 1030.64335,7.8436806 1028.01879,10.4688648 C1025.39334,13.0936904 1025.39334,17.3485096 1028.01946,19.9740107 C1030.64335,22.5985194 1034.89943,22.5985194 1037.52427,19.9736729 Z M1043.18113,25.6305271 C1037.43197,31.3796806 1028.11005,31.3796806 1022.36261,25.6308648 C1016.61206,19.8816904 1016.61206,10.5605096 1022.36194,4.8120107 C1028.11005,-0.937480596 1037.43197,-0.937480596 1043.18113,4.81167288 C1048.93022,10.56077 1048.93022,19.88143 1043.18113,25.6305271 Z" id="Stroke-13"></path>
                    <path d="M961.4357,136.2181 C957.0947,140.5591 950.0567,140.5591 945.7157,136.2181 C941.3747,131.8771 941.3747,124.8391 945.7157,120.4981 C950.0567,116.1571 957.0947,116.1571 961.4357,120.4981 C965.7767,124.8391 965.7767,131.8771 961.4357,136.2181" id="Fill-15"></path>
                    <path d="M998.9123,136.9252 C994.5713,141.2662 987.5333,141.2662 983.1923,136.9252 C978.8513,132.5842 978.8513,125.5462 983.1923,121.2052 C987.5333,116.8642 994.5713,116.8642 998.9123,121.2052 C1003.2533,125.5462 1003.2533,132.5842 998.9123,136.9252" id="Fill-17"></path>
                    <polygon id="Stroke-19" points="722.5168 158.639 722.5168 168.639 554.6528 168.639 554.6528 158.639"></polygon>
                    <polygon id="Stroke-21" points="541.924 158.639 541.924 168.639 0 168.639 0 158.639"></polygon>
                    <polygon id="Stroke-23" points="872.1428 123.2836 872.1428 133.2836 762.9678 133.2836 762.9678 123.2836"></polygon>
                    <polygon id="Stroke-25" points="1151.4503 124.6976 1151.4503 134.6976 1023.4643 134.6976 1023.4643 124.6976"></polygon>
                    <polygon id="Stroke-27" points="1263.88 76.6146 1263.88 86.6146 847.395 86.6146 847.395 76.6146"></polygon>
                    <polygon id="Stroke-29" points="659.3039 68.8363 659.3039 78.8363 623.2409 78.8363 623.2409 68.8363"></polygon>
                    <polygon id="Stroke-31" points="597.7853 68.8363 597.7853 78.8363 569.5013 78.8363 569.5013 68.8363"></polygon>
                </g>
            </g>
        </g>
    </g>
</svg>