<?xml version="1.0" encoding="UTF-8"?>
<svg width="195px" height="39px" viewBox="0 0 195 39" version="1.1" xmlns="http://www.w3.org/2000/svg" xmlns:xlink="http://www.w3.org/1999/xlink">
    <!-- Generator: Sketch 52.5 (67469) - http://www.bohemiancoding.com/sketch -->
    <title>ThinkFWD_logo</title>
    <desc>Created with Sketch.</desc>
    <g id="Symbols" stroke="none" stroke-width="1" fill="none" fill-rule="evenodd">
        <g id="nav/default" transform="translate(-509.000000, -4.000000)">
            <g id="navigation/default">
                <g id="brand/logo" transform="translate(509.000000, 4.000000)">
                    <path d="M90,1 L96.6885011,1 L96.6885011,24.7634656 L106.147883,12.5425568 L114.584382,12.5425568 L104.547769,25.508967 L115,39 L106.560355,39 L106.496281,38.916849 L96.6885011,26.2570402 L96.6885011,38.9517096 L90,38.9517096 L90,1 Z M51,39 L51,13 L57,13 L57,39 L51,39 Z M73.48611,11.4903328 C80.5844557,11.4903328 86.3592784,17.3416022 86.3592784,24.5334056 L86.3592784,38.7523452 L79.6774321,38.7523452 L79.6774321,24.5334056 C79.6774321,21.1730495 76.9578013,18.5406656 73.48611,18.5406656 C70.0141307,18.5406656 67.2945,21.1730495 67.2945,24.5334056 L67.2945,38.7523452 L60.6126536,38.7523452 L60.6126536,24.5334056 C60.6126536,17.3416022 66.3877644,11.4903328 73.48611,11.4903328 Z M34.1213131,11.4903328 C41.2196588,11.4903328 46.9944815,17.3416022 46.9944815,24.5334056 L46.9944815,38.7523452 L40.3126352,38.7523452 L40.3126352,24.5334056 C40.3126352,21.1730495 37.5930044,18.5406656 34.1213131,18.5406656 C30.6605672,18.5406656 28.001712,21.0630805 27.9363279,24.4079721 L27.9363279,38.7600774 L21.2544815,38.7523452 L21.2481448,38.5375619 L21.2481448,24.5334056 C21.2481448,24.4769892 21.249873,24.4208591 21.2516012,24.3650155 L21.2544815,24.2705108 L21.2544815,0.683010836 L27.9363279,0.683010836 L27.9363279,13.1003483 C29.8284328,12.0459056 31.9584549,11.4903328 34.1213131,11.4903328 Z M11.5734084,27.9447368 C11.5734084,31.7853483 13.8846049,31.9803715 17.655853,31.9803715 L17.8718796,31.9803715 L17.8718796,38.7443266 L17.655853,38.7443266 C9.1179062,38.7443266 4.7823966,37.0741718 4.7823966,27.9447368 L4.7823966,19.011757 L-0.000144017725,19.011757 L-0.000144017725,12.2475155 L4.7823966,12.2475155 L4.7823966,5.59725232 L11.5734084,5.59066563 L11.5734084,12.2475155 L17.4355059,12.2475155 L17.4355059,19.011757 L11.5734084,19.011757 L11.5734084,27.9447368 Z M53.7386588,1.47103638 C55.7989764,1.47103638 57.4845598,3.22710449 57.4845598,5.26783204 C57.4845598,7.3085596 55.7989764,9.01708901 53.7386588,9.01708901 C51.725003,9.01708901 50.0391315,7.3085596 50.0391315,5.26783204 C50.0391315,3.22710449 51.725003,1.47103638 53.7386588,1.47103638 Z" id="Think" fill="#1C1C1C"></path>
                    <path d="M188.228315,0.727972136 L188.228315,13.9898375 C185.924896,12.4622988 183.160908,11.5693731 180.190398,11.5693731 C175.189239,11.5693731 170.770775,14.0957972 168.156853,17.9315402 L168.350989,17.2783127 L169.845029,12.2423607 L163.208116,12.2366331 L158.447466,28.2505882 L153.690849,12.2366331 L147.1559,12.2366331 L142.394962,28.2508746 L137.714386,12.235774 L131.071425,12.235774 L131.071425,12.2366331 L126.188936,12.2366331 C126.247983,8.70616873 128.631764,7.15085139 132.244881,7.15085139 L132.244881,0.149775542 C125.166698,0.149775542 119.404261,5.21293344 119.345213,12.2366331 L115.942363,12.2366331 L115.942363,18.8356347 L119.342333,18.8356347 L119.342333,38.8786378 L126.183463,38.8786378 L126.183463,18.8356347 L132.954024,18.8356347 L138.910886,38.8875155 L145.877887,38.8815015 L150.42107,23.5963777 L154.963101,38.8815015 L161.929815,38.8815015 L165.543507,26.7256269 L165.670819,26.298065 C165.780273,31.8386146 169.043138,36.6219814 173.745317,38.9473684 L177.823611,33.803452 C174.459069,32.7916796 172.002126,29.6816176 172.002126,26.0105418 C172.002126,21.5215712 175.675442,17.8696827 180.190398,17.8696827 C183.200657,17.8696827 185.834453,19.494017 187.256772,21.9067492 L194.756927,12.4474071 L194.756927,0.727972136 L188.228315,0.727972136 Z" id="FWD" fill="#FF0068"></path>
                </g>
            </g>
        </g>
    </g>
</svg>