<?xml version="1.0" encoding="UTF-8"?>
<svg width="174px" height="127px" viewBox="0 0 174 127" version="1.1" xmlns="http://www.w3.org/2000/svg" xmlns:xlink="http://www.w3.org/1999/xlink">
    <!-- Generator: Sketch 52.4 (67378) - http://www.bohemiancoding.com/sketch -->
    <title>illustrations/half-plus</title>
    <desc>Created with Sketch.</desc>
    <g id="004-About" stroke="none" stroke-width="1" fill="none" fill-rule="evenodd">
        <g id="About" transform="translate(-626.000000, -1409.000000)" fill="#FF0068">
            <g id="Founders" transform="translate(192.000000, 1409.000000)">
                <g id="illustrations/half-plus" transform="translate(434.000000, 0.000000)">
                    <g id="Group-10">
                        <path d="M9.96096205,-3.69186047e-05 L13.7559429,-3.69186047e-05 L13.7559429,9.91223924 L23.7162371,9.91223924 L23.7162371,13.6879049 L13.7559429,13.6879049 L13.7559429,23.6001811 L9.96096205,23.6001811 L9.96096205,13.6879049 L-7.42004263e-05,13.6879049 L-7.42004263e-05,9.91223924 L9.96096205,9.91223924 L9.96096205,-3.69186047e-05 Z M9.96096205,103.371687 L13.7559429,103.371687 L13.7559429,113.284332 L23.7162371,113.284332 L23.7162371,117.059998 L13.7559429,117.059998 L13.7559429,126.972274 L9.96096205,126.972274 L9.96096205,117.059998 L-7.42004263e-05,117.059998 L-7.42004263e-05,113.284332 L9.96096205,113.284332 L9.96096205,103.371687 Z M75.2855335,61.5982488 L75.2855335,65.3742837 L65.3248682,65.3742837 L65.3248682,75.2861907 L61.5302584,75.2861907 L61.5302584,65.3742837 L51.5692222,65.3742837 L51.5692222,61.5982488 L61.5302584,61.5982488 L61.5302584,51.6856035 L65.3248682,51.6856035 L65.3248682,61.5982488 L75.2855335,61.5982488 Z M61.53011,103.371687 L65.3250908,103.371687 L65.3250908,113.284332 L75.2853851,113.284332 L75.2853851,117.059998 L65.3250908,117.059998 L65.3250908,126.972274 L61.53011,126.972274 L61.53011,117.059998 L51.5690738,117.059998 L51.5690738,113.284332 L61.53011,113.284332 L61.53011,103.371687 Z M110.873468,-3.69186047e-05 L114.668078,-3.69186047e-05 L114.668078,9.91223924 L124.628743,9.91223924 L124.628743,13.6879049 L114.668078,13.6879049 L114.668078,23.6001811 L110.873468,23.6001811 L110.873468,13.6879049 L100.912432,13.6879049 L100.912432,9.91223924 L110.873468,9.91223924 L110.873468,-3.69186047e-05 Z M124.628817,61.5982488 L124.628817,65.3742837 L114.668152,65.3742837 L114.668152,75.2861907 L110.873542,75.2861907 L110.873542,65.3742837 L100.912506,65.3742837 L100.912506,61.5982488 L110.873542,61.5982488 L110.873542,51.6856035 L114.668152,51.6856035 L114.668152,61.5982488 L124.628817,61.5982488 Z M160.216826,-3.69186047e-05 L164.011806,-3.69186047e-05 L164.011806,9.91223924 L173.972101,9.91223924 L173.972101,13.6879049 L164.011806,13.6879049 L164.011806,23.6001811 L160.216826,23.6001811 L160.216826,13.6879049 L150.255789,13.6879049 L150.255789,9.91223924 L160.216826,9.91223924 L160.216826,-3.69186047e-05 Z M160.216826,51.685825 L164.011806,51.685825 L164.011806,61.5984703 L173.972101,61.5984703 L173.972101,65.374136 L164.011806,65.374136 L164.011806,75.286043 L160.216826,75.286043 L160.216826,65.374136 L150.255789,65.374136 L150.255789,61.5984703 L160.216826,61.5984703 L160.216826,51.685825 Z M160.216826,103.371687 L164.011806,103.371687 L164.011806,113.284332 L173.972101,113.284332 L173.972101,117.059998 L164.011806,117.059998 L164.011806,126.972274 L160.216826,126.972274 L160.216826,117.059998 L150.255789,117.059998 L150.255789,113.284332 L160.216826,113.284332 L160.216826,103.371687 Z" id="Combined-Shape"></path>
                    </g>
                </g>
            </g>
        </g>
    </g>
</svg>