<?xml version="1.0" encoding="UTF-8"?>
<svg width="220px" height="161px" viewBox="0 0 220 161" version="1.1" xmlns="http://www.w3.org/2000/svg" xmlns:xlink="http://www.w3.org/1999/xlink">
    <!-- Generator: Sketch 52.4 (67378) - http://www.bohemiancoding.com/sketch -->
    <title>Plus</title>
    <desc>Created with Sketch.</desc>
    <g id="001-Home-Page" stroke="none" stroke-width="1" fill="none" fill-rule="evenodd">
        <g id="Home-Page" transform="translate(-239.000000, -1865.000000)" fill="#1F2632">
            <g id="Attend-Event" transform="translate(239.000000, 1809.000000)">
                <path d="M12.6002346,56 L17.4007039,56 L17.4007039,68.6002346 L30,68.6002346 L30,73.3997654 L17.4007039,73.3997654 L17.4007039,86 L12.6002346,86 L12.6002346,73.3997654 L0,73.3997654 L0,68.6002346 L12.6002346,68.6002346 L12.6002346,56 Z M12.6002346,187 L17.4007039,187 L17.4007039,199.600507 L30,199.600507 L30,204.399962 L17.4007039,204.399962 L17.4007039,217 L12.6002346,217 L12.6002346,204.399962 L0,204.399962 L0,199.600507 L12.6002346,199.600507 L12.6002346,187 Z M95,134.600507 L95,139.400432 L82.4002346,139.400432 L82.4002346,152 L77.6002346,152 L77.6002346,139.400432 L65,139.400432 L65,134.600507 L77.6002346,134.600507 L77.6002346,122 L82.4002346,122 L82.4002346,134.600507 L95,134.600507 Z M77.6002346,187 L82.4007039,187 L82.4007039,199.600507 L95,199.600507 L95,204.399962 L82.4007039,204.399962 L82.4007039,217 L77.6002346,217 L77.6002346,204.399962 L65,204.399962 L65,199.600507 L77.6002346,199.600507 L77.6002346,187 Z M158,134.600507 L158,139.400432 L145.400235,139.400432 L145.400235,152 L140.600235,152 L140.600235,139.400432 L128,139.400432 L128,134.600507 L140.600235,134.600507 L140.600235,122 L145.400235,122 L145.400235,134.600507 L158,134.600507 Z M202.600235,122 L207.400704,122 L207.400704,134.600704 L220,134.600704 L220,139.400235 L207.400704,139.400235 L207.400704,152 L202.600235,152 L202.600235,139.400235 L190,139.400235 L190,134.600704 L202.600235,134.600704 L202.600235,122 Z M202.600235,187 L207.400704,187 L207.400704,199.600507 L220,199.600507 L220,204.399962 L207.400704,204.399962 L207.400704,217 L202.600235,217 L202.600235,204.399962 L190,204.399962 L190,199.600507 L202.600235,199.600507 L202.600235,187 Z M140.600235,56 L145.400235,56 L145.400235,68.6002346 L158,68.6002346 L158,73.3997654 L145.400235,73.3997654 L145.400235,86 L140.600235,86 L140.600235,73.3997654 L128,73.3997654 L128,68.6002346 L140.600235,68.6002346 L140.600235,56 Z M202.600235,56 L207.400704,56 L207.400704,68.6002346 L220,68.6002346 L220,73.3997654 L207.400704,73.3997654 L207.400704,86 L202.600235,86 L202.600235,73.3997654 L190,73.3997654 L190,68.6002346 L202.600235,68.6002346 L202.600235,56 Z" id="Plus"></path>
            </g>
        </g>
    </g>
</svg>