<?xml version="1.0" encoding="UTF-8"?>
<svg width="114px" height="50px" viewBox="0 0 114 50" version="1.1" xmlns="http://www.w3.org/2000/svg" xmlns:xlink="http://www.w3.org/1999/xlink">
    <!-- Generator: Sketch 52.4 (67378) - http://www.bohemiancoding.com/sketch -->
    <title>logo/client/yale</title>
    <desc>Created with Sketch.</desc>
    <g id="001-Home-Page" stroke="none" stroke-width="1" fill="none" fill-rule="evenodd">
        <g id="Home-Page" transform="translate(-893.000000, -3987.000000)" fill="#342EA6">
            <g id="Client-Wall" transform="translate(192.000000, 3940.000000)">
                <g id="Logos" transform="translate(686.000000, 0.000000)">
                    <g id="logo/client/yale">
                        <path d="M53.179875,57.6 L41.722875,77.171625 L41.722875,90.338625 C43.041375,93.506625 46.37475,93.927375 49.56975,94.069125 L49.56975,95.8995 L27.138375,95.8995 L27.138375,94.069125 C30.333375,93.9285 34.2225,93.43575 35.26425,91.324125 L35.26425,77.73525 L23.598,57.740625 C21.583125,54.36 19.638,53.235 15.75,52.952625 L15.75,51.12225 L35.26425,51.12225 L35.26425,52.95375 C31.58325,53.16525 30.403125,53.8695 29.361375,54.714375 L40.195125,73.7235 L50.819625,54.78525 C49.708125,53.940375 48.250125,53.16525 44.57025,52.954875 L44.57025,51.123375 L61.236,51.123375 L61.236,52.95375 C57.4875,53.094375 55.125,54.36 53.181,57.6 L53.179875,57.6 Z M75.95775,96.534 C72.208125,96.534 70.4025,93.9285 70.264125,92.098125 C67.901625,94.63275 64.84725,96.534 61.930125,96.534 C58.1805,96.534 54.9855,94.20975 54.9855,90.198 C54.9855,88.225875 55.4715,86.184 56.444625,84.565125 L70.264125,79.495875 L70.264125,74.286 C70.264125,71.118 68.805,68.090625 65.67975,68.090625 C63.8055,68.090625 61.999875,70.412625 61.8615,74.003625 L55.611,75.06 L55.611,74.356875 C57.693375,68.01975 64.569375,65.556 67.901625,65.556 C74.221875,65.556 76.5135,68.934375 76.44375,74.14425 L76.235625,88.929 C76.165875,91.81575 77.693625,92.52 79.083,92.52 C80.193375,92.52 81.304875,91.81575 82.6245,90.47925 L82.6245,92.52 C81.09675,94.3515 78.388875,96.534 75.95775,96.534 Z M62.069625,85.057875 C61.79175,86.182875 61.583625,87.1695 61.583625,88.718625 C61.583625,90.83025 62.764875,92.941875 65.055375,92.941875 C67.138875,92.941875 68.319,92.23875 70.194375,90.759375 L70.264125,81.255375 C68.4585,82.099125 64.013625,84.072375 62.069625,85.057875 Z M83.25,95.8995 L83.25,94.2795 C86.37525,94.069125 87.2775,93.364875 87.83325,92.167875 L87.83325,55.69875 C87.83325,53.30475 87.485625,52.31925 82.69425,51.89625 L82.69425,50.49 L95.403375,47.25 L95.819625,48.448125 L93.805875,50.981625 L93.805875,92.167875 C94.5,93.576375 95.819625,94.069125 98.665875,94.280625 L98.665875,95.900625 L83.25,95.900625 L83.25,95.8995 Z M115.33275,96.462 C108.041625,96.462 102.416625,90.619875 102.416625,82.452375 C102.416625,72.4545 108.457875,65.62575 117,65.62575 C123.87375,65.62575 127.69425,69.568875 127.69425,75.834 L127.69425,77.101875 L108.943875,76.96125 C108.8055,77.73525 108.73575,79.003125 108.73575,80.551125 C108.73575,87.733125 113.1795,92.45025 119.0835,92.45025 C122.625,92.45025 124.430625,91.182375 127.20825,88.7895 L128.25,90.408375 C124.291125,94.069125 121.0275,96.463125 115.33275,96.463125 L115.33275,96.462 Z M115.95825,67.80825 C112.485375,67.80825 110.055375,70.624125 109.22175,75.06 L121.444875,74.919375 C121.444875,71.18775 119.152125,67.809375 115.95825,67.809375 L115.95825,67.80825 Z" id="Shape"></path>
                    </g>
                </g>
            </g>
        </g>
    </g>
</svg>