<?xml version="1.0" encoding="UTF-8"?>
<svg width="12px" height="18px" viewBox="0 0 12 18" version="1.1" xmlns="http://www.w3.org/2000/svg" xmlns:xlink="http://www.w3.org/1999/xlink">
    <!-- Generator: Sketch 52.4 (67378) - http://www.bohemiancoding.com/sketch -->
    <title>icon/ui/arrow</title>
    <desc>Created with Sketch.</desc>
    <g id="006-Contact" stroke="none" stroke-width="1" fill="none" fill-rule="evenodd">
        <g id="Contact-Question---Mobile" transform="translate(-327.000000, -379.000000)" fill="#1C1C1C">
            <g id="Queation" transform="translate(30.000000, 281.000000)">
                <g id="icon/ui/arrow" transform="translate(303.000000, 107.000000) rotate(-270.000000) translate(-303.000000, -107.000000) translate(291.000000, 95.000000)">
                    <path d="M18.9514719,11.4 L14.5757359,7.02426407 C14.3414214,6.78994949 14.3414214,6.41005051 14.5757359,6.17573593 C14.8100505,5.94142136 15.1899495,5.94142136 15.4242641,6.17573593 L20.5414214,11.2928932 C20.9319456,11.6834175 20.9319456,12.3165825 20.5414214,12.7071068 L15.4242641,17.8242641 C15.1899495,18.0585786 14.8100505,18.0585786 14.5757359,17.8242641 C14.3414214,17.5899495 14.3414214,17.2100505 14.5757359,16.9757359 L18.9514719,12.6 L9,12.6 C8.66862915,12.6 8.4,12.3313708 8.4,12 C8.4,11.6686292 8.66862915,11.4 9,11.4 L18.9514719,11.4 Z M3.6,12 C3.6,11.6686292 3.86862915,11.4 4.2,11.4 L5.4,11.4 C5.73137085,11.4 6,11.6686292 6,12 C6,12.3313708 5.73137085,12.6 5.4,12.6 L4.2,12.6 C3.86862915,12.6 3.6,12.3313708 3.6,12 Z" id="Icon"></path>
                </g>
            </g>
        </g>
    </g>
</svg>