<?xml version="1.0" encoding="UTF-8"?>
<svg width="276px" height="39px" viewBox="0 0 276 39" version="1.1" xmlns="http://www.w3.org/2000/svg" xmlns:xlink="http://www.w3.org/1999/xlink">
    <!-- Generator: Sketch 62 (91390) - https://sketch.com -->
    <title>logo</title>
    <desc>Created with Sketch.</desc>
    <g id="Page-1" stroke="none" stroke-width="1" fill="none" fill-rule="evenodd">
        <g id="logo" fill="#9E9E9E" fill-rule="nonzero">
            <polygon id="Path" points="56.9 13.1 60.7 13.1 60.7 30.7 56.9 30.7"></polygon>
            <path d="M92,13.1 L93.9,13.1 L97.4,9.1 C97.5,9 97.6,9.1 97.6,9.2 L97.6,13 C97.6,13.1 97.7,13.1 97.7,13.1 L101.8,13.1 C101.9,13.1 101.9,13.2 101.9,13.2 L101.9,16.6 C101.9,16.7 101.8,16.7 101.8,16.7 L97.7,16.7 C97.6,16.7 97.6,16.8 97.6,16.8 L97.6,25.1 C97.6,27.3 99,27.3 101.8,27.2 C101.9,27.2 101.9,27.2 101.9,27.3 L101.9,30.5 C101.9,30.6 101.9,30.6 101.8,30.6 C96,31.3 93.7,29.6 93.7,25.1 L93.7,16.6 L92,16.6" id="Path"></path>
            <polygon id="Path" points="126.5 6 130.3 6 130.3 30.7 126.5 30.7"></polygon>
            <path d="M146.8,25.8 C146.8,29.3 143.7,31.2 139.9,31.2 C136.4,31.2 133.8,29.6 132.7,27.1 L136,25.2 C136.6,26.8 138,27.7 139.9,27.7 C141.6,27.7 142.9,27.1 142.9,25.7 C142.9,22.6 133.4,24.3 133.4,18 C133.4,14.7 136.3,12.6 139.8,12.6 C142.7,12.6 145.1,13.9 146.3,16.3 L143.1,18.1 C142.5,16.7 141.2,16.1 139.8,16.1 C138.4,16.1 137.2,16.7 137.2,18 C137.3,21.2 146.8,19.3 146.8,25.8 Z" id="Path"></path>
            <path d="M165.6,13.1 L165.6,30.7 L161.8,30.7 L161.8,28.4 C160.6,30.2 158.7,31.1 156.3,31.1 C152.4,31.1 149.5,28.4 149.5,23.8 L149.5,13.1 L153.3,13.1 L153.3,23.5 C153.3,26.2 154.8,27.6 157.2,27.6 C159.7,27.6 161.7,26.1 161.7,22.5 L161.7,13.1 L165.6,13.1 Z" id="Path"></path>
            <path d="M177.9,12.8 L177.9,16.9 C175.4,16.7 172.5,17.9 172.5,21.8 L172.5,30.7 L168.7,30.7 L168.7,13.1 L172.5,13.1 L172.5,16.1 C173.5,13.7 175.6,12.8 177.9,12.8 Z" id="Path"></path>
            <path d="M210.3,27.7 C212.4,27.7 214,26.7 214.8,25.5 L217.3,27.7 C215.7,30.1 213.7,31.2 210.2,31.2 C204.4,31.2 200.6,27.2 200.6,21.9 C200.6,16.7 204.4,12.6 209.9,12.6 C215.1,12.6 218.7,16.8 218.7,21.9 C218.7,22.4 218.6,23 218.6,23.5 L204.6,23.5 C205.2,26.3 207.4,27.7 210.3,27.7 Z M214.9,20.5 C214.4,17.5 212.2,16.2 209.9,16.2 C207,16.2 205.1,17.9 204.6,20.5 L214.9,20.5 Z" id="Shape"></path>
            <path d="M221.4,21.9 C221.4,16.7 225.6,12.6 230.7,12.6 C235.9,12.6 240,16.6 240,21.9 C240,27.1 235.9,31.2 230.7,31.2 C225.5,31.2 221.4,27.1 221.4,21.9 Z M236.2,21.9 C236.2,18.7 233.8,16.3 230.7,16.3 C227.6,16.3 225.2,18.7 225.2,21.9 C225.2,25.1 227.6,27.5 230.7,27.5 C233.8,27.5 236.2,25.1 236.2,21.9 Z" id="Shape"></path>
            <path d="M259,19.9 L259,30.7 L255.2,30.7 L255.2,20.3 C255.2,17.6 253.7,16.2 251.3,16.2 C248.8,16.2 246.8,17.7 246.8,21.3 L246.8,30.7 L243,30.7 L243,13.1 L246.8,13.1 L246.8,15.4 C248,13.6 249.9,12.7 252.3,12.7 C256.2,12.7 259,15.3 259,19.9 Z" id="Path"></path>
            <path d="M275.2,25.8 C275.2,29.3 272.1,31.2 268.3,31.2 C264.8,31.2 262.2,29.6 261.1,27.1 L264.4,25.2 C265,26.8 266.4,27.7 268.3,27.7 C270,27.7 271.3,27.1 271.3,25.7 C271.3,22.6 261.8,24.3 261.8,18 C261.8,14.7 264.7,12.6 268.2,12.6 C271.1,12.6 273.5,13.9 274.7,16.3 L271.5,18.1 C270.9,16.7 269.6,16.1 268.2,16.1 C266.8,16.1 265.6,16.7 265.6,18 C265.8,21.2 275.2,19.3 275.2,25.8 Z" id="Path"></path>
            <path d="M49.7,6.1 L49.7,13.8 C48.1,12.6 46.2,12 44.1,12 C38.9,12 34.7,16.2 34.7,21.4 C34.7,26.6 38.9,30.8 44.1,30.8 C46.2,30.8 48.1,30.1 49.7,29 L49.7,30.8 L53.5,30.8 L53.5,6.1 L49.7,6.1 Z M44.2,26.9 C41.1,26.9 38.6,24.4 38.6,21.3 C38.6,18.2 41.1,15.7 44.2,15.7 C47.3,15.7 49.8,18.2 49.8,21.3 C49.8,24.4 47.2,26.9 44.2,26.9 Z" id="Shape"></path>
            <path d="M119.4,13.1 L119.4,14.5 C117.8,13.2 115.7,12.3 113.4,12.3 C108.2,12.3 104,16.5 104,21.7 C104,26.9 108.2,31.1 113.4,31.1 C115.7,31.1 117.8,30.3 119.4,28.9 L119.4,30.7 L122.8,30.7 L122.8,13.1 L119.4,13.1 Z M113.4,27.3 C110.3,27.3 107.8,24.8 107.8,21.7 C107.8,18.6 110.3,16.1 113.4,16.1 C116.5,16.1 119,18.6 119,21.7 C119,24.8 116.4,27.3 113.4,27.3 Z" id="Shape"></path>
            <polygon id="Path" points="85.7 13.1 89.5 13.1 89.5 30.7 85.7 30.7"></polygon>
            <path d="M197.6,28.6 L197.6,13.1 L194.1,13.1 L194.1,14.4 C192.5,13.1 190.4,12.3 188.2,12.3 C183,12.3 178.8,16.5 178.8,21.7 C178.8,26.9 183,31.1 188.2,31.1 C190.3,31.1 192.3,30.4 193.9,29.2 L193.9,29.3 C193.9,32.4 191.5,34.9 188.4,34.9 C187.3,34.9 186.2,34.6 185.4,34 L182.8,36.8 C184.3,37.9 186.4,38.7 188.4,38.7 C193.5,38.7 197.6,34.5 197.6,29.3 C197.7,29 197.6,28.8 197.6,28.6 Z M188.3,27.3 C185.2,27.3 182.7,24.8 182.7,21.7 C182.7,18.6 185.2,16.1 188.3,16.1 C191.4,16.1 193.9,18.6 193.9,21.7 C193.9,24.8 191.3,27.3 188.3,27.3 Z" id="Shape"></path>
            <path d="M58.8,9.8 L58.8,9.8 C57.7,9.8 56.9,8.9 56.9,7.9 L56.9,7.9 C56.9,6.8 57.8,6 58.8,6 L58.8,6 C59.9,6 60.7,6.9 60.7,7.9 L60.7,7.9 C60.7,9 59.9,9.8 58.8,9.8 Z" id="Path"></path>
            <path d="M87.7,9.8 L87.6,9.8 C86.6,9.8 85.8,9 85.8,8 L85.8,7.9 C85.8,6.9 86.6,6.1 87.6,6.1 L87.7,6.1 C88.7,6.1 89.5,6.9 89.5,7.9 L89.5,8 C89.5,9 88.7,9.8 87.7,9.8 Z" id="Path"></path>
            <path d="M82.5,27.8 L82.5,13.1 L79,13.1 L79,14.6 C77.4,13.2 75.3,12.4 73,12.4 C67.8,12.4 63.6,16.6 63.6,21.8 C63.6,27 67.8,31.2 73,31.2 C75.2,31.2 77.2,30.5 78.8,29.2 C78.5,32 76.2,34.1 73.4,34.1 C72.3,34.1 71.2,33.8 70.4,33.2 L67.8,36 C69.3,37.1 71.4,37.9 73.4,37.9 C78.5,37.9 82.6,33.7 82.6,28.5 C82.6,28.2 82.5,28 82.5,27.8 Z M73,27.3 C69.9,27.3 67.4,24.8 67.4,21.7 C67.4,18.6 69.9,16.1 73,16.1 C76.1,16.1 78.6,18.6 78.6,21.7 C78.6,24.8 76.1,27.3 73,27.3 Z" id="Shape"></path>
            <path d="M26.3,0 L14.8,0.9 C14.6,0.9 14.4,1 14.2,1.1 C14,1.2 13.9,1.4 13.7,1.5 C13.6,1.7 13.5,1.9 13.4,2.1 C13.3,2.3 13.3,2.6 13.4,2.8 L15,15.3 C15,15.5 15,15.7 15,15.9 C15,16.1 14.9,16.3 14.8,16.5 C14.7,16.7 14.5,16.8 14.4,17 C14.2,17.1 14,17.2 13.8,17.3 L1.6,20.4 C1.3,20.5 1.1,20.6 0.9,20.7 C0.7,20.9 0.5,21 0.4,21.2 C0.3,21.4 0.2,21.6 0.1,21.9 C0,22.2 1.77635684e-15,22.4 0.1,22.6 L3.2,36 C3.2,36.2 3.3,36.4 3.5,36.5 C3.6,36.6 3.8,36.7 4,36.8 C4.2,36.9 4.4,36.9 4.6,36.9 C4.8,36.9 5,36.8 5.3,36.7 L17.4,31.5 C17.6,31.4 17.7,31.3 17.9,31.2 C18,31.1 18.2,30.9 18.3,30.8 C18.4,30.7 18.5,30.5 18.5,30.3 C18.5,30.1 18.6,29.9 18.5,29.8 L17.4,19.8 C17.4,19.6 17.4,19.4 17.4,19.2 C17.4,19 17.5,18.8 17.6,18.6 C17.7,18.4 17.8,18.3 18,18.2 C18.2,18.1 18.3,18 18.5,17.9 L27.1,15.5 C27.2,15.5 27.4,15.4 27.5,15.3 C27.6,15.2 27.7,15.1 27.8,14.9 C27.9,14.8 28,14.6 28,14.4 C28,14.2 28.1,14 28.1,13.9 L27.6,1.5 C27.6,1.3 27.6,1.1 27.5,0.9 C27.4,0.7 27.3,0.5 27.2,0.4 C27.1,0.3 27,0.2 26.8,0.1 C26.6,0 26.4,0 26.3,0" id="Fill-32"></path>
        </g>
    </g>
</svg>