<?xml version="1.0" encoding="UTF-8"?>
<svg width="87px" height="11px" viewBox="0 0 87 11" version="1.1" xmlns="http://www.w3.org/2000/svg" xmlns:xlink="http://www.w3.org/1999/xlink">
    <!-- Generator: Sketch 52.4 (67378) - http://www.bohemiancoding.com/sketch -->
    <title>District logo</title>
    <desc>Created with Sketch.</desc>
    <g id="Symbols" stroke="none" stroke-width="1" fill="none" fill-rule="evenodd" opacity="0.470098586">
        <g id="Footer/Desktop-no-line" transform="translate(-1320.000000, -164.000000)" fill="#000000">
            <g id="District-logo" transform="translate(1320.000000, 164.000000)">
                <path d="M3.67246842,0.3883 C6.76783684,0.3773 8.84820526,2.47515714 8.85736316,5.44908571 C8.86652105,8.45208571 6.79988947,10.5483714 3.71902105,10.5578 L0.0314421053,10.5703714 L0.0268631579,8.99972857 L3.69917895,8.98715714 C4.12120526,8.98558571 4.5066,8.92115714 4.85612632,8.80722857 L0.000152631579,0.400085714 L3.67246842,0.3883 Z M6.37557368,7.72451429 C6.83652105,7.1093 7.08302105,6.31651429 7.07996842,5.45458571 C7.07386316,3.50287143 5.8841,1.95108571 3.69231053,1.95894286 L2.84673158,1.9613 L6.37557368,7.72451429 Z M14.0686632,0.353807143 L15.8010316,0.348307143 L15.8330842,10.5185929 L14.0999526,10.5233071 L14.0686632,0.353807143 Z M22.9322079,3.00865714 C22.9383132,4.9148 28.6810763,3.7213 28.6925237,7.50294286 C28.6978658,9.19537143 27.5325237,10.6630857 24.8813132,10.6717286 C23.0596553,10.6780143 21.7393921,10.0101571 20.8480237,9.06808571 L21.82105,7.67737143 C22.4903395,8.42301429 23.5732605,9.09008571 24.9507605,9.08537143 C26.3717605,9.08144286 26.9181816,8.36172857 26.9158921,7.6758 C26.9090237,5.5418 21.1670237,6.88772857 21.1555763,3.15165714 C21.1509974,1.45844286 22.5681816,0.158085714 24.7447079,0.151014286 C26.2710237,0.145514286 27.5309974,0.660157143 28.4376289,1.57237143 L27.4638395,2.9018 C26.6770237,2.09644286 25.6231026,1.73422857 24.5867342,1.73737143 C23.5801289,1.7413 22.9299184,2.26144286 22.9322079,3.00865714 Z M40.7397342,0.266357143 L40.7443132,1.837 L37.7527342,1.84721429 L37.7794447,10.4460714 L36.0470763,10.4523571 L36.0203658,1.85271429 L33.0287868,1.86214286 L33.0242079,0.2915 L40.7397342,0.266357143 Z M58.6280789,0.208057143 L60.3612105,0.201771429 L60.3925,10.3720571 L58.6593684,10.3775571 L58.6280789,0.208057143 Z M70.7983868,8.9353 C71.8492553,8.93137143 72.8108342,8.28865714 73.2817026,7.44794286 L74.7652816,8.20537143 C74.0135711,9.42715714 72.7871763,10.5145857 70.8029658,10.5216571 C67.8861763,10.5303 65.6134921,8.40337143 65.6035711,5.2778 C65.59365,2.13651429 67.8533605,0.00958571429 70.7709132,0.000157142857 C72.7551237,-0.00691428571 74.0021237,1.04201429 74.7317026,2.25908571 L73.2687289,3.05658571 C72.7917553,2.20487143 71.8271237,1.58258571 70.7754921,1.58572857 C68.8210447,1.59201429 67.3740974,3.12258571 67.3802026,5.27151429 C67.3870711,7.39058571 68.8439395,8.94158571 70.7983868,8.9353 Z M86.7553316,1.68590714 L83.7637526,1.69612143 L83.7904632,10.2949786 L82.0573316,10.3012643 L82.0313842,1.70240714 L79.0390421,1.71105 L79.0344632,0.140407143 L86.7499895,0.115264286 L86.7553316,1.68590714 Z M53.3513,3.41157143 C53.3566421,5.03014286 52.4248263,5.99185714 51.3648,6.31714286 L53.8603263,10.3934286 L51.6219842,10.4012857 L49.4309579,6.60707143 C49.3676158,6.60942857 49.3050368,6.61178571 49.2447474,6.61178571 L47.5116158,6.61728571 L47.5230632,10.4146429 L45.7906947,10.4201429 L45.7739053,5.05371429 L48.5281421,5.04428571 L45.7594053,0.250642857 L47.6459316,0.244357143 L50.0987211,0.235714286 C52.0531684,0.229428571 53.3459579,1.52114286 53.3513,3.41157143 Z M49.8812211,1.80714286 L48.6059842,1.81107143 L50.5184579,4.93507143 C51.1556947,4.71664286 51.5769579,4.16428571 51.5739053,3.40214286 C51.5708526,2.42628571 50.8588263,1.804 49.8812211,1.80714286 Z" id="Combined-Shape"></path>
            </g>
        </g>
    </g>
</svg>