<?xml version="1.0" encoding="UTF-8"?>
<svg width="226px" height="257px" viewBox="0 0 226 257" version="1.1" xmlns="http://www.w3.org/2000/svg" xmlns:xlink="http://www.w3.org/1999/xlink">
    <!-- Generator: Sketch 52.5 (67469) - http://www.bohemiancoding.com/sketch -->
    <title>Box Illustration</title>
    <desc>Created with Sketch.</desc>
    <g id="001-Home-Page" stroke="none" stroke-width="1" fill="none" fill-rule="evenodd">
        <g id="Home-Page" transform="translate(-1164.000000, -888.000000)">
            <g id="Intro" transform="translate(87.000000, 888.000000)">
                <g id="Box-Illustration" transform="translate(1077.000000, 0.000000)">
                    <g id="Group-261" transform="translate(113.000000, 128.500000) scale(-1, 1) translate(-113.000000, -128.500000) ">
                        <polygon id="Fill-1" fill="#00DEF0" points="178.790744 102.154812 143.671429 72.5034307 170.971161 40.8619247 206.090476 70.5136426"></polygon>
                        <g id="Group-260">
                            <path d="M84.1244745,153.661833 C85.0178711,152.767962 85.0178711,151.318587 84.1243596,150.424814 C83.2309701,149.530737 81.7824534,149.530737 80.888834,150.425044 C79.9955524,151.318587 79.9955524,152.767962 80.888949,153.661833 C81.7823647,154.555724 83.2310588,154.555724 84.1244745,153.661833 Z M86.0498496,155.588231 C84.0930786,157.546042 80.9203449,157.546042 78.9635739,155.588231 C77.0067837,153.630401 77.0067837,150.455893 78.963459,148.498646 C80.9202563,146.540341 84.0931672,146.540341 86.0497346,148.498416 C88.0066398,150.455893 88.0066398,153.630401 86.0498496,155.588231 Z M126.499509,88.1074422 C127.392905,87.2135709 127.392905,85.7641958 126.499394,84.870423 C125.606004,83.9763454 124.157487,83.9763454 123.263868,84.8706531 C122.370586,85.7641958 122.370586,87.2135709 123.263983,88.1074422 C124.157399,89.0013326 125.606093,89.0013326 126.499509,88.1074422 Z M128.424884,90.0338403 C126.468113,91.991651 123.295379,91.991651 121.338608,90.0338403 C119.381818,88.0760104 119.381818,84.9015022 121.338493,82.9442549 C123.29529,80.9859503 126.468201,80.9859503 128.424769,82.9440249 C130.381674,84.9015022 130.381674,88.0760104 128.424884,90.0338403 Z M143.466354,111.060127 L145.873073,113.468124 L134.308953,125.038389 L131.902234,122.630391 L143.466354,111.060127 Z M125.767559,128.768326 L128.174278,131.176323 L116.610157,142.746588 L114.203438,140.338591 L125.767559,128.768326 Z M160.643307,93.8743533 L163.050026,96.2823509 L151.485906,107.852616 L149.079187,105.444618 L160.643307,93.8743533 Z" id="Combined-Shape" fill="#00DEF0"></path>
                            <polygon id="Stroke-6" fill="#1E1E1E" fill-rule="nonzero" points="140.228938 91.5816864 142.635657 93.989684 91.6345365 145.017903 89.2278177 142.609905"></polygon>
                            <polygon id="Stroke-8" fill="#1E1E1E" fill-rule="nonzero" points="87.3027333 167.011804 89.7094522 169.419802 2.40674136 256.768899 2.24958721e-05 254.360902"></polygon>
                            <polygon id="Stroke-16" fill="#1E1E1E" fill-rule="nonzero" points="114.785593 94.2062458 117.192312 96.6142434 36.7751127 177.074171 34.3683939 174.666173"></polygon>
                            <polygon id="Fill-20" fill="#FFFFFF" points="171.407352 31.8755077 167.263451 14.1979573 136.817439 48.0907694 140.96168 65.7686603"></polygon>
                            <path d="M204.436707,55.347964 L201.358138,42.2142695 L169.709629,16.9691883 L172.788879,30.1032234 L204.436707,55.347964 Z M168.16677,11.8239348 L203.679403,40.1516048 C203.947608,40.366487 204.136848,40.6644615 204.215132,40.998874 L208.422339,58.9461339 C208.571077,59.5815858 208.301171,60.2401946 207.750806,60.5889099 C207.200102,60.9376252 206.48296,60.8957385 205.979906,60.4925364 L170.467273,32.1655475 C170.198728,31.9510059 170.010168,31.6526909 169.931544,31.3182783 L165.723996,13.3703374 C165.574918,12.7355666 165.844824,12.0766172 166.395189,11.7282425 C166.910836,11.4016624 167.567053,11.414603 168.066704,11.7513993 C168.10074,11.7742157 168.134095,11.7987347 168.16677,11.8239348 Z" id="Fill-22" fill="#1E1E1E"></path>
                            <path d="M141.329917,62.17645 L169.749417,30.5404116 L166.393113,16.2236731 L137.973953,47.860052 L141.329917,62.17645 Z M168.702125,12.6714765 L172.909673,30.6190769 C173.023694,31.1067335 172.892655,31.6195901 172.55842,31.9914623 L141.647474,66.4015582 C141.266269,66.8258739 140.682209,67.0032964 140.130823,66.8616308 C139.576715,66.7213274 139.150583,66.2837305 139.020905,65.7286466 L134.813357,47.7813868 C134.699676,47.2937302 134.830715,46.7808735 135.16529,46.4086608 L166.075555,11.9982244 C166.45642,11.5739087 167.041161,11.3971672 167.592546,11.5388328 C167.764429,11.5827628 167.924399,11.6556388 168.06701,11.7516718 C168.381504,11.9634891 168.612269,12.2897286 168.702125,12.6714765 Z" id="Fill-24" fill="#1E1E1E"></path>
                            <path d="M175.849,91.6114272 L204.711311,59.480581 L171.594482,33.0643749 L142.731832,65.1945401 L175.849,91.6114272 Z M172.37425,29.772012 L207.886883,58.0993414 C208.216353,58.3622401 208.422271,58.7490961 208.457329,59.1693253 C208.492386,59.5895545 208.352157,60.0050161 208.071018,60.3186555 L177.160413,94.729773 C176.618898,95.3321923 175.706389,95.3992792 175.069232,94.9037901 L139.556259,66.5754391 C139.22713,66.312881 139.020871,65.9260249 138.985814,65.5054552 C138.950756,65.0855665 139.090985,64.6701049 139.372124,64.3564655 L170.28307,29.9463696 C170.796675,29.3745991 171.647238,29.2768635 172.273844,29.6987954 C172.30822,29.7219523 172.341235,29.7464713 172.37425,29.772012 Z" id="Fill-26" fill="#1E1E1E"></path>
                            <path d="M207.820481,58.1355501 L222.45998,54.6750325 L216.125323,38.9330021 L204.406826,42.1884101 L207.820481,58.1355501 Z M202.442791,39.9066203 L216.569493,35.9822109 C217.237292,35.7966958 217.937805,36.1427288 218.196651,36.7859801 L225.577389,55.1275879 C225.88864,55.9010645 225.438538,56.7702928 224.627495,56.9620091 L207.093435,61.1067493 C206.350776,61.2823006 205.608959,60.8129259 205.449146,60.0663477 L201.475767,41.504409 C201.324922,40.7997258 201.748765,40.0994214 202.442791,39.9066203 Z" id="Stroke-28" fill="#1E1E1E" fill-rule="nonzero"></path>
                            <polygon id="Fill-30" fill="#FFFFFF" points="174.78806 3.01352685 181.977855 20.6580446 173.862957 30.3171862 167.890635 13.6302733"></polygon>
                            <path d="M169.279396,12.9843686 L172.773119,27.5153172 L179.185864,21.6676776 L173.800409,4.91728238 L169.279396,12.9843686 Z M166.643399,12.1176396 L172.952679,0.859651963 C173.534134,-0.177868847 175.072157,-0.0236166476 175.436221,1.10873261 L182.04604,21.6672707 C182.209346,22.1752022 182.061221,22.7317635 181.667076,23.0911749 L172.905152,31.0809782 C172.139737,31.7789423 170.90661,31.4002293 170.664392,30.392805 L166.507218,13.1024513 C166.426982,12.7687383 166.475618,12.41702 166.643399,12.1176396 Z" id="Stroke-32" fill="#1E1E1E" fill-rule="nonzero"></path>
                            <path d="M140.223061,63.2765718 C140.141375,63.3991671 140.029055,63.4877081 139.906185,63.5421948 L139.576375,62.1289443 C139.729537,62.1190686 139.886104,62.1599337 140.022248,62.2515395 C140.36261,62.4797029 140.451104,62.939435 140.223061,63.2765718" id="Fill-34" fill="#1E1E1E"></path>
                            <path d="M141.404048,63.6885939 L141.111337,64.0121091 C141.124951,63.9783954 141.145373,63.9440007 141.165795,63.9133519 C141.230463,63.818 141.31215,63.7430807 141.404048,63.6885939" id="Fill-36" fill="#1E1E1E"></path>
                            <path d="M140.399233,59.349336 C140.738233,59.5774993 140.828088,60.0375719 140.600046,60.3767521 C140.371663,60.7155916 139.912175,60.8054948 139.573175,60.5769909 C139.234175,60.3491681 139.14432,59.8890955 139.372362,59.5499154 C139.600745,59.2110758 140.060573,59.1211726 140.399233,59.349336" id="Fill-38" fill="#1E1E1E"></path>
                            <path d="M142.56873,60.8106029 C142.90773,61.0387663 142.997586,61.4988389 142.769203,61.8376785 C142.541161,62.1768586 142.081333,62.2664212 141.742673,62.0382579 C141.403673,61.8104351 141.313818,61.3503625 141.54186,61.0111823 C141.770242,60.6720022 142.230071,60.5820991 142.56873,60.8106029" id="Fill-40" fill="#1E1E1E"></path>
                            <path d="M138.807124,56.0127707 C138.667576,56.2205015 138.449744,56.3328805 138.218298,56.3362859 L137.888148,54.9267813 C138.112786,54.8242781 138.385076,54.8382403 138.606311,54.9877384 C138.943268,55.2159017 139.035166,55.6756338 138.807124,56.0127707" id="Fill-42" fill="#1E1E1E"></path>
                            <path d="M140.774821,56.4480859 C141.113821,56.6762492 141.203677,57.1363219 140.975635,57.475502 C140.747252,57.8146821 140.287424,57.9042447 139.948764,57.6760814 C139.610105,57.4479181 139.519909,56.988186 139.747951,56.6490059 C139.976333,56.3098257 140.436162,56.2199226 140.774821,56.4480859" id="Fill-44" fill="#1E1E1E"></path>
                            <path d="M142.944319,57.9093529 C143.283319,58.1375162 143.373175,58.5975889 143.144792,58.936769 C142.91675,59.2756086 142.457262,59.3651712 142.118262,59.1370078 C141.779602,58.9091851 141.689407,58.4491124 141.917449,58.1099323 C142.145831,57.7710927 142.60566,57.6811895 142.944319,57.9093529" id="Fill-46" fill="#1E1E1E"></path>
                            <path d="M145.212828,59.4524522 L144.22578,60.5489983 C143.939877,60.3106187 143.871804,59.8883463 144.085892,59.571642 C144.313934,59.2310997 144.773762,59.1425587 145.114123,59.370722 C145.151223,59.39456 145.181855,59.4214628 145.212828,59.4524522" id="Fill-48" fill="#1E1E1E"></path>
                            <path d="M137.085031,51.5075665 L136.894088,50.690265 C137.12213,50.8979958 137.200754,51.2249164 137.085031,51.5075665" id="Fill-50" fill="#1E1E1E"></path>
                            <path d="M138.980946,52.0858754 C139.319946,52.3143793 139.409802,52.7741113 139.18176,53.1132915 C138.953717,53.4524716 138.493889,53.5420342 138.154889,53.3135303 C137.81623,53.0857075 137.726374,52.6256349 137.954416,52.2864548 C138.182458,51.9476152 138.642287,51.857712 138.980946,52.0858754" id="Fill-52" fill="#1E1E1E"></path>
                            <path d="M141.150444,53.5471423 C141.489444,53.7753057 141.5793,54.2353783 141.351258,54.5742179 C141.122875,54.913398 140.663387,55.0029606 140.324387,54.7747973 C139.985727,54.5469745 139.895532,54.0869019 140.123914,53.7477218 C140.351956,53.4088822 140.811785,53.318979 141.150444,53.5471423" id="Fill-54" fill="#1E1E1E"></path>
                            <path d="M143.319908,55.0081028 C143.658908,55.2366067 143.748764,55.6963388 143.520721,56.0355189 C143.292339,56.374699 142.832851,56.4642617 142.493851,56.2357578 C142.155191,56.007935 142.064995,55.5478624 142.293378,55.2086822 C142.52142,54.8698427 142.981248,54.7799395 143.319908,55.0081028" id="Fill-56" fill="#1E1E1E"></path>
                            <path d="M145.489372,56.4693698 C145.828372,56.6975331 145.918227,57.1576058 145.690185,57.4964454 C145.461803,57.8356255 145.002315,57.9251881 144.663315,57.6970248 C144.324315,57.4688614 144.234459,57.0091293 144.462842,56.6699492 C144.690884,56.3311096 145.150712,56.2408659 145.489372,56.4693698" id="Fill-58" fill="#1E1E1E"></path>
                            <path d="M136.502707,49.0216758 C136.819583,49.1510819 137.190577,49.0451733 137.387987,48.7526474 C137.616029,48.4121051 137.527535,47.9520325 137.187173,47.7238692 C136.880508,47.5164789 136.46867,47.5706251 136.227014,47.8396535 L136.502707,49.0216758 Z" id="Fill-60" fill="#1E1E1E"></path>
                            <path d="M139.356569,49.1849659 C139.695569,49.4131292 139.785425,49.8732018 139.557383,50.2120414 C139.32934,50.5512215 138.869512,50.6407842 138.530512,50.4126208 C138.191852,50.184798 138.101657,49.7243849 138.330039,49.3855453 C138.558081,49.0463652 139.01791,48.956462 139.356569,49.1849659" id="Fill-62" fill="#1E1E1E"></path>
                            <path d="M141.526033,50.6458923 C141.865033,50.8740556 141.954889,51.3341283 141.726846,51.6733084 C141.498804,52.012148 141.038976,52.1020511 140.699976,51.8735473 C140.360976,51.6457245 140.271461,51.1856518 140.499503,50.8464717 C140.727545,50.5076321 141.187373,50.417729 141.526033,50.6458923" id="Fill-64" fill="#1E1E1E"></path>
                            <path d="M143.695497,52.1071593 C144.034497,52.3353226 144.124352,52.7953952 143.89631,53.1342348 C143.667928,53.4734149 143.208099,53.5629776 142.86944,53.3348142 C142.53044,53.1069914 142.440584,52.6465783 142.668967,52.3077387 C142.897009,51.9685586 143.356837,51.8786554 143.695497,52.1071593" id="Fill-66" fill="#1E1E1E"></path>
                            <path d="M145.864961,53.5681198 C146.203961,53.7962831 146.293816,54.2563557 146.065774,54.5955358 C145.837392,54.9343754 145.377904,55.0242786 145.038904,54.7957747 C144.699904,54.5679519 144.610048,54.1078793 144.83809,53.7686992 C145.066473,53.4298596 145.526301,53.3399564 145.864961,53.5681198" id="Fill-68" fill="#1E1E1E"></path>
                            <path d="M148.034425,55.0293867 C148.373425,55.2575501 148.46328,55.7176227 148.235238,56.0564623 C148.006855,56.3956424 147.547027,56.485205 147.208367,56.2570417 C146.869367,56.0288784 146.779512,55.5691463 147.007895,55.2299661 C147.235937,54.8911266 147.695765,54.8008828 148.034425,55.0293867" id="Fill-70" fill="#1E1E1E"></path>
                            <path d="M137.762112,45.8510228 C137.578317,46.1234566 137.241699,46.2358356 136.941841,46.1472946 L137.833588,45.1563165 C137.922422,45.377669 137.905064,45.6364811 137.762112,45.8510228" id="Fill-72" fill="#1E1E1E"></path>
                            <path d="M139.732464,46.2836818 C140.071124,46.5118451 140.16098,46.9719177 139.932937,47.3110979 C139.704555,47.6499374 139.245067,47.7395001 138.906407,47.5113367 C138.567407,47.2835139 138.477211,46.8234413 138.705594,46.4842612 C138.933636,46.1454216 139.393464,46.0551779 139.732464,46.2836818" id="Fill-74" fill="#1E1E1E"></path>
                            <path d="M141.901962,47.7446422 C142.240622,47.9728056 142.330477,48.4328782 142.102435,48.7720583 C141.874393,49.1112385 141.414565,49.2008011 141.075565,48.9722972 C140.736905,48.7444744 140.646709,48.2847423 140.875092,47.9455622 C141.103134,47.6063821 141.562962,47.5164789 141.901962,47.7446422" id="Fill-76" fill="#1E1E1E"></path>
                            <path d="M144.071086,49.2059092 C144.410086,49.4340726 144.499941,49.8941452 144.271899,50.2333253 C144.043517,50.5721649 143.584029,50.6617275 143.245029,50.4335642 C142.906369,50.2057414 142.816173,49.7456687 143.044556,49.4068292 C143.272598,49.067649 143.732426,48.9774053 144.071086,49.2059092" id="Fill-78" fill="#1E1E1E"></path>
                            <path d="M146.24089,50.6668356 C146.57955,50.8953395 146.669405,51.3550716 146.441363,51.6942517 C146.21298,52.0334319 145.753492,52.1229945 145.414492,51.8944906 C145.075833,51.6666678 144.985637,51.2065952 145.213679,50.8677556 C145.442062,50.5285755 145.90189,50.4386723 146.24089,50.6668356" id="Fill-80" fill="#1E1E1E"></path>
                            <path d="M148.410048,52.1281367 C148.749048,52.3563 148.838903,52.8163726 148.61052,53.1555528 C148.382478,53.4943923 147.92299,53.583955 147.58399,53.3557916 C147.24499,53.1279688 147.155135,52.6678962 147.383177,52.3287161 C147.61156,51.9898765 148.071388,51.8996328 148.410048,52.1281367" id="Fill-82" fill="#1E1E1E"></path>
                            <path d="M139.518411,43.2766933 L139.521815,43.2766933 C139.715821,43.2286769 139.930248,43.2630716 140.107236,43.3822614 C140.447598,43.6100842 140.536092,44.0701569 140.30805,44.4106992 C140.080008,44.7474955 139.62052,44.8397824 139.280158,44.6116191 C139.038502,44.4478183 138.926182,44.1651682 138.963622,43.8961398 L138.963622,43.8930749 L139.518411,43.2766933 Z" id="Fill-84" fill="#1E1E1E"></path>
                            <path d="M142.277551,44.8436987 C142.616211,45.071862 142.706066,45.5319346 142.478024,45.8711148 C142.249982,46.2099544 141.790154,46.299517 141.451154,46.0713536 C141.112494,45.8435308 141.022298,45.3831177 141.250681,45.0442781 C141.478723,44.7054385 141.938551,44.6151948 142.277551,44.8436987" id="Fill-86" fill="#1E1E1E"></path>
                            <path d="M144.446675,46.3046592 C144.785675,46.5328225 144.87553,46.9928951 144.647488,47.3320753 C144.419446,47.6709148 143.959617,47.760818 143.620617,47.5323141 C143.281617,47.3044913 143.192102,46.8444187 143.420145,46.5055791 C143.648187,46.166399 144.108015,46.0764958 144.446675,46.3046592" id="Fill-88" fill="#1E1E1E"></path>
                            <path d="M146.616173,47.7659261 C146.955173,47.9940895 147.045028,48.4541621 146.816986,48.7933422 C146.588944,49.1321818 146.128775,49.2217444 145.790115,48.9935811 C145.451456,48.7657583 145.36126,48.3056857 145.589302,47.9665055 C145.817685,47.627666 146.277513,47.5374223 146.616173,47.7659261" id="Fill-90" fill="#1E1E1E"></path>
                            <path d="M148.785636,49.2268526 C149.124636,49.4553564 149.214492,49.9150885 148.986109,50.2542687 C148.758067,50.5931082 148.298579,50.6830114 147.959579,50.4545075 C147.620579,50.2266847 147.530724,49.7666121 147.758766,49.4277725 C147.987148,49.0885924 148.446977,48.9986892 148.785636,49.2268526" id="Fill-92" fill="#1E1E1E"></path>
                            <path d="M150.9551,50.6881195 C151.2941,50.9162829 151.383956,51.3763555 151.155914,51.7155356 C150.927531,52.0543752 150.467703,52.1439378 150.129043,51.9157745 C149.790043,51.6879517 149.700188,51.2278791 149.92857,50.8886989 C150.156612,50.5498594 150.616441,50.4596157 150.9551,50.6881195" id="Fill-94" fill="#1E1E1E"></path>
                            <path d="M142.65314,41.9424486 C142.9918,42.1709525 143.081655,42.6306846 142.853613,42.9698647 C142.625571,43.3087043 142.165742,43.3986075 141.826742,43.1701036 C141.488083,42.9422808 141.397887,42.4822082 141.62627,42.143028 C141.854312,41.8041885 142.31414,41.7142853 142.65314,41.9424486" id="Fill-96" fill="#1E1E1E"></path>
                            <path d="M144.822264,43.4037156 C145.161264,43.6318789 145.251119,44.0919516 145.023077,44.4307911 C144.795035,44.7699713 144.335206,44.8595339 143.996206,44.6313706 C143.657547,44.4032072 143.567351,43.9434751 143.795733,43.604295 C144.023776,43.2651149 144.483604,43.1752117 144.822264,43.4037156" id="Fill-98" fill="#1E1E1E"></path>
                            <path d="M146.991761,44.8646761 C147.330761,45.0928394 147.420617,45.5529121 147.192575,45.8920922 C146.964192,46.2309318 146.504704,46.3208349 146.165704,46.092331 C145.827045,45.8645083 145.736849,45.4044356 145.965231,45.0652555 C146.193273,44.7264159 146.653102,44.6365127 146.991761,44.8646761" id="Fill-100" fill="#1E1E1E"></path>
                            <path d="M149.161225,46.3259431 C149.500225,46.5541064 149.590081,47.014179 149.362039,47.3530186 C149.133656,47.6921987 148.674168,47.7817614 148.335168,47.553598 C147.996508,47.3254347 147.906313,46.8657026 148.134695,46.5265225 C148.362737,46.1873423 148.822566,46.0974392 149.161225,46.3259431" id="Fill-102" fill="#1E1E1E"></path>
                            <path d="M151.330689,47.7868695 C151.669689,48.0153734 151.759545,48.4751055 151.531502,48.8142856 C151.30312,49.1531252 150.843632,49.2430283 150.504632,49.0145244 C150.165632,48.7867017 150.075777,48.326629 150.304159,47.9874489 C150.532201,47.6486093 150.991689,47.5587062 151.330689,47.7868695" id="Fill-104" fill="#1E1E1E"></path>
                            <path d="M153.500153,49.2481365 C153.839153,49.4762998 153.929008,49.9363724 153.700966,50.275212 C153.472584,50.6143921 153.012755,50.7039548 152.674096,50.4757914 C152.335096,50.2476281 152.24524,49.787896 152.473623,49.4487159 C152.701665,49.1095357 153.161153,49.0196326 153.500153,49.2481365" id="Fill-106" fill="#1E1E1E"></path>
                            <path d="M143.228487,40.0687849 C143.003848,40.4055813 142.551168,40.4944628 142.21421,40.2761752 L143.191047,39.1901858 C143.388457,39.4353763 143.415686,39.7926051 143.228487,40.0687849" id="Fill-108" fill="#1E1E1E"></path>
                            <path d="M145.198193,40.5024655 C145.536852,40.7306289 145.626708,41.1907015 145.398666,41.5298816 C145.170623,41.8687212 144.710795,41.9586244 144.371795,41.7301205 C144.033136,41.5022977 143.94294,41.0422251 144.171322,40.703045 C144.399364,40.3642054 144.859193,40.2739617 145.198193,40.5024655" id="Fill-110" fill="#1E1E1E"></path>
                            <path d="M147.367691,41.963392 C147.70635,42.1918959 147.796206,42.6516279 147.568164,42.9908081 C147.340121,43.3299882 146.880293,43.4195508 146.541293,43.1913875 C146.202293,42.9632241 146.112438,42.5031515 146.34082,42.1643119 C146.568862,41.8251318 147.028691,41.7352286 147.367691,41.963392" id="Fill-112" fill="#1E1E1E"></path>
                            <path d="M149.536814,43.4246589 C149.875814,43.6528223 149.96567,44.1128949 149.737627,44.452075 C149.509245,44.7909146 149.049417,44.8804772 148.710757,44.6523139 C148.371757,44.4244911 148.281902,43.9644185 148.510284,43.6252384 C148.738326,43.2863988 149.198155,43.1964956 149.536814,43.4246589" id="Fill-114" fill="#1E1E1E"></path>
                            <path d="M151.706278,44.8856194 C152.045278,45.1141233 152.135133,45.5738554 151.906751,45.9130355 C151.678709,46.2522156 151.21888,46.3417783 150.880221,46.1136149 C150.541221,45.8854516 150.451365,45.425379 150.679408,45.0865394 C150.90779,44.7473593 151.367618,44.6574561 151.706278,44.8856194" id="Fill-116" fill="#1E1E1E"></path>
                            <path d="M153.875776,46.3468864 C154.214776,46.5750497 154.304631,47.0351224 154.076589,47.3743025 C153.848207,47.7131421 153.388378,47.8030452 153.049719,47.5745414 C152.710719,47.3467186 152.620863,46.8866459 152.849246,46.5474658 C153.077288,46.2086262 153.537116,46.1183825 153.875776,46.3468864" id="Fill-118" fill="#1E1E1E"></path>
                            <path d="M155.77067,47.696762 L154.926914,48.6366587 C154.861905,48.4289279 154.889134,48.2007646 155.018471,48.0100609 C155.188652,47.7546542 155.48817,47.6422752 155.77067,47.696762" id="Fill-120" fill="#1E1E1E"></path>
                            <path d="M145.573816,37.6011814 C145.912475,37.8293448 146.002331,38.2894174 145.774289,38.6285975 C145.545906,38.9677777 145.086418,39.0573403 144.747418,38.8288364 C144.408758,38.6010136 144.318563,38.140941 144.546945,37.8021014 C144.774987,37.4629213 145.234816,37.3730181 145.573816,37.6011814" id="Fill-122" fill="#1E1E1E"></path>
                            <path d="M147.74328,39.0624825 C148.081939,39.2906458 148.171795,39.7507184 147.943752,40.0898986 C147.71571,40.4287381 147.255882,40.5183008 146.916882,40.2901374 C146.578222,40.0623146 146.488027,39.602242 146.716409,39.2630619 C146.944451,38.9242223 147.40428,38.8339786 147.74328,39.0624825" id="Fill-124" fill="#1E1E1E"></path>
                            <path d="M149.912403,40.5234089 C150.251403,40.7515722 150.341258,41.2116449 150.113216,41.550825 C149.884834,41.8900051 149.425346,41.9795677 149.086346,41.7510639 C148.747686,41.5232411 148.65749,41.0631684 148.885873,40.7243288 C149.113915,40.3851487 149.573743,40.2952456 149.912403,40.5234089" id="Fill-126" fill="#1E1E1E"></path>
                            <path d="M152.081867,41.9846759 C152.420867,42.2128392 152.510722,42.6729118 152.28268,43.012092 C152.054298,43.3509315 151.59481,43.4404942 151.25581,43.2123308 C150.91715,42.984508 150.826954,42.5244354 151.054996,42.1852553 C151.283379,41.8464157 151.743207,41.756172 152.081867,41.9846759" id="Fill-128" fill="#1E1E1E"></path>
                            <path d="M154.251365,43.4456364 C154.590365,43.6737997 154.68022,44.1338723 154.451838,44.4730524 C154.223795,44.8122326 153.764308,44.9017952 153.425308,44.6732913 C153.086308,44.4454685 152.996452,43.9853959 153.224494,43.6465563 C153.452877,43.3073762 153.912705,43.217473 154.251365,43.4456364" id="Fill-130" fill="#1E1E1E"></path>
                            <path d="M156.420829,44.9069033 C156.759829,45.1350667 156.849684,45.5951393 156.621642,45.9343194 C156.393259,46.273159 155.933431,46.3627216 155.594771,46.1345583 C155.255771,45.906395 155.165916,45.4466629 155.393958,45.1074827 C155.622341,44.7686432 156.082169,44.6783994 156.420829,44.9069033" id="Fill-132" fill="#1E1E1E"></path>
                            <path d="M148.118528,36.1611984 C148.457528,36.3893617 148.547383,36.8494343 148.319341,37.1886145 C148.091299,37.527454 147.631471,37.6173572 147.292471,37.3888533 C146.953811,37.1610305 146.863615,36.7009579 147.091998,36.3617778 C147.32004,36.0229382 147.779868,35.933035 148.118528,36.1611984" id="Fill-134" fill="#1E1E1E"></path>
                            <path d="M150.287992,37.6224653 C150.626992,37.8506287 150.716847,38.3107013 150.488805,38.6495409 C150.260763,38.988721 149.800935,39.0782836 149.461935,38.8501203 C149.122935,38.621957 149.03342,38.1622249 149.261462,37.8230447 C149.489504,37.4842052 149.949332,37.3939615 150.287992,37.6224653" id="Fill-136" fill="#1E1E1E"></path>
                            <path d="M152.45749,39.0834258 C152.79649,39.3115892 152.886345,39.7716618 152.658303,40.1108419 C152.430261,40.4496815 151.970092,40.5392441 151.631433,40.3110808 C151.292433,40.083258 151.202577,39.6231853 151.43096,39.2840052 C151.659002,38.9451656 152.11883,38.8552625 152.45749,39.0834258" id="Fill-138" fill="#1E1E1E"></path>
                            <path d="M154.626954,40.5446928 C154.965954,40.7728561 155.055809,41.2329288 154.827767,41.5717683 C154.599384,41.9109485 154.139896,42.0005111 153.800896,41.7723478 C153.461896,41.544525 153.372041,41.0841118 153.600423,40.7452722 C153.828466,40.4064326 154.288294,40.3161889 154.626954,40.5446928" id="Fill-140" fill="#1E1E1E"></path>
                            <path d="M156.796417,42.0056192 C157.135417,42.2337826 157.225273,42.6938552 156.997231,43.0330353 C156.768848,43.3718749 156.30902,43.4617781 155.97036,43.2332742 C155.63136,43.0054514 155.541505,42.5453788 155.769887,42.2065392 C155.99793,41.8673591 156.457758,41.7774559 156.796417,42.0056192" id="Fill-142" fill="#1E1E1E"></path>
                            <path d="M159.245761,43.824728 L159.245761,43.8213226 C159.195047,43.6817003 159.099405,43.5556996 158.966664,43.4671586 C158.626303,43.2389953 158.166815,43.3275363 157.938773,43.6680786 C157.71073,44.0052154 157.799224,44.4649475 158.139586,44.6934514 C158.211062,44.7441922 158.292748,44.778587 158.374435,44.7956141 L159.245761,43.824728 Z" id="Fill-144" fill="#1E1E1E"></path>
                            <path d="M148.694556,34.2862406 C148.466514,34.6267829 148.007026,34.7153239 147.666664,34.4871606 C147.612206,34.4497009 147.567959,34.4088358 147.527116,34.3645653 L148.507357,33.2717651 C148.837508,33.5029933 148.919194,33.9528497 148.694556,34.2862406" id="Fill-146" fill="#1E1E1E"></path>
                            <path d="M150.663615,34.7212153 C151.002615,34.9493786 151.09247,35.4094513 150.864428,35.7486314 C150.636386,36.087471 150.176558,36.1770336 149.837558,35.9488702 C149.498898,35.7210474 149.408702,35.2609748 149.637085,34.9217947 C149.865127,34.5829551 150.324955,34.4930519 150.663615,34.7212153" id="Fill-148" fill="#1E1E1E"></path>
                            <path d="M152.833079,36.1821758 C153.172079,36.4106796 153.261934,36.8704117 153.033892,37.2095919 C152.805509,37.548772 152.346021,37.6383346 152.007021,37.4098307 C151.668362,37.1820079 151.578166,36.7222758 151.806548,36.3830957 C152.034591,36.0439156 152.494419,35.9540124 152.833079,36.1821758" id="Fill-150" fill="#1E1E1E"></path>
                            <path d="M155.002542,37.6434427 C155.341542,37.8719466 155.431398,38.3316787 155.203356,38.6708588 C154.974973,39.0096984 154.515485,39.0996016 154.176485,38.8710977 C153.837826,38.6432749 153.74763,38.1832023 153.976012,37.8440221 C154.204055,37.5051826 154.663883,37.4152794 155.002542,37.6434427" id="Fill-152" fill="#1E1E1E"></path>
                            <path d="M157.172006,39.1047097 C157.511006,39.332873 157.600862,39.7926051 157.37282,40.1317853 C157.144437,40.4709654 156.684949,40.560528 156.345949,40.3323647 C156.006949,40.1042013 155.917094,39.6441287 156.145476,39.3052891 C156.373518,38.966109 156.833006,38.8762058 157.172006,39.1047097" id="Fill-154" fill="#1E1E1E"></path>
                            <path d="M159.34147,40.5656361 C159.68047,40.7937995 159.770326,41.2538721 159.542283,41.5930522 C159.313901,41.9318918 158.854073,42.0214544 158.515413,41.7932911 C158.176413,41.5654683 158.086558,41.1053957 158.3146,40.7662156 C158.542982,40.427376 159.00247,40.3374728 159.34147,40.5656361" id="Fill-156" fill="#1E1E1E"></path>
                            <path d="M151.03951,31.8199652 C151.37817,32.0484691 151.468025,32.5082012 151.239983,32.8473813 C151.011941,33.1865614 150.552112,33.2761241 150.213112,33.0476202 C149.874453,32.8197974 149.784257,32.3597248 150.012639,32.0208852 C150.240682,31.6817051 150.70051,31.5918019 151.03951,31.8199652" id="Fill-158" fill="#1E1E1E"></path>
                            <path d="M153.209008,33.2812322 C153.547667,33.5093955 153.637523,33.9694682 153.409481,34.3086483 C153.181439,34.6474879 152.72161,34.7370505 152.38261,34.5088872 C152.043951,34.2807238 151.953755,33.8209917 152.182137,33.4818116 C152.41018,33.142972 152.870008,33.0527283 153.209008,33.2812322" id="Fill-160" fill="#1E1E1E"></path>
                            <path d="M155.378131,34.7421586 C155.717131,34.970322 155.806987,35.4303946 155.578945,35.7695747 C155.350562,36.1087548 154.891074,36.1979769 154.552074,35.9698136 C154.213414,35.7419908 154.123219,35.2819182 154.351261,34.9430786 C154.579643,34.6038985 155.039472,34.5139953 155.378131,34.7421586" id="Fill-162" fill="#1E1E1E"></path>
                            <path d="M157.547595,36.2034597 C157.886595,36.431623 157.976451,36.8916956 157.748068,37.2305352 C157.520026,37.5697153 157.060538,37.659278 156.721538,37.4311146 C156.382878,37.2029513 156.292683,36.7432192 156.520725,36.4040391 C156.749107,36.0651995 157.208936,35.9749558 157.547595,36.2034597" id="Fill-164" fill="#1E1E1E"></path>
                            <path d="M159.717093,37.6643861 C160.056093,37.89289 160.145948,38.3526221 159.917906,38.6918022 C159.689524,39.0309823 159.230036,39.1205449 158.891036,38.892041 C158.552036,38.6642183 158.46218,38.2041456 158.690563,37.865306 C158.918605,37.5261259 159.378433,37.4362228 159.717093,37.6643861" id="Fill-166" fill="#1E1E1E"></path>
                            <path d="M161.886557,39.1256531 C162.225557,39.3538164 162.315412,39.813889 162.08737,40.1530692 C161.858988,40.4919087 161.399159,40.5814714 161.0605,40.353308 C160.7215,40.1251447 160.631644,39.6654126 160.859686,39.3262325 C161.088069,38.9873929 161.547557,38.8971492 161.886557,39.1256531" id="Fill-168" fill="#1E1E1E"></path>
                            <path d="M151.720573,29.6959008 C151.703215,29.7844418 151.669519,29.8695774 151.614721,29.9475615 C151.51942,30.0871839 151.387019,30.1828763 151.240664,30.2302116 L151.720573,29.6959008 Z" id="Fill-170" fill="#1E1E1E"></path>
                            <path d="M153.584597,30.3799821 C153.923256,30.6081455 154.013112,31.0682181 153.78507,31.4073982 C153.557027,31.7465784 153.097199,31.8358004 152.758199,31.6076371 C152.419539,31.3798143 152.329344,30.9197417 152.557726,30.5809021 C152.785768,30.241722 153.245597,30.1518188 153.584597,30.3799821" id="Fill-172" fill="#1E1E1E"></path>
                            <path d="M155.75372,31.8409086 C156.09272,32.0694125 156.182576,32.5291446 155.954533,32.8683247 C155.726151,33.2075048 155.266663,33.2970674 154.927663,33.0689041 C154.589003,32.8407407 154.498808,32.3810087 154.72719,32.0418285 C154.955232,31.702989 155.415061,31.6127452 155.75372,31.8409086" id="Fill-174" fill="#1E1E1E"></path>
                            <path d="M157.923218,33.3021756 C158.262218,33.5303389 158.352073,33.9904115 158.124031,34.3295916 C157.895649,34.6687718 157.436161,34.7583344 157.097161,34.5298305 C156.758501,34.3020077 156.668305,33.8419351 156.896348,33.502755 C157.12473,33.1639154 157.584558,33.0740122 157.923218,33.3021756" id="Fill-176" fill="#1E1E1E"></path>
                            <path d="M160.092682,34.7634425 C160.431682,34.9916059 160.521537,35.4516785 160.293155,35.7905181 C160.065113,36.1296982 159.605625,36.2192608 159.266625,35.9910975 C158.927625,35.7629342 158.837769,35.3032021 159.065811,34.9640219 C159.294194,34.6248418 159.754022,34.5349386 160.092682,34.7634425" id="Fill-178" fill="#1E1E1E"></path>
                            <path d="M162.262146,36.224403 C162.601146,36.4525663 162.691001,36.912639 162.462959,37.2518191 C162.234577,37.5909992 161.774748,37.6802213 161.436089,37.452058 C161.097089,37.2242352 161.007233,36.7641625 161.235275,36.425323 C161.463658,36.0861428 161.923486,35.9962397 162.262146,36.224403" id="Fill-180" fill="#1E1E1E"></path>
                            <path d="M164.609789,37.85526 C164.562138,37.790557 164.504277,37.7326648 164.432801,37.6849889 C164.092439,37.4568256 163.633292,37.548772 163.404909,37.8859088 C163.176867,38.2264511 163.265702,38.6858427 163.606063,38.914006 C163.619677,38.9211574 163.629548,38.9310331 163.643162,38.9347791 L164.609789,37.85526 Z" id="Fill-182" fill="#1E1E1E"></path>
                            <path d="M154.160931,28.507306 C153.932889,28.8444429 153.47306,28.9363893 153.132699,28.708226 C153.017316,28.6295607 152.932226,28.5243331 152.877428,28.4051433 L153.786193,27.3933922 C153.847798,27.4141653 153.90566,27.4414087 153.959777,27.4785278 C154.300139,27.7070316 154.388973,28.1667637 154.160931,28.507306" id="Fill-184" fill="#1E1E1E"></path>
                            <path d="M156.129309,28.9399991 C156.468309,29.1681624 156.558164,29.628235 156.330122,29.9674152 C156.10208,30.3062547 155.642252,30.3958174 155.303252,30.167654 C154.964252,29.9398312 154.874737,29.4797586 155.102779,29.1405785 C155.330821,28.8017389 155.790649,28.7118357 156.129309,28.9399991" id="Fill-186" fill="#1E1E1E"></path>
                            <path d="M158.298807,30.401266 C158.637807,30.6294294 158.727662,31.089502 158.49962,31.4283416 C158.271238,31.7675217 157.811409,31.8570843 157.47275,31.628921 C157.13375,31.4007577 157.043894,30.940685 157.272277,30.6018455 C157.500319,30.2626653 157.960147,30.1727622 158.298807,30.401266" id="Fill-188" fill="#1E1E1E"></path>
                            <path d="M160.468271,31.8621925 C160.807271,32.0903558 160.897126,32.5504284 160.669084,32.8896086 C160.440702,33.2284481 159.981214,33.3183513 159.642214,33.0898474 C159.303214,32.8620246 159.213358,32.401952 159.4414,32.0627719 C159.669783,31.7239323 160.129611,31.6340291 160.468271,31.8621925" id="Fill-190" fill="#1E1E1E"></path>
                            <path d="M162.637735,33.3231189 C162.976735,33.5516228 163.06659,34.0113549 162.838548,34.350535 C162.610165,34.6897151 162.150337,34.7792777 161.811677,34.5511144 C161.472677,34.3229511 161.382822,33.863219 161.611205,33.5240389 C161.839247,33.1851993 162.299075,33.0949556 162.637735,33.3231189" id="Fill-192" fill="#1E1E1E"></path>
                            <path d="M164.807198,34.7844199 C165.146198,35.0125833 165.236054,35.4726559 165.008012,35.811836 C164.779629,36.1506756 164.319801,36.2402382 163.981141,36.0120749 C163.642141,35.7842521 163.552286,35.3241795 163.780328,34.9849993 C164.008711,34.6461598 164.468198,34.5562566 164.807198,34.7844199" id="Fill-194" fill="#1E1E1E"></path>
                            <path d="M156.504932,26.038715 C156.843932,26.2672188 156.933787,26.7269509 156.705745,27.0661311 C156.477703,27.4053112 156.017875,27.4948738 155.678875,27.2663699 C155.340215,27.0385471 155.250019,26.5784745 155.478402,26.2396349 C155.706444,25.9004548 156.166272,25.8105516 156.504932,26.038715" id="Fill-196" fill="#1E1E1E"></path>
                            <path d="M158.674396,27.4999819 C159.013396,27.7281453 159.103251,28.1882179 158.875209,28.5270575 C158.646827,28.8662376 158.187339,28.9558002 157.848339,28.7276369 C157.509679,28.4998141 157.419483,28.0397415 157.647866,27.7005613 C157.875908,27.3617218 158.335736,27.2718186 158.674396,27.4999819" id="Fill-198" fill="#1E1E1E"></path>
                            <path d="M160.84386,28.961283 C161.18286,29.1894463 161.272715,29.6491784 161.044673,29.9883585 C160.81629,30.3275386 160.356802,30.4171013 160.017802,30.1889379 C159.678802,29.9607746 159.588947,29.500702 159.81733,29.1618624 C160.045372,28.8226822 160.5052,28.7327791 160.84386,28.961283" id="Fill-200" fill="#1E1E1E"></path>
                            <path d="M163.013323,30.4222094 C163.352323,30.6503727 163.442179,31.1104454 163.214137,31.4492849 C162.985754,31.7884651 162.525926,31.8780277 162.187266,31.6498644 C161.848266,31.4220416 161.758411,30.9619689 161.986793,30.6227888 C162.214836,30.2839492 162.674323,30.1940461 163.013323,30.4222094" id="Fill-202" fill="#1E1E1E"></path>
                            <path d="M165.182821,31.8831358 C165.521481,32.1116397 165.611677,32.5713718 165.383635,32.9105519 C165.155252,33.249732 164.695424,33.3392947 164.356764,33.1107908 C164.017764,32.882968 163.927909,32.4228954 164.155951,32.0840558 C164.384333,31.7448757 164.843821,31.6549725 165.182821,31.8831358" id="Fill-204" fill="#1E1E1E"></path>
                            <path d="M167.352285,33.3444028 C167.690945,33.5725661 167.781141,34.0326388 167.552758,34.3714783 C167.324716,34.7106585 166.864888,34.8002211 166.525888,34.5720578 C166.187228,34.344235 166.097373,33.8841623 166.325415,33.5449822 C166.553797,33.2061426 167.013285,33.1162395 167.352285,33.3444028" id="Fill-206" fill="#1E1E1E"></path>
                            <path d="M157.081266,24.1653918 C156.924359,24.3969606 156.659218,24.512745 156.396799,24.488907 L157.189841,23.603497 C157.230685,23.7907953 157.196989,23.9951207 157.081266,24.1653918" id="Fill-208" fill="#1E1E1E"></path>
                            <path d="M159.049985,24.5987319 C159.388985,24.8268952 159.47884,25.2869679 159.250798,25.626148 C159.022756,25.9653281 158.562927,26.0545502 158.223927,25.8263868 C157.885268,25.5985641 157.795072,25.1384914 158.023455,24.7996518 C158.251497,24.4604717 158.711325,24.3705685 159.049985,24.5987319" id="Fill-210" fill="#1E1E1E"></path>
                            <path d="M161.219448,26.0599989 C161.558448,26.2881622 161.648304,26.7482348 161.420262,27.0870744 C161.191879,27.4262545 160.732391,27.5158172 160.393391,27.2876538 C160.054732,27.0594905 159.964536,26.5997584 160.192578,26.2605783 C160.420961,25.9213981 160.880789,25.831495 161.219448,26.0599989" id="Fill-212" fill="#1E1E1E"></path>
                            <path d="M163.388912,27.5209593 C163.727912,27.7491227 163.817768,28.2091953 163.589385,28.5483754 C163.361343,28.887215 162.901855,28.9767776 162.562855,28.7486143 C162.224195,28.5207915 162.134,28.0607189 162.362042,27.7218793 C162.590424,27.3826992 163.050253,27.292796 163.388912,27.5209593" id="Fill-214" fill="#1E1E1E"></path>
                            <path d="M165.55841,28.9822263 C165.89741,29.2103896 165.987266,29.6704623 165.759223,30.0096424 C165.530841,30.348482 165.071353,30.4380446 164.732353,30.2098813 C164.393353,29.9817179 164.303498,29.5219858 164.53188,29.1828057 C164.759922,28.8439661 165.219751,28.7537224 165.55841,28.9822263" id="Fill-216" fill="#1E1E1E"></path>
                            <path d="M167.727874,30.4431527 C168.066874,30.6713161 168.15673,31.1313887 167.928687,31.4705688 C167.700305,31.809749 167.240477,31.898971 166.901817,31.6708077 C166.562817,31.4429849 166.472961,30.9829123 166.701004,30.6440727 C166.929386,30.3048926 167.388874,30.2149894 167.727874,30.4431527" id="Fill-218" fill="#1E1E1E"></path>
                            <path d="M169.929911,31.9330253 L168.945926,33.026166 C168.71482,32.7809756 168.673977,32.3961628 168.871386,32.1032964 C169.099429,31.7665001 169.558576,31.6776186 169.895534,31.9057819 C169.909148,31.9125927 169.9197,31.922809 169.929911,31.9330253" id="Fill-220" fill="#1E1E1E"></path>
                            <path d="M159.014417,21.5704255 L159.01782,21.5704255 C159.160772,21.5704255 159.30032,21.6112906 159.426254,21.6964261 C159.763212,21.9245895 159.85511,22.3843216 159.627067,22.7248639 C159.399025,23.0654062 158.939537,23.1539472 158.599176,22.9254433 C158.411637,22.7997832 158.299317,22.6022686 158.279236,22.3911324 L159.014417,21.5704255 Z" id="Fill-222" fill="#1E1E1E"></path>
                            <path d="M161.595037,23.1587488 C161.934037,23.3869121 162.023893,23.8469848 161.795851,24.1861649 C161.567808,24.5250045 161.10798,24.6145671 160.76898,24.3864038 C160.43032,24.158581 160.340465,23.6985083 160.568507,23.3593282 C160.796549,23.0204886 161.256378,22.9305855 161.595037,23.1587488" id="Fill-224" fill="#1E1E1E"></path>
                            <path d="M163.764535,24.6196752 C164.103535,24.8481791 164.193391,25.3079112 163.965348,25.6470913 C163.737306,25.9862714 163.277478,26.0758341 162.938478,25.8476707 C162.599818,25.6195074 162.509623,25.1594348 162.737665,24.8205952 C162.966047,24.4814151 163.425876,24.3915119 163.764535,24.6196752" id="Fill-226" fill="#1E1E1E"></path>
                            <path d="M165.933999,26.0809422 C166.272999,26.3091055 166.362855,26.7691782 166.134472,27.1083583 C165.90643,27.4471979 165.446942,27.5367605 165.107942,27.3085972 C164.768942,27.0807744 164.679086,26.6207017 164.907129,26.2815216 C165.135511,25.942682 165.595339,25.8527789 165.933999,26.0809422" id="Fill-228" fill="#1E1E1E"></path>
                            <path d="M168.103463,27.5419027 C168.442463,27.7704066 168.532318,28.2301387 168.304276,28.5693188 C168.075894,28.9084989 167.616065,28.9980615 167.277406,28.7698982 C166.938406,28.5417349 166.84855,28.0816622 167.076592,27.7428226 C167.304975,27.4036425 167.764803,27.3137394 168.103463,27.5419027" id="Fill-230" fill="#1E1E1E"></path>
                            <path d="M170.272927,29.0031697 C170.611927,29.231333 170.701782,29.6914056 170.4734,30.0305858 C170.245358,30.3694253 169.785529,30.458988 169.44687,30.2308246 C169.10787,30.0030018 169.018014,29.5429292 169.246056,29.2037491 C169.474439,28.8649095 169.934267,28.7750063 170.272927,29.0031697" id="Fill-232" fill="#1E1E1E"></path>
                            <path d="M161.97066,20.2574988 C162.30966,20.4860026 162.399516,20.9457347 162.171473,21.2849148 C161.943431,21.624095 161.483603,21.7136576 161.144603,21.4854943 C160.805603,21.2573309 160.715748,20.7972583 160.94413,20.4584187 C161.172172,20.1192386 161.632001,20.0293354 161.97066,20.2574988" id="Fill-234" fill="#1E1E1E"></path>
                            <path d="M164.140124,21.7187657 C164.479124,21.9469291 164.56898,22.4070017 164.340937,22.7461818 C164.112555,23.0850214 163.652727,23.174584 163.314067,22.9464207 C162.975067,22.7185979 162.885211,22.2585253 163.113594,21.9193451 C163.341636,21.580165 163.801464,21.4906024 164.140124,21.7187657" id="Fill-236" fill="#1E1E1E"></path>
                            <path d="M166.309588,23.1796922 C166.648588,23.408196 166.738443,23.8679281 166.510061,24.2071082 C166.282019,24.5459478 165.82219,24.635851 165.483531,24.4076877 C165.144531,24.1795243 165.054675,23.7194517 165.282717,23.3806121 C165.5111,23.041432 165.970928,22.9515288 166.309588,23.1796922" id="Fill-238" fill="#1E1E1E"></path>
                            <path d="M168.479052,24.6409591 C168.818052,24.8691225 168.907907,25.3291951 168.679865,25.6683752 C168.451483,26.0072148 167.991654,26.0967774 167.652995,25.8686141 C167.313995,25.6407913 167.224139,25.1807187 167.452522,24.8415385 C167.680564,24.502699 168.140392,24.4127958 168.479052,24.6409591" id="Fill-240" fill="#1E1E1E"></path>
                            <path d="M170.219082,27.4550985 C170.082937,27.451693 169.943048,27.4104874 169.820859,27.3290978 C169.483901,27.1009345 169.395407,26.6408618 169.623449,26.303725 C169.694925,26.195092 169.790226,26.1133618 169.892335,26.0585345 L170.219082,27.4550985 Z" id="Fill-242" fill="#1E1E1E"></path>
                            <path d="M162.547335,18.3828475 C162.346521,18.6828652 161.961913,18.7880928 161.641973,18.6484705 L162.577967,17.6067516 C162.710368,17.8447907 162.707305,18.1448084 162.547335,18.3828475" id="Fill-244" fill="#1E1E1E"></path>
                            <path d="M164.515713,18.8174816 C164.854713,19.045645 164.944568,19.5057176 164.716526,19.8448977 C164.488144,20.1840778 164.028656,20.2736405 163.689656,20.0451366 C163.350996,19.8173138 163.2608,19.3572411 163.489183,19.0184016 C163.717225,18.6792214 164.177053,18.5893183 164.515713,18.8174816" id="Fill-246" fill="#1E1E1E"></path>
                            <path d="M166.685177,20.2787826 C167.024177,20.506946 167.114032,20.9670186 166.88599,21.3058582 C166.657608,21.6450383 166.19812,21.7346009 165.85912,21.5064376 C165.52012,21.2786148 165.430264,20.8185422 165.658647,20.4793621 C165.886689,20.1401819 166.346517,20.0502788 166.685177,20.2787826" id="Fill-248" fill="#1E1E1E"></path>
                            <path d="M168.854641,21.7397091 C169.193641,21.9678724 169.283496,22.427945 169.055114,22.7671252 C168.827071,23.1059647 168.367243,23.1958679 168.028583,22.967364 C167.689583,22.7395412 167.599728,22.2794686 167.82777,21.940629 C168.056153,21.6014489 168.515981,21.5115457 168.854641,21.7397091" id="Fill-250" fill="#1E1E1E"></path>
                            <path d="M164.891302,15.9162316 C165.230302,16.1447354 165.320157,16.6044675 165.092115,16.9436477 C164.864073,17.2828278 164.404245,17.3723904 164.065245,17.1442271 C163.726245,16.9160637 163.636389,16.4563316 163.864772,16.1171515 C164.092814,15.7779714 164.552642,15.6880682 164.891302,15.9162316" id="Fill-252" fill="#1E1E1E"></path>
                            <path d="M167.060766,17.3774985 C167.399766,17.6056619 167.489621,18.0657345 167.261579,18.4049146 C167.033196,18.7437542 166.573708,18.8333168 166.234708,18.6051535 C165.896049,18.3773307 165.805853,17.9172581 166.033895,17.5780779 C166.262278,17.2392384 166.722106,17.1493352 167.060766,17.3774985" id="Fill-254" fill="#1E1E1E"></path>
                            <path d="M168.496683,20.1161396 C168.462646,20.1028585 168.435417,20.0854908 168.404785,20.0653988 C168.064423,19.8372355 167.97627,19.3771629 168.204312,19.0403665 C168.214523,19.0267449 168.224393,19.0131232 168.234604,18.9995015 L168.496683,20.1161396 Z" id="Fill-256" fill="#1E1E1E"></path>
                            <path d="M167.458648,15.6857866 C167.213588,15.866274 166.87663,15.8833011 166.611489,15.7031543 C166.271127,15.4746504 166.182293,15.0149183 166.410335,14.6777814 C166.577112,14.4261207 166.873227,14.3137417 167.148919,14.3610771 L167.458648,15.6857866 Z" id="Fill-258" fill="#1E1E1E"></path>
                        </g>
                    </g>
                </g>
            </g>
        </g>
    </g>
</svg>