<?xml version="1.0" encoding="UTF-8"?>
<svg width="212px" height="61px" viewBox="0 0 212 61" version="1.1" xmlns="http://www.w3.org/2000/svg" xmlns:xlink="http://www.w3.org/1999/xlink">
    <!-- Generator: Sketch 52.5 (67469) - http://www.bohemiancoding.com/sketch -->
    <title>Ball Illustration</title>
    <desc>Created with Sketch.</desc>
    <g id="001-Home-Page" stroke="none" stroke-width="1" fill="none" fill-rule="evenodd">
        <g id="Home-Page" transform="translate(-87.000000, -1500.000000)">
            <g id="Intro" transform="translate(87.000000, 888.000000)">
                <g id="illustrations/single-ball" transform="translate(105.000000, 643.500000) scale(-1, 1) translate(-105.000000, -643.500000) translate(0.000000, 614.000000)">
                    <g id="Group-22" transform="translate(-1.401869, -1.150500)">
                        <path d="M67.3660093,31.9220892 C67.3660093,47.4460467 54.687785,60.0305797 39.0482523,60.0305797 C23.409,60.0305797 10.7304953,47.4460467 10.7304953,31.9220892 C10.7304953,16.3984099 23.409,3.81359858 39.0482523,3.81359858 C54.687785,3.81359858 67.3660093,16.3984099 67.3660093,31.9220892" id="Fill-1" fill="#E4FF00"></path>
                        <path d="M41.2064019,2.77021698 C41.2064019,3.41031132 40.6821028,3.92795283 40.0400467,3.92795283 C39.7148131,3.92795283 39.4232243,3.79687264 39.2129439,3.58814623 C39.0026636,3.37941981 38.8708879,3.09026415 38.8708879,2.77021698 C38.8708879,2.69229245 38.8792991,2.61687264 38.8961215,2.54200943 C39.672757,2.54729717 40.4412617,2.58653774 41.200514,2.65889623 C41.2035981,2.69507547 41.2064019,2.73403774 41.2064019,2.77021698 Z M28.5318224,7.81660943 C28.5318224,8.45642547 28.0083645,8.97434528 27.3654673,8.97434528 C26.719486,8.97434528 26.196028,8.45642547 26.196028,7.81660943 C26.196028,7.1770717 26.719486,6.65748208 27.3654673,6.65748208 C28.0083645,6.65748208 28.5318224,7.1770717 28.5318224,7.81660943 Z M36.9778037,7.81660943 C36.9778037,8.45642547 36.4577103,8.97434528 35.8114486,8.97434528 C35.1685514,8.97434528 34.6450935,8.45642547 34.6450935,7.81660943 C34.6450935,7.1770717 35.1685514,6.65748208 35.8114486,6.65748208 C36.4577103,6.65748208 36.9778037,7.1770717 36.9778037,7.81660943 Z M45.4298131,7.81660943 C45.4298131,8.45642547 44.9063551,8.97434528 44.2634579,8.97434528 C43.6174766,8.97434528 43.0940187,8.45642547 43.0940187,7.81660943 C43.0940187,7.1770717 43.6174766,6.65748208 44.2634579,6.65748208 C44.9063551,6.65748208 45.4298131,7.1770717 45.4298131,7.81660943 Z M53.8788224,7.81660943 C53.8788224,8.45642547 53.3553645,8.97434528 52.7127477,8.97434528 C52.066486,8.97434528 51.5433084,8.45642547 51.5433084,7.81660943 C51.5433084,7.1770717 52.066486,6.65748208 52.7127477,6.65748208 C53.3553645,6.65748208 53.8788224,7.1770717 53.8788224,7.81660943 Z M24.3073178,12.4534528 C24.3073178,13.0932689 23.7838598,13.6128585 23.1409626,13.6128585 C22.4949813,13.6128585 21.9718037,13.0932689 21.9718037,12.4534528 C21.9718037,11.8139151 22.4949813,11.2912642 23.1409626,11.2912642 C23.7838598,11.2912642 24.3073178,11.8139151 24.3073178,12.4534528 Z M32.7562991,12.4534528 C32.7562991,13.0932689 32.2328411,13.6128585 31.5868598,13.6128585 C30.9439626,13.6128585 30.4205047,13.0932689 30.4205047,12.4534528 C30.4205047,11.8139151 30.9439626,11.2912642 31.5868598,11.2912642 C32.2328411,11.2912642 32.7562991,11.8139151 32.7562991,12.4534528 Z M41.2053084,12.4534528 C41.2053084,13.0932689 40.6818505,13.6128585 40.0389533,13.6128585 C39.392972,13.6128585 38.869514,13.0932689 38.869514,12.4534528 C38.869514,11.8139151 39.392972,11.2912642 40.0389533,11.2912642 C40.6818505,11.2912642 41.2053084,11.8139151 41.2053084,12.4534528 Z M49.6543178,12.4534528 C49.6543178,13.0932689 49.1308598,13.6128585 48.4848785,13.6128585 C47.8419813,13.6128585 47.3185234,13.0932689 47.3185234,12.4534528 C47.3185234,11.8139151 47.8419813,11.2912642 48.4848785,11.2912642 C49.1308598,11.2912642 49.6543178,11.8139151 49.6543178,12.4534528 Z M58.1032991,12.4534528 C58.1032991,13.0932689 57.5832056,13.6128585 56.9338598,13.6128585 C56.291243,13.6128585 55.767785,13.0932689 55.767785,12.4534528 C55.767785,11.8139151 56.291243,11.2912642 56.9338598,11.2912642 C57.5832056,11.2912642 58.1032991,11.8139151 58.1032991,12.4534528 Z M20.0828131,17.4976745 C20.0828131,18.1374906 19.5593551,18.6554104 18.9133738,18.6554104 C18.2704766,18.6554104 17.7472991,18.1374906 17.7472991,17.4976745 C17.7472991,16.8611981 18.2704766,16.3385472 18.9133738,16.3385472 C19.5593551,16.3385472 20.0828131,16.8611981 20.0828131,17.4976745 Z M28.5318224,17.4976745 C28.5318224,18.1374906 28.0083645,18.6554104 27.3654673,18.6554104 C26.719486,18.6554104 26.196028,18.1374906 26.196028,17.4976745 C26.196028,16.8611981 26.719486,16.3385472 27.3654673,16.3385472 C28.0083645,16.3385472 28.5318224,16.8611981 28.5318224,17.4976745 Z M36.9778037,17.4976745 C36.9778037,18.1374906 36.4577103,18.6554104 35.8114486,18.6554104 C35.1685514,18.6554104 34.6450935,18.1374906 34.6450935,17.4976745 C34.6450935,16.8611981 35.1685514,16.3385472 35.8114486,16.3385472 C36.4577103,16.3385472 36.9778037,16.8611981 36.9778037,17.4976745 Z M45.4298131,17.4976745 C45.4298131,18.1374906 44.9063551,18.6554104 44.2634579,18.6554104 C43.6174766,18.6554104 43.0940187,18.1374906 43.0940187,17.4976745 C43.0940187,16.8611981 43.6174766,16.3385472 44.2634579,16.3385472 C44.9063551,16.3385472 45.4298131,16.8611981 45.4298131,17.4976745 Z M53.8788224,17.4976745 C53.8788224,18.1374906 53.3553645,18.6554104 52.7127477,18.6554104 C52.066486,18.6554104 51.5433084,18.1374906 51.5433084,17.4976745 C51.5433084,16.8611981 52.066486,16.3385472 52.7127477,16.3385472 C53.3553645,16.3385472 53.8788224,16.8611981 53.8788224,17.4976745 Z M62.3278037,17.4976745 C62.3278037,18.1374906 61.8043458,18.6554104 61.161729,18.6554104 C60.5157477,18.6554104 59.9922897,18.1374906 59.9922897,17.4976745 C59.9922897,16.8611981 60.5157477,16.3385472 61.161729,16.3385472 C61.8043458,16.3385472 62.3278037,16.8611981 62.3278037,17.4976745 Z M15.8583084,22.1347406 C15.8583084,22.7742783 15.3348505,23.2938679 14.6919533,23.2938679 C14.045972,23.2938679 13.522514,22.7742783 13.522514,22.1347406 C13.522514,21.4949245 14.045972,20.9770047 14.6919533,20.9770047 C15.3348505,20.9770047 15.8583084,21.4949245 15.8583084,22.1347406 Z M24.3073178,22.1347406 C24.3073178,22.7742783 23.7838598,23.2938679 23.1409626,23.2938679 C22.4949813,23.2938679 21.9718037,22.7742783 21.9718037,22.1347406 C21.9718037,21.4949245 22.4949813,20.9770047 23.1409626,20.9770047 C23.7838598,20.9770047 24.3073178,21.4949245 24.3073178,22.1347406 Z M32.7562991,22.1347406 C32.7562991,22.7742783 32.2328411,23.2938679 31.5868598,23.2938679 C30.9439626,23.2938679 30.4205047,22.7742783 30.4205047,22.1347406 C30.4205047,21.4949245 30.9439626,20.9770047 31.5868598,20.9770047 C32.2328411,20.9770047 32.7562991,21.4949245 32.7562991,22.1347406 Z M41.2053084,22.1347406 C41.2053084,22.7742783 40.6818505,23.2938679 40.0389533,23.2938679 C39.392972,23.2938679 38.869514,22.7742783 38.869514,22.1347406 C38.869514,21.4949245 39.392972,20.9770047 40.0389533,20.9770047 C40.6818505,20.9770047 41.2053084,21.4949245 41.2053084,22.1347406 Z M49.6543178,22.1347406 C49.6543178,22.7742783 49.1308598,23.2938679 48.4848785,23.2938679 C47.8419813,23.2938679 47.3185234,22.7742783 47.3185234,22.1347406 C47.3185234,21.4949245 47.8419813,20.9770047 48.4848785,20.9770047 C49.1308598,20.9770047 49.6543178,21.4949245 49.6543178,22.1347406 Z M58.1032991,22.1347406 C58.1032991,22.7742783 57.5832056,23.2938679 56.9338598,23.2938679 C56.291243,23.2938679 55.767785,22.7742783 55.767785,22.1347406 C55.767785,21.4949245 56.291243,20.9770047 56.9338598,20.9770047 C57.5832056,20.9770047 58.1032991,21.4949245 58.1032991,22.1347406 Z M65.1980748,20.9932854 L65.8990093,23.1754505 C65.7417196,23.2503137 65.5678879,23.294842 65.3828411,23.294842 C65.0606916,23.294842 64.7691028,23.1643184 64.5588224,22.955592 C64.3485421,22.7438042 64.2167664,22.4543703 64.2167664,22.1346014 C64.2167664,21.8142759 64.3485421,21.524842 64.5588224,21.3161156 C64.7267664,21.1494127 64.9513458,21.0294646 65.1980748,20.9932854 Z M11.6327103,27.1800755 C11.6327103,27.8173868 11.111215,28.3378113 10.4663551,28.3378113 C10.4352336,28.3378113 10.4043925,28.3378113 10.3738318,28.3322453 C10.4380374,27.555783 10.5336449,26.7904528 10.6595327,26.0362547 C10.9034579,26.075217 11.1224299,26.1948868 11.2903738,26.3618679 C11.5034579,26.5705943 11.6327103,26.8628113 11.6327103,27.1800755 Z M20.0828131,27.1787118 C20.0828131,27.8185278 19.5593551,28.3364476 18.9133738,28.3364476 C18.2704766,28.3364476 17.7472991,27.8185278 17.7472991,27.1787118 C17.7472991,26.5422354 18.2704766,26.0195844 18.9133738,26.0195844 C19.5593551,26.0195844 20.0828131,26.5422354 20.0828131,27.1787118 Z M28.5318224,27.1787118 C28.5318224,27.8185278 28.0083645,28.3364476 27.3654673,28.3364476 C26.719486,28.3364476 26.196028,27.8185278 26.196028,27.1787118 C26.196028,26.5422354 26.719486,26.0195844 27.3654673,26.0195844 C28.0083645,26.0195844 28.5318224,26.5422354 28.5318224,27.1787118 Z M36.9778037,27.1787118 C36.9778037,27.8185278 36.4577103,28.3364476 35.8114486,28.3364476 C35.1685514,28.3364476 34.6450935,27.8185278 34.6450935,27.1787118 C34.6450935,26.5422354 35.1685514,26.0195844 35.8114486,26.0195844 C36.4577103,26.0195844 36.9778037,26.5422354 36.9778037,27.1787118 Z M45.4298131,27.1787118 C45.4298131,27.8185278 44.9063551,28.3364476 44.2634579,28.3364476 C43.6174766,28.3364476 43.0940187,27.8185278 43.0940187,27.1787118 C43.0940187,26.5422354 43.6174766,26.0195844 44.2634579,26.0195844 C44.9063551,26.0195844 45.4298131,26.5422354 45.4298131,27.1787118 Z M53.8788224,27.1787118 C53.8788224,27.8185278 53.3553645,28.3364476 52.7127477,28.3364476 C52.066486,28.3364476 51.5433084,27.8185278 51.5433084,27.1787118 C51.5433084,26.5422354 52.066486,26.0195844 52.7127477,26.0195844 C53.3553645,26.0195844 53.8788224,26.5422354 53.8788224,27.1787118 Z M62.3278037,27.1787118 C62.3278037,27.8185278 61.8043458,28.3364476 61.161729,28.3364476 C60.5157477,28.3364476 59.9922897,27.8185278 59.9922897,27.1787118 C59.9922897,26.5422354 60.5157477,26.0195844 61.161729,26.0195844 C61.8043458,26.0195844 62.3278037,26.5422354 62.3278037,27.1787118 Z M15.8583084,31.8158057 C15.8583084,32.4597962 15.3348505,32.9779943 14.6919533,32.9779943 C14.045972,32.9779943 13.522514,32.4597962 13.522514,31.8158057 C13.522514,31.1759896 14.045972,30.6580698 14.6919533,30.6580698 C15.3348505,30.6580698 15.8583084,31.1759896 15.8583084,31.8158057 Z M24.3073178,31.8158057 C24.3073178,32.4597962 23.7838598,32.9779943 23.1409626,32.9779943 C22.4949813,32.9779943 21.9718037,32.4597962 21.9718037,31.8158057 C21.9718037,31.1759896 22.4949813,30.6580698 23.1409626,30.6580698 C23.7838598,30.6580698 24.3073178,31.1759896 24.3073178,31.8158057 Z M32.7562991,31.8158057 C32.7562991,32.4597962 32.2328411,32.9779943 31.5868598,32.9779943 C30.9439626,32.9779943 30.4205047,32.4597962 30.4205047,31.8158057 C30.4205047,31.1759896 30.9439626,30.6580698 31.5868598,30.6580698 C32.2328411,30.6580698 32.7562991,31.1759896 32.7562991,31.8158057 Z M41.2053084,31.8158057 C41.2053084,32.4597962 40.6818505,32.9779943 40.0389533,32.9779943 C39.392972,32.9779943 38.869514,32.4597962 38.869514,31.8158057 C38.869514,31.1759896 39.392972,30.6580698 40.0389533,30.6580698 C40.6818505,30.6580698 41.2053084,31.1759896 41.2053084,31.8158057 Z M49.6543178,31.8158057 C49.6543178,32.4597962 49.1308598,32.9779943 48.4848785,32.9779943 C47.8419813,32.9779943 47.3185234,32.4597962 47.3185234,31.8158057 C47.3185234,31.1759896 47.8419813,30.6580698 48.4848785,30.6580698 C49.1308598,30.6580698 49.6543178,31.1759896 49.6543178,31.8158057 Z M58.1032991,31.8158057 C58.1032991,32.4597962 57.5832056,32.9779943 56.9338598,32.9779943 C56.291243,32.9779943 55.767785,32.4597962 55.767785,31.8158057 C55.767785,31.1759896 56.291243,30.6580698 56.9338598,30.6580698 C57.5832056,30.6580698 58.1032991,31.1759896 58.1032991,31.8158057 Z M66.5523084,31.8158057 C66.5523084,32.4597962 66.0288505,32.9779943 65.3828692,32.9779943 C64.7402523,32.9779943 64.2167944,32.4597962 64.2167944,31.8158057 C64.2167944,31.1759896 64.7402523,30.6580698 65.3828692,30.6580698 C66.0288505,30.6580698 66.5523084,31.1759896 66.5523084,31.8158057 Z M11.6327103,36.8621981 C11.6327103,37.2295566 11.4616822,37.5551698 11.1950467,37.7694623 C11.021215,37.1043208 10.8698131,36.4252642 10.7439252,35.7406415 C10.9542056,35.7879528 11.1420561,35.8962123 11.2903738,36.0439906 C11.5034579,36.252717 11.6327103,36.5421509 11.6327103,36.8621981 Z M20.0828131,36.8627269 C20.0828131,37.5025429 19.5593551,38.0221325 18.9133738,38.0221325 C18.2704766,38.0221325 17.7472991,37.5025429 17.7472991,36.8627269 C17.7472991,36.2231892 18.2704766,35.7052693 18.9133738,35.7052693 C19.5593551,35.7052693 20.0828131,36.2231892 20.0828131,36.8627269 Z M28.5318224,36.8627269 C28.5318224,37.5025429 28.0083645,38.0221325 27.3654673,38.0221325 C26.719486,38.0221325 26.196028,37.5025429 26.196028,36.8627269 C26.196028,36.2231892 26.719486,35.7052693 27.3654673,35.7052693 C28.0083645,35.7052693 28.5318224,36.2231892 28.5318224,36.8627269 Z M36.9778037,36.8627269 C36.9778037,37.5025429 36.4577103,38.0221325 35.8114486,38.0221325 C35.1685514,38.0221325 34.6450935,37.5025429 34.6450935,36.8627269 C34.6450935,36.2231892 35.1685514,35.7052693 35.8114486,35.7052693 C36.4577103,35.7052693 36.9778037,36.2231892 36.9778037,36.8627269 Z M45.4298131,36.8627269 C45.4298131,37.5025429 44.9063551,38.0221325 44.2634579,38.0221325 C43.6174766,38.0221325 43.0940187,37.5025429 43.0940187,36.8627269 C43.0940187,36.2231892 43.6174766,35.7052693 44.2634579,35.7052693 C44.9063551,35.7052693 45.4298131,36.2231892 45.4298131,36.8627269 Z M53.8788224,36.8627269 C53.8788224,37.5025429 53.3553645,38.0221325 52.7127477,38.0221325 C52.066486,38.0221325 51.5433084,37.5025429 51.5433084,36.8627269 C51.5433084,36.2231892 52.066486,35.7052693 52.7127477,35.7052693 C53.3553645,35.7052693 53.8788224,36.2231892 53.8788224,36.8627269 Z M62.3278037,36.8627269 C62.3278037,37.5025429 61.8043458,38.0221325 61.161729,38.0221325 C60.5157477,38.0221325 59.9922897,37.5025429 59.9922897,36.8627269 C59.9922897,36.2231892 60.5157477,35.7052693 61.161729,35.7052693 C61.8043458,35.7052693 62.3278037,36.2231892 62.3278037,36.8627269 Z M15.8583084,41.4998486 C15.8583084,42.1410561 15.3348505,42.6589759 14.6919533,42.6589759 C14.045972,42.6589759 13.522514,42.1410561 13.522514,41.4998486 C13.522514,40.8600325 14.045972,40.3390514 14.6919533,40.3390514 C15.3348505,40.3390514 15.8583084,40.8600325 15.8583084,41.4998486 Z M24.3073178,41.4998486 C24.3073178,42.1410561 23.7838598,42.6589759 23.1409626,42.6589759 C22.4949813,42.6589759 21.9718037,42.1410561 21.9718037,41.4998486 C21.9718037,40.8600325 22.4949813,40.3390514 23.1409626,40.3390514 C23.7838598,40.3390514 24.3073178,40.8600325 24.3073178,41.4998486 Z M32.7562991,41.4998486 C32.7562991,42.1410561 32.2328411,42.6589759 31.5868598,42.6589759 C30.9439626,42.6589759 30.4205047,42.1410561 30.4205047,41.4998486 C30.4205047,40.8600325 30.9439626,40.3390514 31.5868598,40.3390514 C32.2328411,40.3390514 32.7562991,40.8600325 32.7562991,41.4998486 Z M41.2053084,41.4998486 C41.2053084,42.1410561 40.6818505,42.6589759 40.0389533,42.6589759 C39.392972,42.6589759 38.869514,42.1410561 38.869514,41.4998486 C38.869514,40.8600325 39.392972,40.3390514 40.0389533,40.3390514 C40.6818505,40.3390514 41.2053084,40.8600325 41.2053084,41.4998486 Z M49.6543178,41.4998486 C49.6543178,42.1410561 49.1308598,42.6589759 48.4848785,42.6589759 C47.8419813,42.6589759 47.3185234,42.1410561 47.3185234,41.4998486 C47.3185234,40.8600325 47.8419813,40.3390514 48.4848785,40.3390514 C49.1308598,40.3390514 49.6543178,40.8600325 49.6543178,41.4998486 Z M58.1032991,41.4998486 C58.1032991,42.1410561 57.5832056,42.6589759 56.9338598,42.6589759 C56.291243,42.6589759 55.767785,42.1410561 55.767785,41.4998486 C55.767785,40.8600325 56.291243,40.3390514 56.9338598,40.3390514 C57.5832056,40.3390514 58.1032991,40.8600325 58.1032991,41.4998486 Z M20.0828131,46.543792 C20.0828131,47.183608 19.5593551,47.7031976 18.9133738,47.7031976 C18.2704766,47.7031976 17.7472991,47.183608 17.7472991,46.543792 C17.7472991,45.9073156 18.2704766,45.3860561 18.9133738,45.3860561 C19.5593551,45.3860561 20.0828131,45.9073156 20.0828131,46.543792 Z M28.5318224,46.543792 C28.5318224,47.183608 28.0083645,47.7031976 27.3654673,47.7031976 C26.719486,47.7031976 26.196028,47.183608 26.196028,46.543792 C26.196028,45.9073156 26.719486,45.3860561 27.3654673,45.3860561 C28.0083645,45.3860561 28.5318224,45.9073156 28.5318224,46.543792 Z M36.9778037,46.543792 C36.9778037,47.183608 36.4577103,47.7031976 35.8114486,47.7031976 C35.1685514,47.7031976 34.6450935,47.183608 34.6450935,46.543792 C34.6450935,45.9073156 35.1685514,45.3860561 35.8114486,45.3860561 C36.4577103,45.3860561 36.9778037,45.9073156 36.9778037,46.543792 Z M45.4298131,46.543792 C45.4298131,47.183608 44.9063551,47.7031976 44.2634579,47.7031976 C43.6174766,47.7031976 43.0940187,47.183608 43.0940187,46.543792 C43.0940187,45.9073156 43.6174766,45.3860561 44.2634579,45.3860561 C44.9063551,45.3860561 45.4298131,45.9073156 45.4298131,46.543792 Z M53.8788224,46.543792 C53.8788224,47.183608 53.3553645,47.7031976 52.7127477,47.7031976 C52.066486,47.7031976 51.5433084,47.183608 51.5433084,46.543792 C51.5433084,45.9073156 52.066486,45.3860561 52.7127477,45.3860561 C53.3553645,45.3860561 53.8788224,45.9073156 53.8788224,46.543792 Z M62.2429346,46.1157358 C61.8840561,46.6581462 61.505271,47.1871981 61.1071402,47.6989953 C60.8074206,47.6881415 60.5354579,47.5626274 60.3333084,47.3625283 C60.123028,47.1538019 59.9915327,46.8640896 59.9915327,46.5443208 C59.9915327,46.2270566 60.123028,45.9373443 60.3333084,45.7261132 C60.5463925,45.5173868 60.8382617,45.3865849 61.1606916,45.3865849 C61.4828411,45.3865849 61.7747103,45.5173868 61.9849907,45.7261132 C62.0943364,45.837434 62.1837757,45.9682358 62.2429346,46.1157358 Z M24.3073178,51.1806075 C24.3073178,51.8220934 23.7838598,52.3400132 23.1409626,52.3400132 C22.4949813,52.3400132 21.9718037,51.8220934 21.9718037,51.1806075 C21.9718037,50.5410698 22.4949813,50.02315 23.1409626,50.02315 C23.7838598,50.02315 24.3073178,50.5410698 24.3073178,51.1806075 Z M32.7562991,51.1806075 C32.7562991,51.8220934 32.2328411,52.3400132 31.5868598,52.3400132 C30.9439626,52.3400132 30.4205047,51.8220934 30.4205047,51.1806075 C30.4205047,50.5410698 30.9439626,50.02315 31.5868598,50.02315 C32.2328411,50.02315 32.7562991,50.5410698 32.7562991,51.1806075 Z M41.2053084,51.1806075 C41.2053084,51.8220934 40.6818505,52.3400132 40.0389533,52.3400132 C39.392972,52.3400132 38.869514,51.8220934 38.869514,51.1806075 C38.869514,50.5410698 39.392972,50.02315 40.0389533,50.02315 C40.6818505,50.02315 41.2053084,50.5410698 41.2053084,51.1806075 Z M49.6543178,51.1806075 C49.6543178,51.8220934 49.1308598,52.3400132 48.4848785,52.3400132 C47.8419813,52.3400132 47.3185234,51.8220934 47.3185234,51.1806075 C47.3185234,50.5410698 47.8419813,50.02315 48.4848785,50.02315 C49.1308598,50.02315 49.6543178,50.5410698 49.6543178,51.1806075 Z M58.0931776,51.0333024 C57.627757,51.4730193 57.1457944,51.8960382 56.6520561,52.305142 C56.4448598,52.2550476 56.256729,52.1465099 56.111215,52.0017929 C55.8978505,51.7902835 55.7691589,51.5008495 55.7691589,51.1805241 C55.7691589,50.8607552 55.8978505,50.5713212 56.111215,50.3625948 C56.3214953,50.1510854 56.6130841,50.0230665 56.935514,50.0230665 C57.2604673,50.0230665 57.5520561,50.1510854 57.7623364,50.3625948 C57.938972,50.537925 58.0626168,50.7719769 58.0931776,51.0333024 Z M28.5318224,56.2248292 C28.5318224,56.8690981 28.0083645,57.3872962 27.3654673,57.3872962 C26.719486,57.3872962 26.196028,56.8690981 26.196028,56.2248292 C26.196028,55.5883528 26.719486,55.0673717 27.3654673,55.0673717 C28.0083645,55.0673717 28.5318224,55.5883528 28.5318224,56.2248292 Z M36.9778037,56.2248292 C36.9778037,56.8690981 36.4577103,57.3872962 35.8114486,57.3872962 C35.1685514,57.3872962 34.6450935,56.8690981 34.6450935,56.2248292 C34.6450935,55.5883528 35.1685514,55.0673717 35.8114486,55.0673717 C36.4577103,55.0673717 36.9778037,55.5883528 36.9778037,56.2248292 Z M45.4298131,56.2248292 C45.4298131,56.8690981 44.9063551,57.3872962 44.2634579,57.3872962 C43.6174766,57.3872962 43.0940187,56.8690981 43.0940187,56.2248292 C43.0940187,55.5883528 43.6174766,55.0673717 44.2634579,55.0673717 C44.9063551,55.0673717 45.4298131,55.5883528 45.4298131,56.2248292 Z" id="Combined-Shape" fill="#1C1C1C"></path>
                        <path d="M83.2018522,30.7745594 C83.9378063,30.044044 83.9378063,28.8597748 83.2018522,28.1292594 C82.4659139,27.3987597 81.2726206,27.3987597 80.5367634,28.1293534 C79.8006552,28.8598473 79.8006552,30.0439715 80.5369528,30.7746534 C81.2726206,31.5050592 82.4659139,31.5050592 83.2018522,30.7745594 Z M84.7878861,32.3488726 C83.1759739,33.9488729 80.5623514,33.9488729 78.9509189,32.3489666 C77.3386158,30.7489605 77.3386158,28.1548583 78.9507295,26.5550402 C80.5623514,24.954946 83.1759739,24.954946 84.7878861,26.5549462 C86.3997825,28.1549308 86.3997825,30.7488881 84.7878861,32.3488726 Z" id="Stroke-3" fill="#1C1C1C"></path>
                        <path d="M100.024282,30.7745594 C100.760236,30.044044 100.760236,28.8597748 100.024282,28.1292594 C99.2883438,27.3987597 98.0950505,27.3987597 97.3591933,28.1293534 C96.6230851,28.8598473 96.6230851,30.0439715 97.3593827,30.7746534 C98.0950505,31.5050592 99.2883438,31.5050592 100.024282,30.7745594 Z M101.610316,32.3488726 C99.9984038,33.9488729 97.3847813,33.9488729 95.7733488,32.3489666 C94.1610457,30.7489605 94.1610457,28.1548583 95.7731594,26.5550402 C97.3847813,24.954946 99.9984038,24.954946 101.610316,26.5549462 C103.222212,28.1549308 103.222212,30.7488881 101.610316,32.3488726 Z M182.738748,14.5562184 L182.738748,17.3392373 L163.673327,17.3392373 L163.673327,14.5562184 L182.738748,14.5562184 Z M135.35557,44.0089071 L135.35557,46.7919259 L95.8228598,46.7919259 L95.8228598,44.0089071 L135.35557,44.0089071 Z" id="Combined-Shape" fill="#E4FF00"></path>
                        <path d="M54.0255889,46.8161382 C48.6261415,54.2203239 39.8472018,59.0372368 29.9350093,59.0372368 C13.5215261,59.0372368 0.215383178,45.8294255 0.215383178,29.5372368 C0.215383178,13.2450481 13.5215261,0.0372367925 29.9350093,0.0372367925 C40.8292709,0.0372367925 50.3545971,5.85592295 55.5287638,14.5331095 L121.993178,14.5331193 L121.993178,17.3161382 L56.9922933,17.3161382 C58.7020692,21.0397601 59.6546355,25.1780955 59.6546355,29.5372368 C59.6546355,34.8058769 58.2631125,39.7519606 55.8249771,44.0331262 L87.131271,44.0331193 L87.131271,46.8161382 L54.0255889,46.8161382 Z M50.4646549,46.8161382 L36.6639813,46.8161382 L36.6639813,44.0331193 L52.5483192,44.0331193 C55.2704776,39.8577881 56.8508972,34.880681 56.8508972,29.5372368 C56.8508972,25.1334675 55.7774542,20.9785194 53.8761288,17.3161382 L42.5517757,17.3161382 L42.5517757,14.5331193 L52.2086276,14.5331193 C47.3658482,7.46370755 39.1966417,2.82025566 29.9350093,2.82025566 C15.069988,2.82025566 3.0191215,14.782067 3.0191215,29.5372368 C3.0191215,44.2924066 15.069988,56.2542179 29.9350093,56.2542179 C38.1622505,56.2542179 45.5274557,52.5900588 50.4646549,46.8161382 Z M211.336879,14.5562184 L211.336879,17.3392373 L190.007439,17.3392373 L190.007439,14.5562184 L211.336879,14.5562184 Z M192.086636,28.1699118 L192.086636,30.9529307 L112.645234,30.9529307 L112.645234,28.1699118 L192.086636,28.1699118 Z" id="Combined-Shape" fill="#1C1C1C"></path>
                    </g>
                </g>
            </g>
        </g>
    </g>
</svg>