<?xml version="1.0" encoding="UTF-8"?>
<svg width="259px" height="257px" viewBox="0 0 259 257" version="1.1" xmlns="http://www.w3.org/2000/svg" xmlns:xlink="http://www.w3.org/1999/xlink">
    <!-- Generator: Sketch 52.3 (67297) - http://www.bohemiancoding.com/sketch -->
    <title>illustrations/flying-box</title>
    <desc>Created with Sketch.</desc>
    <g id="03-Resources" stroke="none" stroke-width="1" fill="none" fill-rule="evenodd">
        <g id="Resources" transform="translate(-55.000000, -3643.000000)">
            <g id="Newsletter" transform="translate(57.000000, 3644.000000)">
                <g id="illustrations/flying-box">
                    <g id="Group-261" transform="translate(-1.164384, -1.363636)">
                        <polygon id="Fill-1" fill="#7EEFFF" points="204.088726 102.687239 164.072744 72.6889432 195.178863 40.6772386 235.194845 70.675875"></polygon>
                        <g id="Group-260" transform="translate(0.000000, 0.176932)">
                            <path d="M95.9305237,153.827343 C96.9492998,152.932509 96.9492998,151.481573 95.9303926,150.586837 C94.9116247,149.691797 93.2598228,149.691797 92.2407927,150.587068 C91.2221477,151.481573 91.2221477,152.932509 92.2409238,153.827343 C93.2597217,154.722196 94.9117258,154.722196 95.9305237,153.827343 Z M98.1261064,155.755816 C95.8947217,157.715736 92.2767258,157.715736 90.0453411,155.755816 C87.8139345,153.795877 87.8139345,150.61795 90.04521,148.658595 C92.2766247,146.698181 95.8948228,146.698181 98.1259753,148.658364 C100.357513,150.61795 100.357513,153.795877 98.1261064,155.755816 Z" id="Stroke-2" fill="#7EEFFF"></path>
                            <path d="M144.25248,88.202343 C145.271256,87.307509 145.271256,85.8565728 144.252349,84.9618373 C143.233581,84.0667967 141.581779,84.0667967 140.562749,84.9620676 C139.544104,85.8565728 139.544104,87.307509 140.56288,88.202343 C141.581678,89.0971963 143.233682,89.0971963 144.25248,88.202343 Z M146.448063,90.1308161 C144.216678,92.0907356 140.598682,92.0907356 138.367298,90.1308161 C136.135891,88.1708774 136.135891,84.99295 138.367167,83.0335945 C140.598581,81.0731806 144.216779,81.0731806 146.447932,83.0333642 C148.67947,84.99295 148.67947,88.1708774 146.448063,90.1308161 Z" id="Stroke-4" fill="#7EEFFF"></path>
                            <polygon id="Stroke-6" fill="#1E1E1E" fill-rule="nonzero" points="159.908701 91.6803294 162.65318 94.0909206 104.49455 145.174102 101.750071 142.763511"></polygon>
                            <polygon id="Stroke-8" fill="#1E1E1E" fill-rule="nonzero" points="99.5548202 167.191693 102.299299 169.602284 2.74450403 257.045466 2.56529483e-05 254.634875"></polygon>
                            <polygon id="Stroke-10" fill="#7EEFFF" points="163.600457 111.17975 166.344936 113.590341 153.157904 125.173068 150.413425 122.762477"></polygon>
                            <polygon id="Stroke-12" fill="#7EEFFF" points="143.417809 128.907023 146.162287 131.317614 132.975255 142.900341 130.230777 140.48975"></polygon>
                            <polygon id="Stroke-14" fill="#7EEFFF" points="183.188028 93.9754657 185.932506 96.386057 172.745474 107.968784 170.000996 105.558193"></polygon>
                            <polygon id="Stroke-16" fill="#1E1E1E" fill-rule="nonzero" points="130.894631 94.3077157 133.639109 96.718307 41.936141 177.264898 39.1916626 174.854307"></polygon>
                            <polygon id="Fill-20" fill="#FFFFFF" points="195.462701 31.9098409 190.737244 14.21325 156.018432 48.1425682 160.744276 65.8395"></polygon>
                            <path d="M233.127404,55.4075795 L229.616788,42.2597386 L193.526719,16.9874659 L197.038112,30.1356477 L233.127404,55.4075795 Z M191.767336,11.8366705 L232.26382,40.1948523 C232.569664,40.4099659 232.785463,40.7082614 232.874733,41.0430341 L237.672381,59.009625 C237.841993,59.6457614 237.534208,60.3050795 236.906605,60.6541705 C236.278614,61.0032614 235.460829,60.9613295 234.887176,60.5576932 L194.390692,32.2001932 C194.084459,31.9854205 193.869436,31.6867841 193.779779,31.3520114 L188.981742,13.3847386 C188.811742,12.7492841 189.119527,12.089625 189.74713,11.740875 C190.335144,11.4139432 191.083454,11.4268977 191.653226,11.7640568 C191.692039,11.7868977 191.730075,11.8114432 191.767336,11.8366705 Z" id="Fill-22" fill="#1E1E1E"></path>
                            <path d="M161.164192,62.2434205 L193.572091,30.5733068 L189.744763,16.2411477 L157.337251,47.9116023 L161.164192,62.2434205 Z M192.377822,12.685125 L197.175858,30.6520568 C197.305881,31.1402386 197.156452,31.6536477 196.775311,32.0259205 L161.526315,66.4730795 C161.091612,66.8978523 160.425584,67.0754659 159.796817,66.9336477 C159.164945,66.7931932 158.679009,66.355125 158.531132,65.7994432 L153.733096,47.8328523 C153.603461,47.3446705 153.75289,46.8312614 154.13442,46.4586477 L189.382639,12.0111477 C189.816954,11.586375 190.483758,11.4094432 191.112525,11.5512614 C191.30853,11.5952386 191.49095,11.6681932 191.653575,11.7643295 C192.012205,11.976375 192.275356,12.3029659 192.377822,12.685125 Z" id="Fill-24" fill="#1E1E1E"></path>
                            <path d="M200.527692,91.7101023 L233.440546,59.5446477 L195.676094,33.0999886 L162.762852,65.2647614 L200.527692,91.7101023 Z M196.565295,29.8040795 L237.061779,58.1619205 C237.437486,58.4251023 237.672304,58.812375 237.712281,59.2330568 C237.752258,59.6537386 237.592349,60.0696477 237.271756,60.383625 L202.023148,94.8318068 C201.405637,95.434875 200.365066,95.5020341 199.638491,95.0060114 L159.141619,66.6471477 C158.766299,66.3843068 158.531094,65.9970341 158.491116,65.5760114 C158.451139,65.1556705 158.611048,64.7397614 158.931642,64.4257841 L194.180637,29.978625 C194.766322,29.4062386 195.736253,29.3083977 196.450797,29.7307841 C196.489998,29.7539659 196.527646,29.7785114 196.565295,29.8040795 Z" id="Fill-26" fill="#1E1E1E"></path>
                            <path d="M236.986057,58.1981681 L253.680068,54.7339232 L246.456404,38.974937 L233.09333,42.2338514 L236.986057,58.1981681 Z M230.853662,39.9496039 L246.962908,36.0209675 C247.724426,35.8352526 248.523249,36.1816582 248.818423,36.8256024 L257.234975,55.186966 C257.589906,55.9612757 257.076638,56.8314403 256.151772,57.0233631 L236.156978,61.1725676 C235.310094,61.348308 234.464171,60.8784278 234.28193,60.1310454 L229.750925,41.5491136 C229.578911,40.8436714 230.062236,40.1426126 230.853662,39.9496039 Z" id="Stroke-28" fill="#1E1E1E" fill-rule="nonzero"></path>
                            <polygon id="Fill-30" fill="#FFFFFF" points="199.317858 3.01677273 207.516671 20.6802955 198.262927 30.3498409 191.452447 13.6449545"></polygon>
                            <path d="M193.036108,12.9983541 L197.02014,27.5449541 L204.332852,21.6910159 L198.191601,4.9225788 L193.036108,12.9983541 Z M190.030174,12.1306915 L197.2249,0.860577898 C197.887956,-0.178060431 199.641826,-0.0236420852 200.056983,1.10992683 L207.594426,21.6906086 C207.78065,22.1990872 207.611737,22.7562479 207.162278,23.1160465 L197.170703,31.1144556 C196.29787,31.8131715 194.891686,31.4340506 194.615475,30.4255413 L189.874881,13.116564 C189.783385,12.7824915 189.838847,12.4303944 190.030174,12.1306915 Z" id="Stroke-32" fill="#1E1E1E" fill-rule="nonzero"></path>
                            <path d="M159.902,63.3447273 C159.808849,63.4674545 159.680767,63.5560909 159.540653,63.6106364 L159.164557,62.1958636 C159.339215,62.1859773 159.517753,62.2268864 159.673005,62.3185909 C160.061132,62.547 160.162046,63.0072273 159.902,63.3447273" id="Fill-34" fill="#1E1E1E"></path>
                            <path d="M161.248726,63.7571932 L160.914936,64.0810568 C160.930461,64.0473068 160.953749,64.012875 160.977037,63.9821932 C161.050781,63.8867386 161.143932,63.8117386 161.248726,63.7571932" id="Fill-36" fill="#1E1E1E"></path>
                            <path d="M160.102895,59.4132614 C160.48947,59.6416705 160.591936,60.1022386 160.33189,60.4417841 C160.071457,60.7809886 159.547484,60.8709886 159.160909,60.6422386 C158.774333,60.4141705 158.671868,59.9536023 158.931913,59.6140568 C159.192347,59.2748523 159.716708,59.1848523 160.102895,59.4132614" id="Fill-38" fill="#1E1E1E"></path>
                            <path d="M162.576861,60.8761023 C162.963436,61.1045114 163.065902,61.5650795 162.805468,61.9042841 C162.545422,62.2438295 162.021062,62.3334886 161.634874,62.1050795 C161.248299,61.8770114 161.145833,61.4164432 161.405879,61.0768977 C161.666313,60.7373523 162.190674,60.6473523 162.576861,60.8761023" id="Fill-40" fill="#1E1E1E"></path>
                            <path d="M158.287349,56.0731023 C158.128217,56.2810568 157.879815,56.3935568 157.615888,56.3969659 L157.239404,54.9859432 C157.495568,54.8833295 157.806071,54.8973068 158.058354,55.0469659 C158.4426,55.275375 158.547395,55.7356023 158.287349,56.0731023" id="Fill-42" fill="#1E1E1E"></path>
                            <path d="M160.531194,56.5088864 C160.917769,56.7372955 161.020235,57.1978636 160.760189,57.5374091 C160.499756,57.8769545 159.975395,57.9666136 159.589208,57.7382045 C159.203021,57.5097955 159.100167,57.0495682 159.360212,56.7100227 C159.620646,56.3704773 160.145007,56.2804773 160.531194,56.5088864" id="Fill-44" fill="#1E1E1E"></path>
                            <path d="M163.00516,57.9717273 C163.391735,58.2001364 163.494201,58.6607045 163.233767,59.00025 C162.973721,59.3394545 162.449749,59.4291136 162.063174,59.2007045 C161.676986,58.9726364 161.574132,58.5120682 161.834178,58.1725227 C162.094612,57.8333182 162.618973,57.7433182 163.00516,57.9717273" id="Fill-46" fill="#1E1E1E"></path>
                            <path d="M165.592032,59.5164886 L164.466461,60.6142159 C164.140434,60.3755795 164.062808,59.9528523 164.306941,59.6358068 C164.566986,59.2948977 165.091347,59.2062614 165.479475,59.4346705 C165.521781,59.4585341 165.556712,59.4854659 165.592032,59.5164886" id="Fill-48" fill="#1E1E1E"></path>
                            <path d="M156.323578,51.5630455 L156.105838,50.7448636 C156.365884,50.9528182 156.455541,51.2800909 156.323578,51.5630455" id="Fill-50" fill="#1E1E1E"></path>
                            <path d="M158.485566,52.1419773 C158.872142,52.3707273 158.974607,52.8309545 158.714562,53.1705 C158.454516,53.5100455 157.930155,53.5997045 157.54358,53.3709545 C157.157393,53.1428864 157.054927,52.6823182 157.314973,52.3427727 C157.575018,52.0035682 158.099379,51.9135682 158.485566,52.1419773" id="Fill-52" fill="#1E1E1E"></path>
                            <path d="M160.959532,53.6048182 C161.346107,53.8332273 161.448573,54.2937955 161.188527,54.633 C160.928094,54.9725455 160.404121,55.0622045 160.017546,54.8337955 C159.631358,54.6057273 159.528505,54.1451591 159.788938,53.8056136 C160.048984,53.4664091 160.573345,53.3764091 160.959532,53.6048182" id="Fill-54" fill="#1E1E1E"></path>
                            <path d="M163.433459,55.0673523 C163.820034,55.2961023 163.9225,55.7563295 163.662454,56.095875 C163.402021,56.4354205 162.878048,56.5250795 162.491473,56.2963295 C162.105285,56.0682614 162.002432,55.6076932 162.262865,55.2681477 C162.522911,54.9289432 163.047272,54.8389432 163.433459,55.0673523" id="Fill-56" fill="#1E1E1E"></path>
                            <path d="M165.907386,56.5301932 C166.293961,56.7586023 166.396427,57.2191705 166.136381,57.558375 C165.875947,57.8979205 165.351975,57.9875795 164.9654,57.7591705 C164.578824,57.5307614 164.476358,57.0705341 164.736792,56.7309886 C164.996838,56.3917841 165.521199,56.3014432 165.907386,56.5301932" id="Fill-58" fill="#1E1E1E"></path>
                            <path d="M155.65953,49.0744773 C156.020877,49.2040227 156.443936,49.098 156.66905,48.8051591 C156.929096,48.46425 156.828183,48.0036818 156.440055,47.7752727 C156.090352,47.5676591 155.620717,47.6218636 155.345146,47.8911818 L155.65953,49.0744773 Z" id="Fill-60" fill="#1E1E1E"></path>
                            <path d="M158.913904,49.2379432 C159.300479,49.4663523 159.402945,49.9269205 159.1429,50.266125 C158.882854,50.6056705 158.358493,50.6953295 157.971918,50.4669205 C157.585731,50.2388523 157.482877,49.7779432 157.743311,49.4387386 C158.003356,49.0991932 158.527717,49.0091932 158.913904,49.2379432" id="Fill-62" fill="#1E1E1E"></path>
                            <path d="M161.387831,50.7004432 C161.774406,50.9288523 161.876872,51.3894205 161.616826,51.7289659 C161.356781,52.0681705 160.83242,52.1581705 160.445845,51.9294205 C160.059269,51.7013523 159.957192,51.2407841 160.217237,50.9012386 C160.477283,50.5620341 161.001644,50.4720341 161.387831,50.7004432" id="Fill-64" fill="#1E1E1E"></path>
                            <path d="M163.861758,52.1632841 C164.248333,52.3916932 164.350799,52.8522614 164.090753,53.1914659 C163.83032,53.5310114 163.305959,53.6206705 162.919772,53.3922614 C162.533196,53.1641932 162.430731,52.7032841 162.691164,52.3640795 C162.95121,52.0245341 163.475571,51.9345341 163.861758,52.1632841" id="Fill-66" fill="#1E1E1E"></path>
                            <path d="M166.335685,53.6258182 C166.72226,53.8542273 166.824726,54.3147955 166.56468,54.6543409 C166.304247,54.9935455 165.780274,55.0835455 165.393699,54.8547955 C165.007123,54.6267273 164.904658,54.1661591 165.164703,53.8266136 C165.425137,53.4874091 165.949498,53.3974091 166.335685,53.6258182" id="Fill-68" fill="#1E1E1E"></path>
                            <path d="M168.809612,55.0886591 C169.196187,55.3170682 169.298653,55.7776364 169.038607,56.1168409 C168.778174,56.4563864 168.253813,56.5460455 167.867626,56.3176364 C167.48105,56.0892273 167.378584,55.629 167.639018,55.2894545 C167.899064,54.95025 168.423425,54.8599091 168.809612,55.0886591" id="Fill-70" fill="#1E1E1E"></path>
                            <path d="M157.09568,45.9004091 C156.886091,46.1731364 156.502233,46.2856364 156.160292,46.197 L157.177187,45.2049545 C157.278489,45.4265455 157.258694,45.6856364 157.09568,45.9004091" id="Fill-72" fill="#1E1E1E"></path>
                            <path d="M159.342553,46.3335341 C159.72874,46.5619432 159.831205,47.0225114 159.57116,47.3620568 C159.310726,47.7012614 158.786753,47.7909205 158.400566,47.5625114 C158.013991,47.3344432 157.911137,46.873875 158.171571,46.5343295 C158.431616,46.195125 158.955977,46.1047841 159.342553,46.3335341" id="Fill-74" fill="#1E1E1E"></path>
                            <path d="M161.816518,47.7960682 C162.202705,48.0244773 162.305171,48.4850455 162.045126,48.8245909 C161.78508,49.1641364 161.260719,49.2537955 160.874144,49.0250455 C160.487957,48.7969773 160.385103,48.33675 160.645537,47.9972045 C160.905582,47.6576591 161.429943,47.5676591 161.816518,47.7960682" id="Fill-76" fill="#1E1E1E"></path>
                            <path d="M164.290057,49.2589091 C164.676632,49.4873182 164.779098,49.9478864 164.519053,50.2874318 C164.258619,50.6266364 163.734646,50.7162955 163.348071,50.4878864 C162.961884,50.2598182 162.85903,49.79925 163.119463,49.4600455 C163.379509,49.1205 163.90387,49.0301591 164.290057,49.2589091" id="Fill-78" fill="#1E1E1E"></path>
                            <path d="M166.764372,50.7214091 C167.150559,50.9501591 167.253025,51.4103864 166.992979,51.7499318 C166.732546,52.0894773 166.208573,52.1791364 165.821998,51.9503864 C165.435811,51.7223182 165.332957,51.26175 165.593002,50.9225455 C165.853436,50.583 166.377797,50.493 166.764372,50.7214091" id="Fill-80" fill="#1E1E1E"></path>
                            <path d="M169.23795,52.1842841 C169.624525,52.4126932 169.726991,52.8732614 169.466557,53.2128068 C169.206511,53.5520114 168.682539,53.6416705 168.295963,53.4132614 C167.909388,53.1851932 167.806922,52.724625 168.066968,52.3850795 C168.327402,52.045875 168.851763,51.9555341 169.23795,52.1842841" id="Fill-82" fill="#1E1E1E"></path>
                            <path d="M159.098459,43.3233068 L159.10234,43.3233068 C159.323573,43.2752386 159.568094,43.3096705 159.76992,43.4289886 C160.158048,43.6570568 160.258961,44.117625 159.998916,44.4585341 C159.73887,44.7956932 159.214897,44.8880795 158.826769,44.6596705 C158.551199,44.4956932 158.423116,44.2127386 158.465811,43.9434205 L158.465811,43.9403523 L159.098459,43.3233068 Z" id="Fill-84" fill="#1E1E1E"></path>
                            <path d="M162.244817,44.892 C162.631005,45.1204091 162.73347,45.5809773 162.473425,45.9205227 C162.213379,46.2597273 161.689018,46.3493864 161.302443,46.1209773 C160.916256,45.8929091 160.813402,45.432 161.073836,45.0927955 C161.333881,44.7535909 161.858242,44.66325 162.244817,44.892" id="Fill-86" fill="#1E1E1E"></path>
                            <path d="M164.718356,46.3545341 C165.104932,46.5829432 165.207397,47.0435114 164.947352,47.3830568 C164.687306,47.7222614 164.162945,47.8122614 163.77637,47.5835114 C163.389795,47.3554432 163.287717,46.894875 163.547763,46.5556705 C163.807808,46.216125 164.332169,46.126125 164.718356,46.3545341" id="Fill-88" fill="#1E1E1E"></path>
                            <path d="M167.192322,47.817375 C167.578897,48.0457841 167.681363,48.5063523 167.421317,48.8458977 C167.161272,49.1851023 166.636523,49.2747614 166.250336,49.0463523 C165.864148,48.8182841 165.761295,48.3577159 166.02134,48.0181705 C166.281774,47.6789659 166.806135,47.588625 167.192322,47.817375" id="Fill-90" fill="#1E1E1E"></path>
                            <path d="M169.666249,49.279875 C170.052824,49.508625 170.15529,49.9688523 169.894856,50.3083977 C169.634811,50.6476023 169.110838,50.7376023 168.724263,50.5088523 C168.337687,50.2807841 168.235221,49.8202159 168.495267,49.4810114 C168.755701,49.1414659 169.280062,49.0514659 169.666249,49.279875" id="Fill-92" fill="#1E1E1E"></path>
                            <path d="M172.140176,50.7427159 C172.526751,50.971125 172.629217,51.4316932 172.369171,51.7712386 C172.108737,52.1104432 171.584377,52.2001023 171.198189,51.9716932 C170.811614,51.743625 170.709148,51.2830568 170.969582,50.9435114 C171.229628,50.6043068 171.753989,50.5139659 172.140176,50.7427159" id="Fill-94" fill="#1E1E1E"></path>
                            <path d="M162.673116,41.987625 C163.059304,42.216375 163.161769,42.6766023 162.901724,43.0161477 C162.641678,43.3553523 162.117317,43.4453523 161.730742,43.2166023 C161.344555,42.9885341 161.241701,42.5279659 161.502135,42.1884205 C161.76218,41.8492159 162.286541,41.7592159 162.673116,41.987625" id="Fill-96" fill="#1E1E1E"></path>
                            <path d="M165.146655,43.4504659 C165.533231,43.678875 165.635696,44.1394432 165.375651,44.4786477 C165.115605,44.8181932 164.591244,44.9078523 164.204669,44.6794432 C163.818482,44.4510341 163.715628,43.9908068 163.976062,43.6512614 C164.236107,43.3117159 164.760468,43.2217159 165.146655,43.4504659" id="Fill-98" fill="#1E1E1E"></path>
                            <path d="M167.620621,44.913 C168.007196,45.1414091 168.109662,45.6019773 167.849616,45.9415227 C167.589183,46.2807273 167.06521,46.3707273 166.678635,46.1419773 C166.292447,45.9139091 166.189594,45.4533409 166.450027,45.1137955 C166.710073,44.7745909 167.234434,44.6845909 167.620621,44.913" id="Fill-100" fill="#1E1E1E"></path>
                            <path d="M170.094548,46.3758409 C170.481123,46.60425 170.583589,47.0648182 170.323543,47.4040227 C170.06311,47.7435682 169.539137,47.8332273 169.152562,47.6048182 C168.766374,47.3764091 168.663521,46.9161818 168.923954,46.5766364 C169.184,46.2370909 169.708361,46.1470909 170.094548,46.3758409" id="Fill-102" fill="#1E1E1E"></path>
                            <path d="M172.568475,47.8383409 C172.95505,48.0670909 173.057516,48.5273182 172.79747,48.8668636 C172.537037,49.2060682 172.013064,49.2960682 171.626489,49.0673182 C171.239913,48.83925 171.137447,48.3786818 171.397881,48.0391364 C171.657927,47.6999318 172.1819,47.6099318 172.568475,47.8383409" id="Fill-104" fill="#1E1E1E"></path>
                            <path d="M175.042402,49.3011818 C175.428977,49.5295909 175.531443,49.9901591 175.271397,50.3293636 C175.010963,50.6689091 174.486603,50.7585682 174.100416,50.5301591 C173.71384,50.30175 173.611374,49.8415227 173.871808,49.5019773 C174.131854,49.1624318 174.655826,49.0724318 175.042402,49.3011818" id="Fill-106" fill="#1E1E1E"></path>
                            <path d="M163.329208,40.1119432 C163.073043,40.4491023 162.556833,40.5380795 162.172587,40.3195568 L163.286514,39.2323977 C163.511628,39.4778523 163.542678,39.8354659 163.329208,40.1119432" id="Fill-108" fill="#1E1E1E"></path>
                            <path d="M165.575342,40.5460909 C165.96153,40.7745 166.063995,41.2350682 165.80395,41.5746136 C165.543904,41.9138182 165.019543,42.0038182 164.632968,41.7750682 C164.246781,41.547 164.143927,41.0864318 164.404361,40.7468864 C164.664406,40.4076818 165.188767,40.3173409 165.575342,40.5460909" id="Fill-110" fill="#1E1E1E"></path>
                            <path d="M168.049308,42.0085909 C168.435495,42.2373409 168.537961,42.6975682 168.277916,43.0371136 C168.01787,43.3766591 167.493509,43.4663182 167.106934,43.2379091 C166.720358,43.0095 166.617893,42.5489318 166.878326,42.2097273 C167.138372,41.8701818 167.662733,41.7801818 168.049308,42.0085909" id="Fill-112" fill="#1E1E1E"></path>
                            <path d="M170.522847,43.4714318 C170.909422,43.6998409 171.011888,44.1604091 170.751842,44.4999545 C170.491409,44.8391591 169.967048,44.9288182 169.580861,44.7004091 C169.194285,44.4723409 169.09182,44.0117727 169.352253,43.6722273 C169.612299,43.3330227 170.13666,43.2430227 170.522847,43.4714318" id="Fill-114" fill="#1E1E1E"></path>
                            <path d="M172.996774,44.9339659 C173.383349,45.1627159 173.485815,45.6229432 173.225381,45.9624886 C172.965336,46.3020341 172.440975,46.3916932 172.054788,46.1632841 C171.668212,45.934875 171.565747,45.4743068 171.825792,45.1351023 C172.086226,44.7955568 172.610587,44.7055568 172.996774,44.9339659" id="Fill-116" fill="#1E1E1E"></path>
                            <path d="M175.47074,46.3968068 C175.857315,46.6252159 175.959781,47.0857841 175.699735,47.4253295 C175.439301,47.7645341 174.914941,47.8545341 174.528753,47.6257841 C174.142178,47.3977159 174.039712,46.9371477 174.300146,46.5976023 C174.560192,46.2583977 175.084553,46.1680568 175.47074,46.3968068" id="Fill-118" fill="#1E1E1E"></path>
                            <path d="M177.631564,47.7481364 L176.669395,48.6890455 C176.595263,48.4810909 176.626313,48.2526818 176.773801,48.0617727 C176.967865,47.8060909 177.309418,47.6935909 177.631564,47.7481364" id="Fill-120" fill="#1E1E1E"></path>
                            <path d="M166.00368,37.6416818 C166.389868,37.8700909 166.492333,38.3306591 166.232288,38.6702045 C165.971854,39.00975 165.447881,39.0994091 165.061306,38.8706591 C164.675119,38.6425909 164.572265,38.1820227 164.832699,37.8428182 C165.092744,37.5032727 165.617105,37.4132727 166.00368,37.6416818" id="Fill-122" fill="#1E1E1E"></path>
                            <path d="M168.477607,39.1045568 C168.863795,39.3329659 168.96626,39.7935341 168.706215,40.1330795 C168.446169,40.4722841 167.921808,40.5619432 167.535233,40.3335341 C167.149046,40.1054659 167.046192,39.6448977 167.306626,39.3053523 C167.566671,38.9661477 168.091032,38.8758068 168.477607,39.1045568" id="Fill-124" fill="#1E1E1E"></path>
                            <path d="M170.951146,40.5670568 C171.337721,40.7954659 171.440187,41.2560341 171.180142,41.5955795 C170.919708,41.935125 170.395735,42.0247841 170.00916,41.7960341 C169.622973,41.5679659 169.520119,41.1073977 169.780553,40.7681932 C170.040598,40.4286477 170.564959,40.3386477 170.951146,40.5670568" id="Fill-126" fill="#1E1E1E"></path>
                            <path d="M173.425073,42.0298977 C173.811648,42.2583068 173.914114,42.718875 173.654068,43.0584205 C173.393635,43.397625 172.869662,43.4872841 172.483087,43.258875 C172.0969,43.0308068 171.994046,42.5702386 172.254091,42.2306932 C172.514525,41.8914886 173.038886,41.8011477 173.425073,42.0298977" id="Fill-128" fill="#1E1E1E"></path>
                            <path d="M175.899039,43.4924318 C176.285614,43.7208409 176.38808,44.1814091 176.127646,44.5209545 C175.8676,44.8605 175.343628,44.9501591 174.957053,44.7214091 C174.570477,44.4933409 174.468011,44.0327727 174.728057,43.6935682 C174.988491,43.3540227 175.512852,43.2640227 175.899039,43.4924318" id="Fill-130" fill="#1E1E1E"></path>
                            <path d="M178.372966,44.9552727 C178.759541,45.1836818 178.862007,45.64425 178.601961,45.9837955 C178.341527,46.323 177.817167,46.4126591 177.430979,46.18425 C177.044404,45.9558409 176.941938,45.4956136 177.201984,45.1560682 C177.462418,44.8168636 177.986779,44.7265227 178.372966,44.9552727" id="Fill-132" fill="#1E1E1E"></path>
                            <path d="M168.905518,36.2001477 C169.292094,36.4285568 169.394559,36.889125 169.134514,37.2286705 C168.874468,37.567875 168.350107,37.657875 167.963532,37.429125 C167.577345,37.2010568 167.474491,36.7404886 167.734925,36.4009432 C167.99497,36.0617386 168.519331,35.9717386 168.905518,36.2001477" id="Fill-134" fill="#1E1E1E"></path>
                            <path d="M171.379445,37.6629886 C171.766021,37.8913977 171.868486,38.3519659 171.608441,38.6911705 C171.348395,39.0307159 170.824034,39.120375 170.437459,38.8919659 C170.050884,38.6635568 169.948806,38.2033295 170.208852,37.8637841 C170.468897,37.5245795 170.993258,37.4342386 171.379445,37.6629886" id="Fill-136" fill="#1E1E1E"></path>
                            <path d="M173.853411,39.1255227 C174.239986,39.3539318 174.342452,39.8145 174.082406,40.1540455 C173.822361,40.49325 173.297612,40.5829091 172.911425,40.3545 C172.524849,40.1264318 172.422384,39.6658636 172.682817,39.3263182 C172.942863,38.9871136 173.467224,38.8971136 173.853411,39.1255227" id="Fill-138" fill="#1E1E1E"></path>
                            <path d="M176.327338,40.5883636 C176.713913,40.8167727 176.816379,41.2773409 176.556333,41.6165455 C176.2959,41.9560909 175.771927,42.04575 175.385352,41.8173409 C174.998776,41.5892727 174.896311,41.1283636 175.156744,40.7891591 C175.41679,40.4499545 175.941151,40.3596136 176.327338,40.5883636" id="Fill-140" fill="#1E1E1E"></path>
                            <path d="M178.801265,42.0508636 C179.18784,42.2792727 179.290306,42.7398409 179.03026,43.0793864 C178.769826,43.4185909 178.245466,43.5085909 177.859279,43.2798409 C177.472703,43.0517727 177.370237,42.5912045 177.630671,42.252 C177.890717,41.9124545 178.415078,41.8224545 178.801265,42.0508636" id="Fill-142" fill="#1E1E1E"></path>
                            <path d="M181.594349,43.8719318 L181.594349,43.8685227 C181.536518,43.72875 181.427454,43.6026136 181.276084,43.5139773 C180.887957,43.2855682 180.363984,43.3742045 180.103938,43.7151136 C179.843893,44.0526136 179.944806,44.5128409 180.332934,44.7415909 C180.414441,44.7923864 180.507591,44.8268182 180.600742,44.8438636 L181.594349,43.8719318 Z" id="Fill-144" fill="#1E1E1E"></path>
                            <path d="M169.562386,34.3231705 C169.30234,34.6640795 168.778368,34.7527159 168.39024,34.5243068 C168.328139,34.4868068 168.277683,34.4458977 168.231107,34.4015795 L169.348916,33.3076023 C169.7254,33.5390795 169.81855,33.9894205 169.562386,34.3231705" id="Fill-146" fill="#1E1E1E"></path>
                            <path d="M171.807783,34.7586136 C172.194358,34.9870227 172.296824,35.4475909 172.036779,35.7871364 C171.776733,36.1263409 171.252372,36.216 170.865797,35.9875909 C170.47961,35.7595227 170.376756,35.2989545 170.637189,34.9594091 C170.897235,34.6202045 171.421596,34.5302045 171.807783,34.7586136" id="Fill-148" fill="#1E1E1E"></path>
                            <path d="M174.28171,36.2211477 C174.668285,36.4498977 174.770751,36.910125 174.510705,37.2496705 C174.250272,37.5892159 173.726299,37.678875 173.339724,37.450125 C172.953537,37.2220568 172.850683,36.7618295 173.111116,36.4222841 C173.371162,36.0827386 173.895523,35.9927386 174.28171,36.2211477" id="Fill-150" fill="#1E1E1E"></path>
                            <path d="M176.755637,37.6839886 C177.142212,37.9127386 177.244678,38.3729659 176.984632,38.7125114 C176.724199,39.0517159 176.200226,39.1417159 175.813651,38.9129659 C175.427463,38.6848977 175.32461,38.2243295 175.585043,37.8847841 C175.845089,37.5455795 176.36945,37.4555795 176.755637,37.6839886" id="Fill-152" fill="#1E1E1E"></path>
                            <path d="M179.229564,39.1468295 C179.616139,39.3752386 179.718605,39.8354659 179.458559,40.1750114 C179.198126,40.5145568 178.674153,40.6042159 178.287578,40.3758068 C177.901002,40.1473977 177.798537,39.6868295 178.05897,39.347625 C178.319016,39.0080795 178.842989,38.9180795 179.229564,39.1468295" id="Fill-154" fill="#1E1E1E"></path>
                            <path d="M181.703491,40.6093295 C182.090066,40.8377386 182.192532,41.2983068 181.932486,41.6378523 C181.672053,41.9770568 181.147692,42.0667159 180.761505,41.8383068 C180.374929,41.6102386 180.272463,41.1496705 180.532509,40.810125 C180.792943,40.4709205 181.316916,40.3809205 181.703491,40.6093295" id="Fill-156" fill="#1E1E1E"></path>
                            <path d="M172.236432,31.8542386 C172.622619,32.0829886 172.725084,32.5432159 172.465039,32.8827614 C172.204993,33.2223068 171.680632,33.3119659 171.294057,33.0832159 C170.90787,32.8551477 170.805016,32.3945795 171.06545,32.055375 C171.325495,31.7158295 171.849856,31.6258295 172.236432,31.8542386" id="Fill-158" fill="#1E1E1E"></path>
                            <path d="M174.710397,33.3170795 C175.096584,33.5454886 175.19905,34.0060568 174.939005,34.3456023 C174.678959,34.6848068 174.154598,34.7744659 173.768023,34.5460568 C173.381836,34.3176477 173.278982,33.8574205 173.539416,33.517875 C173.799461,33.1786705 174.323822,33.0883295 174.710397,33.3170795" id="Fill-160" fill="#1E1E1E"></path>
                            <path d="M177.183936,34.7795795 C177.570511,35.0079886 177.672977,35.4685568 177.412932,35.8081023 C177.152498,36.1476477 176.628525,36.2369659 176.24195,36.0085568 C175.855763,35.7804886 175.752909,35.3199205 176.012954,34.9807159 C176.273388,34.6411705 176.797749,34.5511705 177.183936,34.7795795" id="Fill-162" fill="#1E1E1E"></path>
                            <path d="M179.657863,36.2424545 C180.044438,36.4708636 180.146904,36.9314318 179.88647,37.2706364 C179.626425,37.6101818 179.102452,37.6998409 178.715877,37.4714318 C178.329689,37.2430227 178.226836,36.7827955 178.486881,36.44325 C178.747315,36.1040455 179.271676,36.0137045 179.657863,36.2424545" id="Fill-164" fill="#1E1E1E"></path>
                            <path d="M182.131829,37.7049545 C182.518404,37.9337045 182.62087,38.3939318 182.360824,38.7334773 C182.10039,39.0730227 181.576418,39.1626818 181.189842,38.9339318 C180.803267,38.7058636 180.700801,38.2452955 180.961235,37.9060909 C181.221281,37.5665455 181.745642,37.4765455 182.131829,37.7049545" id="Fill-166" fill="#1E1E1E"></path>
                            <path d="M184.605756,39.1677955 C184.992331,39.3962045 185.094797,39.8567727 184.834751,40.1963182 C184.574317,40.5355227 184.049957,40.6251818 183.663769,40.3967727 C183.277194,40.1683636 183.174728,39.7081364 183.434774,39.3685909 C183.695208,39.0293864 184.21918,38.9390455 184.605756,39.1677955" id="Fill-168" fill="#1E1E1E"></path>
                            <path d="M173.013075,29.7278864 C172.993281,29.8165227 172.954856,29.90175 172.892368,29.9798182 C172.783692,30.1195909 172.63271,30.2153864 172.465815,30.2627727 L173.013075,29.7278864 Z" id="Fill-170" fill="#1E1E1E"></path>
                            <path d="M175.138696,30.4127045 C175.524884,30.6411136 175.627349,31.1016818 175.367304,31.4412273 C175.107258,31.7807727 174.582897,31.8700909 174.196322,31.6416818 C173.810135,31.4136136 173.707281,30.9530455 173.967715,30.6138409 C174.22776,30.2742955 174.752121,30.1842955 175.138696,30.4127045" id="Fill-172" fill="#1E1E1E"></path>
                            <path d="M177.612235,31.8752045 C177.998811,32.1039545 178.101276,32.5641818 177.841231,32.9037273 C177.580797,33.2432727 177.056824,33.3329318 176.670249,33.1045227 C176.284062,32.8761136 176.181208,32.4158864 176.441642,32.0763409 C176.701687,31.7371364 177.226048,31.6467955 177.612235,31.8752045" id="Fill-174" fill="#1E1E1E"></path>
                            <path d="M180.086201,33.3380455 C180.472776,33.5664545 180.575242,34.0270227 180.315196,34.3665682 C180.054763,34.7061136 179.53079,34.7957727 179.144215,34.5670227 C178.758027,34.3389545 178.655174,33.8783864 178.915219,33.5388409 C179.175653,33.1996364 179.700014,33.1096364 180.086201,33.3380455" id="Fill-176" fill="#1E1E1E"></path>
                            <path d="M182.560128,34.8008864 C182.946703,35.0292955 183.049169,35.4898636 182.788735,35.8290682 C182.528689,36.1686136 182.004717,36.2582727 181.618142,36.0298636 C181.231566,35.8014545 181.1291,35.3412273 181.389146,35.0016818 C181.64958,34.6621364 182.173941,34.5721364 182.560128,34.8008864" id="Fill-178" fill="#1E1E1E"></path>
                            <path d="M185.034055,36.2634205 C185.42063,36.4918295 185.523096,36.9523977 185.26305,37.2919432 C185.002616,37.6314886 184.478256,37.7208068 184.092068,37.4923977 C183.705493,37.2643295 183.603027,36.8037614 183.863073,36.4645568 C184.123507,36.1250114 184.647868,36.0350114 185.034055,36.2634205" id="Fill-180" fill="#1E1E1E"></path>
                            <path d="M187.711167,37.8960341 C187.656829,37.8312614 187.590847,37.7733068 187.50934,37.7255795 C187.121212,37.4971705 186.597628,37.5892159 186.337194,37.9267159 C186.077148,38.267625 186.17845,38.7275114 186.566578,38.9559205 C186.582103,38.9630795 186.593358,38.9729659 186.608884,38.9767159 L187.711167,37.8960341 Z" id="Fill-182" fill="#1E1E1E"></path>
                            <path d="M175.795913,28.5380114 C175.535868,28.8755114 175.011507,28.9675568 174.623379,28.7391477 C174.491804,28.6603977 174.394772,28.5550568 174.332283,28.4357386 L175.368584,27.4228977 C175.438836,27.4436932 175.504817,27.4709659 175.56653,27.508125 C175.954658,27.736875 176.055959,28.1971023 175.795913,28.5380114" id="Fill-184" fill="#1E1E1E"></path>
                            <path d="M178.040534,28.9711705 C178.42711,29.1995795 178.529575,29.6601477 178.26953,29.9996932 C178.009484,30.3388977 177.485123,30.4285568 177.098548,30.2001477 C176.711973,29.9720795 176.609895,29.5115114 176.869941,29.1719659 C177.129986,28.8327614 177.654347,28.7427614 178.040534,28.9711705" id="Fill-186" fill="#1E1E1E"></path>
                            <path d="M180.5145,30.4340114 C180.901075,30.6624205 181.003541,31.1229886 180.743495,31.4621932 C180.483062,31.8017386 179.958701,31.8913977 179.572514,31.6629886 C179.185938,31.4345795 179.083473,30.9740114 179.343906,30.6348068 C179.603952,30.2952614 180.128313,30.2052614 180.5145,30.4340114" id="Fill-188" fill="#1E1E1E"></path>
                            <path d="M182.988427,31.8965114 C183.375002,32.1249205 183.477468,32.5854886 183.217422,32.9250341 C182.956989,33.2642386 182.433016,33.3542386 182.046441,33.1254886 C181.659865,32.8974205 181.5574,32.4368523 181.817445,32.0973068 C182.077879,31.7581023 182.60224,31.6681023 182.988427,31.8965114" id="Fill-190" fill="#1E1E1E"></path>
                            <path d="M185.462354,33.3590114 C185.848929,33.5877614 185.951395,34.0479886 185.691349,34.3875341 C185.430916,34.7270795 184.906555,34.8167386 184.520368,34.5883295 C184.133792,34.3599205 184.031326,33.8996932 184.29176,33.5601477 C184.551806,33.2209432 185.076167,33.1306023 185.462354,33.3590114" id="Fill-192" fill="#1E1E1E"></path>
                            <path d="M187.936281,34.8218864 C188.322856,35.0502955 188.425322,35.5108636 188.165276,35.8504091 C187.904842,36.1896136 187.380482,36.2792727 186.994295,36.0508636 C186.607719,35.8227955 186.505253,35.3622273 186.765299,35.0226818 C187.025733,34.6834773 187.549705,34.5934773 187.936281,34.8218864" id="Fill-194" fill="#1E1E1E"></path>
                            <path d="M178.468872,26.0667614 C178.855447,26.2955114 178.957913,26.7557386 178.697868,27.0952841 C178.437822,27.4348295 177.913461,27.5244886 177.526886,27.2957386 C177.140699,27.0676705 177.037845,26.6071023 177.298279,26.2678977 C177.558324,25.9283523 178.082685,25.8383523 178.468872,26.0667614" id="Fill-196" fill="#1E1E1E"></path>
                            <path d="M180.942799,27.5296023 C181.329374,27.7580114 181.43184,28.2185795 181.171795,28.5577841 C180.911361,28.8973295 180.387388,28.9869886 180.000813,28.7585795 C179.614626,28.5305114 179.511772,28.0699432 179.772205,27.7303977 C180.032251,27.3911932 180.556612,27.3011932 180.942799,27.5296023" id="Fill-198" fill="#1E1E1E"></path>
                            <path d="M183.416726,28.9924773 C183.803301,29.2208864 183.905767,29.6811136 183.645721,30.0206591 C183.385288,30.3602045 182.861315,30.4498636 182.47474,30.2214545 C182.088164,29.9930455 181.985699,29.5324773 182.246132,29.1932727 C182.506178,28.8537273 183.030539,28.7637273 183.416726,28.9924773" id="Fill-200" fill="#1E1E1E"></path>
                            <path d="M185.890653,30.4549773 C186.277228,30.6833864 186.379694,31.1439545 186.119648,31.4831591 C185.859215,31.8227045 185.334854,31.9123636 184.948667,31.6839545 C184.562091,31.4558864 184.459626,30.9953182 184.720059,30.6557727 C184.980105,30.3165682 185.504078,30.2265682 185.890653,30.4549773" id="Fill-202" fill="#1E1E1E"></path>
                            <path d="M188.364619,31.9174773 C188.750806,32.1462273 188.85366,32.6064545 188.593614,32.946 C188.33318,33.2855455 187.80882,33.3752045 187.422632,33.1464545 C187.036057,32.9183864 186.933591,32.4578182 187.193637,32.1186136 C187.454071,31.7790682 187.978043,31.6890682 188.364619,31.9174773" id="Fill-204" fill="#1E1E1E"></path>
                            <path d="M190.838546,33.3803182 C191.224733,33.6087273 191.327587,34.0692955 191.067153,34.4085 C190.807107,34.7480455 190.282747,34.8377045 189.896171,34.6092955 C189.509984,34.3812273 189.407518,33.9206591 189.667564,33.5811136 C189.927998,33.2419091 190.45197,33.1519091 190.838546,33.3803182" id="Fill-206" fill="#1E1E1E"></path>
                            <path d="M179.126089,24.1914205 C178.947162,24.4232386 178.644811,24.5391477 178.345564,24.5152841 L179.249902,23.6289205 C179.296477,23.8164205 179.258053,24.0209659 179.126089,24.1914205" id="Fill-208" fill="#1E1E1E"></path>
                            <path d="M181.371098,24.6252273 C181.757674,24.8536364 181.860139,25.3142045 181.600094,25.65375 C181.340048,25.9932955 180.815687,26.0826136 180.429112,25.8542045 C180.042925,25.6261364 179.940071,25.1655682 180.200505,24.8263636 C180.46055,24.4868182 180.984911,24.3968182 181.371098,24.6252273" id="Fill-210" fill="#1E1E1E"></path>
                            <path d="M183.845025,26.0880682 C184.2316,26.3164773 184.334066,26.7770455 184.074021,27.11625 C183.813587,27.4557955 183.289614,27.5454545 182.903039,27.3170455 C182.516852,27.0886364 182.413998,26.6284091 182.674043,26.2888636 C182.934477,25.9493182 183.458838,25.8593182 183.845025,26.0880682" id="Fill-212" fill="#1E1E1E"></path>
                            <path d="M186.318952,27.5506023 C186.705527,27.7790114 186.807993,28.2395795 186.547559,28.579125 C186.287514,28.9183295 185.763541,29.0079886 185.376966,28.7795795 C184.990779,28.5515114 184.887925,28.0909432 185.14797,27.7517386 C185.408404,27.4121932 185.932765,27.3221932 186.318952,27.5506023" id="Fill-214" fill="#1E1E1E"></path>
                            <path d="M188.792918,29.0134432 C189.179493,29.2418523 189.281959,29.7024205 189.021913,30.0419659 C188.761479,30.3811705 188.237507,30.4708295 187.850932,30.2424205 C187.464356,30.0140114 187.36189,29.5537841 187.622324,29.2142386 C187.88237,28.8750341 188.406731,28.7846932 188.792918,29.0134432" id="Fill-216" fill="#1E1E1E"></path>
                            <path d="M191.266845,30.4759432 C191.65342,30.7043523 191.755886,31.1649205 191.49584,31.5044659 C191.235406,31.8440114 190.711046,31.9333295 190.324858,31.7049205 C189.938283,31.4768523 189.835817,31.0162841 190.095863,30.6770795 C190.356297,30.3375341 190.880269,30.2475341 191.266845,30.4759432" id="Fill-218" fill="#1E1E1E"></path>
                            <path d="M193.777916,31.9674205 L192.655838,33.0617386 C192.392299,32.8162841 192.345724,32.4310568 192.570838,32.137875 C192.830884,31.8007159 193.354468,31.7117386 193.738715,31.9401477 C193.75424,31.9469659 193.766272,31.9571932 193.777916,31.9674205" id="Fill-220" fill="#1E1E1E"></path>
                            <path d="M181.330539,21.5936591 L181.33442,21.5936591 C181.497434,21.5936591 181.656566,21.6345682 181.800174,21.7197955 C182.18442,21.9482045 182.289215,22.4084318 182.029169,22.7493409 C181.769123,23.09025 181.245151,23.1788864 180.857023,22.9501364 C180.643164,22.8243409 180.515082,22.6266136 180.492183,22.41525 L181.330539,21.5936591 Z" id="Fill-222" fill="#1E1E1E"></path>
                            <path d="M184.273324,23.1836932 C184.6599,23.4121023 184.762365,23.8726705 184.50232,24.2122159 C184.242274,24.5514205 183.717913,24.6410795 183.331338,24.4126705 C182.945151,24.1846023 182.842685,23.7240341 183.102731,23.3844886 C183.362776,23.0452841 183.887137,22.9552841 184.273324,23.1836932" id="Fill-224" fill="#1E1E1E"></path>
                            <path d="M186.74729,24.6461932 C187.133865,24.8749432 187.236331,25.3351705 186.976285,25.6747159 C186.71624,26.0142614 186.191879,26.1039205 185.805304,25.8755114 C185.419116,25.6471023 185.316263,25.1865341 185.576308,24.8473295 C185.836742,24.5077841 186.361103,24.4177841 186.74729,24.6461932" id="Fill-226" fill="#1E1E1E"></path>
                            <path d="M189.221217,26.1090341 C189.607792,26.3374432 189.710258,26.7980114 189.449824,27.1375568 C189.189779,27.4767614 188.665806,27.5664205 188.279231,27.3380114 C187.892655,27.1099432 187.790189,26.649375 188.050235,26.3098295 C188.310669,25.970625 188.83503,25.880625 189.221217,26.1090341" id="Fill-228" fill="#1E1E1E"></path>
                            <path d="M191.695144,27.5715682 C192.081719,27.8003182 192.184185,28.2605455 191.924139,28.6000909 C191.663705,28.9396364 191.139345,29.0292955 190.753158,28.8008864 C190.366582,28.5724773 190.264116,28.1119091 190.524162,27.7727045 C190.784596,27.4331591 191.308957,27.3431591 191.695144,27.5715682" id="Fill-230" fill="#1E1E1E"></path>
                            <path d="M194.169071,29.0344091 C194.555646,29.2628182 194.658112,29.7233864 194.397678,30.0629318 C194.137632,30.4021364 193.613272,30.4917955 193.227084,30.2633864 C192.840509,30.0353182 192.738043,29.57475 192.998089,29.2352045 C193.258523,28.896 193.782884,28.806 194.169071,29.0344091" id="Fill-232" fill="#1E1E1E"></path>
                            <path d="M184.701662,20.2793182 C185.088237,20.5080682 185.190703,20.9682955 184.930658,21.3078409 C184.670612,21.6473864 184.146251,21.7370455 183.759676,21.5086364 C183.3731,21.2802273 183.270635,20.8196591 183.531068,20.4804545 C183.791114,20.1409091 184.315475,20.0509091 184.701662,20.2793182" id="Fill-234" fill="#1E1E1E"></path>
                            <path d="M187.175589,21.7421591 C187.562164,21.9705682 187.66463,22.4311364 187.404584,22.7706818 C187.144151,23.1098864 186.61979,23.1995455 186.233603,22.9711364 C185.847027,22.7430682 185.744562,22.2825 186.004995,21.9429545 C186.265041,21.6034091 186.789402,21.51375 187.175589,21.7421591" id="Fill-236" fill="#1E1E1E"></path>
                            <path d="M189.649516,23.2046591 C190.036091,23.4334091 190.138557,23.8936364 189.878123,24.2331818 C189.618078,24.5723864 189.093717,24.6623864 188.70753,24.4339773 C188.320954,24.2055682 188.218489,23.745 188.478534,23.4057955 C188.738968,23.06625 189.263329,22.97625 189.649516,23.2046591" id="Fill-238" fill="#1E1E1E"></path>
                            <path d="M192.123443,24.6675 C192.510018,24.8959091 192.612484,25.3564773 192.352438,25.6960227 C192.092005,26.0352273 191.567644,26.1248864 191.181457,25.8964773 C190.794881,25.6684091 190.692416,25.2078409 190.952849,24.8682955 C191.212895,24.5290909 191.737256,24.4390909 192.123443,24.6675" id="Fill-240" fill="#1E1E1E"></path>
                            <path d="M194.107669,27.4846705 C193.952418,27.4812614 193.792897,27.4400114 193.653559,27.3585341 C193.269313,27.130125 193.1684,26.6695568 193.428445,26.3320568 C193.509952,26.2233068 193.618628,26.1414886 193.735066,26.0866023 L194.107669,27.4846705 Z" id="Fill-242" fill="#1E1E1E"></path>
                            <path d="M185.359267,18.4026477 C185.130272,18.7029886 184.691687,18.8083295 184.326847,18.6685568 L185.394199,17.6257159 C185.54518,17.8640114 185.541687,18.1643523 185.359267,18.4026477" id="Fill-244" fill="#1E1E1E"></path>
                            <path d="M187.603888,18.83775 C187.990463,19.0661591 188.092929,19.5267273 187.832884,19.8662727 C187.57245,20.2058182 187.048477,20.2954773 186.661902,20.0667273 C186.275715,19.8386591 186.172861,19.3780909 186.433295,19.0388864 C186.69334,18.6993409 187.217701,18.6093409 187.603888,18.83775" id="Fill-246" fill="#1E1E1E"></path>
                            <path d="M190.077815,20.300625 C190.46439,20.5290341 190.566856,20.9896023 190.306811,21.3288068 C190.046377,21.6683523 189.522404,21.7580114 189.135829,21.5296023 C188.749253,21.3015341 188.646788,20.8409659 188.907221,20.5014205 C189.167267,20.161875 189.691628,20.071875 190.077815,20.300625" id="Fill-248" fill="#1E1E1E"></path>
                            <path d="M192.551742,21.763125 C192.938317,21.9915341 193.040783,22.4521023 192.780349,22.7916477 C192.520304,23.1308523 191.995943,23.2208523 191.609756,22.9921023 C191.22318,22.7640341 191.120715,22.3034659 191.38076,21.9642614 C191.641194,21.6247159 192.165555,21.5347159 192.551742,21.763125" id="Fill-250" fill="#1E1E1E"></path>
                            <path d="M188.032187,15.933375 C188.418763,16.162125 188.521228,16.6223523 188.261183,16.9618977 C188.001137,17.3014432 187.476776,17.3911023 187.090201,17.1626932 C186.703626,16.9342841 186.60116,16.4740568 186.861594,16.1345114 C187.121639,15.7949659 187.646,15.7049659 188.032187,15.933375" id="Fill-252" fill="#1E1E1E"></path>
                            <path d="M190.506114,17.3962159 C190.892689,17.624625 190.995155,18.0851932 190.73511,18.4247386 C190.474676,18.7639432 189.950703,18.8536023 189.564128,18.6251932 C189.177941,18.397125 189.075087,17.9365568 189.335132,17.5970114 C189.595566,17.2578068 190.119927,17.1678068 190.506114,17.3962159" id="Fill-254" fill="#1E1E1E"></path>
                            <path d="M192.143548,20.1378068 C192.104735,20.1245114 192.073685,20.107125 192.038753,20.0870114 C191.650626,19.8586023 191.5501,19.3980341 191.810146,19.060875 C191.82179,19.0472386 191.833046,19.0336023 191.844689,19.0199659 L192.143548,20.1378068 Z" id="Fill-256" fill="#1E1E1E"></path>
                            <path d="M190.959836,15.7026818 C190.680384,15.8833636 190.296137,15.9004091 189.993785,15.7200682 C189.605658,15.4913182 189.504356,15.0310909 189.764402,14.6935909 C189.954584,14.4416591 190.292256,14.3291591 190.606639,14.3765455 L190.959836,15.7026818 Z" id="Fill-258" fill="#1E1E1E"></path>
                        </g>
                    </g>
                </g>
            </g>
        </g>
    </g>
</svg>