<?xml version="1.0" encoding="UTF-8"?>
<svg width="199px" height="40px" viewBox="0 0 199 40" version="1.1" xmlns="http://www.w3.org/2000/svg" xmlns:xlink="http://www.w3.org/1999/xlink">
    <!-- Generator: Sketch 52.3 (67297) - http://www.bohemiancoding.com/sketch -->
    <title>brand/logo</title>
    <desc>Created with Sketch.</desc>
    <g id="Symbols" stroke="none" stroke-width="1" fill="none" fill-rule="evenodd">
        <g id="brand/logo">
            <g>
                <path d="M11.7336853,19.4995859 L11.7336853,30.7183223 C11.7336853,33.6308159 13.8522889,33.6846726 17.8725214,33.4692458 L17.8725214,39.7797129 C8.03968996,40.8580011 4.72617533,37.9997488 4.72617533,30.7183223 L4.72617533,19.4995859 L-7.10542736e-15,19.4995859 L-7.10542736e-15,12.8113525 L4.72617533,12.8113525 L4.72617533,5.37104866 L11.7336853,5.3525835 L11.7336853,12.8113525 L17.8725214,12.8113525 L17.8725214,19.4995859 L11.7336853,19.4995859 Z M51.6926105,39.7799052 L51.6926105,12.8115448 L58.7001205,12.8115448 L58.7001205,39.7799052 L51.6926105,39.7799052 Z M50.8777927,5.31469146 C50.8777927,2.99539093 52.8332778,1 55.1696311,1 C57.5598406,1 59.5153257,2.99539093 59.5153257,5.31469146 C59.5153257,7.633992 57.5598406,9.57552622 55.1696311,9.57552622 C52.8332778,9.57552622 50.8777927,7.633992 50.8777927,5.31469146 Z M75.3792419,11.9924997 C82.6641696,11.9924997 88.6247764,17.9101976 88.6247764,25.1431531 L88.6247764,39.7156234 L81.823005,39.7156234 L81.823005,25.8290567 C81.823005,22.3102904 78.9232922,19.4312648 75.3792419,19.4312648 C71.8351916,19.4312648 68.9354788,22.3102904 68.9354788,25.8290567 L68.9354788,39.7156234 L62.1337074,39.7156234 L62.1337074,25.1431531 C62.1337074,17.9101976 68.0943141,11.9924997 75.3792419,11.9924997 Z M91.9119053,2.02473922 L98.9647476,2.02473922 L98.9647476,24.6776388 L108.308611,12.8114679 L116.674538,12.8114679 L105.755283,26.1336933 L117,39.7798283 L108.851823,39.7798283 L98.9647476,27.5358911 L98.9647476,39.7798283 L91.9572376,39.7798283 L91.9119053,2.02473922 Z M21.8408348,25.1429992 L21.719174,2.04039614 L28.6426063,2.04039614 L28.6426063,13.6680588 C30.5531466,12.6028501 32.750791,11.9923459 35.0863693,11.9923459 C42.3712971,11.9923459 48.3315164,17.9100437 48.3315164,25.1429992 L48.3315164,39.7158542 L41.5297449,39.7158542 L41.5297449,25.8289028 C41.5297449,22.3105212 38.6304197,19.4311109 35.0863693,19.4311109 C31.542319,19.4311109 28.6426063,22.3105212 28.6426063,25.8289028 L28.6426063,39.7158542 L21.8408348,39.7158542 L21.8408348,25.1429992 Z" id="Think" fill="#1C1C1C"></path>
                <path d="M198.165856,11.3456883 L190.952088,21.8318201 C189.543161,19.5727093 187.046735,18.0652322 184.192912,18.0652322 C179.788963,18.0652322 176.218814,21.6442943 176.218814,26.0591854 C176.218814,29.9451774 178.98501,33.1801873 182.650822,33.9008219 L178.876336,39.3876711 C173.756827,37.4255399 170.058106,32.5873765 169.74701,26.8433491 L165.735662,39.4607679 L159.168578,39.4607679 L154.256848,23.2815086 L149.345119,39.4607679 L142.7788,39.4607679 L136.415669,19.44833 L129.235193,19.44833 L129.235193,37.5399688 C129.235193,37.9781666 129.232131,38.618433 129.234427,39.3976215 L122.454205,39.3976215 L122.454205,38.7332447 L122.454205,19.44833 L119,19.44833 L119,12.7628469 L122.454205,12.7628469 L122.454205,12.6155053 C122.454205,5.61811728 127.468485,0.516269769 133.672433,0.340225222 C134.409804,0.319176418 136.623067,0.340225222 136.623067,0.340225222 L136.623067,1.04784776 L136.623067,7.37779734 C131.518864,7.21973995 129.596417,10.1332772 129.282642,12.7628469 L134.290034,12.7628469 L141.604439,12.7628469 L146.142317,29.1556559 L151.000857,12.7628469 L157.513988,12.7628469 L162.372145,29.208852 L166.910023,12.7628469 L174.224046,12.7628469 L172.820093,17.1792688 C175.427488,13.8975689 179.444575,11.791923 183.954902,11.791923 C186.666379,11.791923 189.200304,12.5523589 191.356935,13.8719276 L191.356935,7.10542736e-15 L198.268789,7.10542736e-15 L198.165856,11.3456883 Z M194.708168,31.4683455 C197.068752,31.4683455 199,33.4534391 199,35.7611535 C199,38.0684852 197.068752,40 194.708168,40 C192.401155,40 190.469525,38.0684852 190.469525,35.7611535 C190.469525,33.4534391 192.401155,31.4683455 194.708168,31.4683455 Z" id="FWD" fill="#3FE3FA"></path>
            </g>
        </g>
    </g>
</svg>