<?xml version="1.0" encoding="UTF-8"?>
<svg width="324px" height="400px" viewBox="0 0 324 400" version="1.1" xmlns="http://www.w3.org/2000/svg" xmlns:xlink="http://www.w3.org/1999/xlink">
    <!-- Generator: Sketch 52.4 (67378) - http://www.bohemiancoding.com/sketch -->
    <title>illustrations/anomoly</title>
    <desc>Created with Sketch.</desc>
    <g id="002-Think-Sprints" stroke="none" stroke-width="1" fill="none" fill-rule="evenodd">
        <g id="Think-Sprints" transform="translate(-1264.000000, -3094.000000)">
            <g id="Case-Studies" transform="translate(192.000000, 1967.000000)">
                <g id="illustrations/anomoly" transform="translate(1056.000000, 1095.000000)">
                    <path d="M40,48 C35.581722,48 32,44.418278 32,40 C32,35.581722 35.581722,32 40,32 C44.418278,32 48,35.581722 48,40 C48,44.418278 44.418278,48 40,48 Z M137,48 C132.581722,48 129,44.418278 129,40 C129,35.581722 132.581722,32 137,32 C141.418278,32 145,35.581722 145,40 C145,44.418278 141.418278,48 137,48 Z M235,48 C230.581722,48 227,44.418278 227,40 C227,35.581722 230.581722,32 235,32 C239.418278,32 243,35.581722 243,40 C243,44.418278 239.418278,48 235,48 Z M332,48 C327.581722,48 324,44.418278 324,40 C324,35.581722 327.581722,32 332,32 C336.418278,32 340,35.581722 340,40 C340,44.418278 336.418278,48 332,48 Z M429,48 C424.581722,48 421,44.418278 421,40 C421,35.581722 424.581722,32 429,32 C433.418278,32 437,35.581722 437,40 C437,44.418278 433.418278,48 429,48 Z M40,240 C35.581722,240 32,236.418278 32,232 C32,227.581722 35.581722,224 40,224 C44.418278,224 48,227.581722 48,232 C48,236.418278 44.418278,240 40,240 Z M40,336 C35.581722,336 32,332.418278 32,328 C32,323.581722 35.581722,320 40,320 C44.418278,320 48,323.581722 48,328 C48,332.418278 44.418278,336 40,336 Z M40,432 C35.581722,432 32,428.418278 32,424 C32,419.581722 35.581722,416 40,416 C44.418278,416 48,419.581722 48,424 C48,428.418278 44.418278,432 40,432 Z M137,144 C132.581722,144 129,140.418278 129,136 C129,131.581722 132.581722,128 137,128 C141.418278,128 145,131.581722 145,136 C145,140.418278 141.418278,144 137,144 Z M137,240 C132.581722,240 129,236.418278 129,232 C129,227.581722 132.581722,224 137,224 C141.418278,224 145,227.581722 145,232 C145,236.418278 141.418278,240 137,240 Z M137,336 C132.581722,336 129,332.418278 129,328 C129,323.581722 132.581722,320 137,320 C141.418278,320 145,323.581722 145,328 C145,332.418278 141.418278,336 137,336 Z M137,432 C132.581722,432 129,428.418278 129,424 C129,419.581722 132.581722,416 137,416 C141.418278,416 145,419.581722 145,424 C145,428.418278 141.418278,432 137,432 Z M235,144 C230.581722,144 227,140.418278 227,136 C227,131.581722 230.581722,128 235,128 C239.418278,128 243,131.581722 243,136 C243,140.418278 239.418278,144 235,144 Z M235,240 C230.581722,240 227,236.418278 227,232 C227,227.581722 230.581722,224 235,224 C239.418278,224 243,227.581722 243,232 C243,236.418278 239.418278,240 235,240 Z M235,336 C230.581722,336 227,332.418278 227,328 C227,323.581722 230.581722,320 235,320 C239.418278,320 243,323.581722 243,328 C243,332.418278 239.418278,336 235,336 Z M235,432 C230.581722,432 227,428.418278 227,424 C227,419.581722 230.581722,416 235,416 C239.418278,416 243,419.581722 243,424 C243,428.418278 239.418278,432 235,432 Z M332,144 C327.581722,144 324,140.418278 324,136 C324,131.581722 327.581722,128 332,128 C336.418278,128 340,131.581722 340,136 C340,140.418278 336.418278,144 332,144 Z M332,240 C327.581722,240 324,236.418278 324,232 C324,227.581722 327.581722,224 332,224 C336.418278,224 340,227.581722 340,232 C340,236.418278 336.418278,240 332,240 Z M332,336 C327.581722,336 324,332.418278 324,328 C324,323.581722 327.581722,320 332,320 C336.418278,320 340,323.581722 340,328 C340,332.418278 336.418278,336 332,336 Z M332,432 C327.581722,432 324,428.418278 324,424 C324,419.581722 327.581722,416 332,416 C336.418278,416 340,419.581722 340,424 C340,428.418278 336.418278,432 332,432 Z M429,144 C424.581722,144 421,140.418278 421,136 C421,131.581722 424.581722,128 429,128 C433.418278,128 437,131.581722 437,136 C437,140.418278 433.418278,144 429,144 Z M429,240 C424.581722,240 421,236.418278 421,232 C421,227.581722 424.581722,224 429,224 C433.418278,224 437,227.581722 437,232 C437,236.418278 433.418278,240 429,240 Z M429,336 C424.581722,336 421,332.418278 421,328 C421,323.581722 424.581722,320 429,320 C433.418278,320 437,323.581722 437,328 C437,332.418278 433.418278,336 429,336 Z M429,432 C424.581722,432 421,428.418278 421,424 C421,419.581722 424.581722,416 429,416 C433.418278,416 437,419.581722 437,424 C437,428.418278 433.418278,432 429,432 Z" id="Other-Dots" fill="#CCCCCC"></path>
                    <circle id="Focus" fill="#00DEF0" cx="40" cy="136" r="8"></circle>
                    <path d="M40,157 C51.5979797,157 61,147.59798 61,136 C61,124.40202 51.5979797,115 40,115 C28.4020203,115 19,124.40202 19,136 C19,147.59798 28.4020203,157 40,157 Z M40,160 C26.745166,160 16,149.254834 16,136 C16,122.745166 26.745166,112 40,112 C53.254834,112 64,122.745166 64,136 C64,149.254834 53.254834,160 40,160 Z" id="Outline" fill="#CCCCCC"></path>
                </g>
            </g>
        </g>
    </g>
</svg>