<?xml version="1.0" encoding="UTF-8"?>
<svg width="457px" height="83px" viewBox="0 0 457 83" version="1.1" xmlns="http://www.w3.org/2000/svg" xmlns:xlink="http://www.w3.org/1999/xlink">
    <!-- Generator: Sketch 52.4 (67378) - http://www.bohemiancoding.com/sketch -->
    <title>illustrations/triangle</title>
    <desc>Created with Sketch.</desc>
    <g id="003-Resources" stroke="none" stroke-width="1" fill="none" fill-rule="evenodd">
        <g id="Resources-Index" transform="translate(-40.000000, -2726.000000)">
            <g id="Newsletter" transform="translate(40.000000, 2725.000000)">
                <g id="illustrations/triangle">
                    <g id="Group-34" transform="translate(0.000000, 0.717949)">
                        <polygon id="Fill-1" fill="#00DEF0" points="286.435018 13.256959 251.364607 73.5678821 321.505429 73.5678821"></polygon>
                        <path d="M213.75658,82.3698256 L306.667861,83.0188513 L260.778047,2.8042359 L213.75658,82.3698256 Z M219.037027,79.3917744 L260.735384,8.83392821 L301.429716,79.9675692 L219.037027,79.3917744 Z" id="Fill-2" fill="#1C1C1C"></path>
                        <polygon id="Fill-3" fill="#333333" points="260.77765 2.82494872 261.42121 5.85217949 276.881838 6.01192308 276.732518 2.97571795"></polygon>
                        <polygon id="Fill-4" fill="#333333" points="264.077486 11.059641 264.722131 14.0875897 280.181674 14.2466154 280.032354 11.2104103"></polygon>
                        <polygon id="Fill-5" fill="#333333" points="267.94897 19.6262769 268.592892 22.6535077 286.119782 22.8225846 283.9042 19.7770462"></polygon>
                        <polygon id="Fill-6" fill="#333333" points="273.808983 28.0478154 274.452543 31.0754051 290.242905 31.2444821 290.093947 28.2082769"></polygon>
                        <polygon id="Fill-7" fill="#333333" points="278.845275 36.3224615 279.488112 39.3493333 295.370308 39.5112308 295.220988 36.4750256"></polygon>
                        <polygon id="Fill-8" fill="#333333" points="284.08248 44.9381692 284.726402 47.965759 299.850065 48.189041 299.700745 45.1528359"></polygon>
                        <polygon id="Fill-9" fill="#333333" points="288.637151 53.5630308 289.281072 56.5906205 305.068904 56.7640051 304.919583 53.7278"></polygon>
                        <polygon id="Fill-10" fill="#333333" points="293.681216 61.9393385 294.324053 64.9665692 310.055121 65.1550308 309.9058 62.1188256"></polygon>
                        <polygon id="Fill-11" fill="#333333" points="298.097846 70.9203385 298.741406 73.9479282 314.96346 74.1317231 314.81414 71.0955179"></polygon>
                        <polygon id="Fill-12" fill="#333333" points="273.96257 4.2811641 317.321529 80.050959 302.794786 79.9497282 304.521914 82.976241 322.558952 83.1026 276.728432 2.99388205"></polygon>
                        <g id="Group-33" transform="translate(0.000000, 0.179487)">
                            <path d="M375.117558,7.17003642 C376.066593,6.2277636 376.066593,4.70020563 375.117558,3.75793281 C374.168543,2.81568021 372.629754,2.81568021 371.680844,3.75805404 C370.73161,4.70029913 370.73161,6.2276701 371.681088,7.17015769 C372.629754,8.11228902 374.168543,8.11228902 375.117558,7.17003642 Z M377.162797,9.20070204 C375.084187,11.2645007 371.71384,11.2645007 369.635849,9.20082327 C367.556735,7.13701708 367.556735,3.79095215 369.635605,1.72738846 C371.71384,-0.336531496 375.084187,-0.336531496 377.162797,1.72726719 C379.241386,3.79104566 379.241386,7.13692357 377.162797,9.20070204 Z" id="Stroke-13" fill="#1C1C1C"></path>
                            <path d="M347.607686,48.8988051 C346.038195,50.4571128 343.493601,50.4571128 341.92411,48.8988051 C340.354619,47.3404974 340.354619,44.8140359 341.92411,43.2557282 C343.493601,41.6974205 346.038195,41.6974205 347.607686,43.2557282 C349.177177,44.8140359 349.177177,47.3404974 347.607686,48.8988051" id="Fill-15" fill="#1C1C1C"></path>
                            <path d="M361.157374,49.1526359 C359.587883,50.7109436 357.04329,50.7109436 355.473798,49.1526359 C353.904307,47.5943282 353.904307,45.0678667 355.473798,43.509559 C357.04329,41.9512513 359.587883,41.9512513 361.157374,43.509559 C362.726866,45.0678667 362.726866,47.5943282 361.157374,49.1526359" id="Fill-17" fill="#00DEF0"></path>
                            <polygon id="Stroke-19" fill="#1C1C1C" points="261.226406 56.9473333 261.226406 60.5370769 200.535071 60.5370769 200.535071 56.9473333"></polygon>
                            <polygon id="Stroke-21" fill="#1C1C1C" points="195.932965 56.9473333 195.932965 60.5370769 0 60.5370769 0 56.9473333"></polygon>
                            <polygon id="Stroke-23" fill="#1C1C1C" points="315.323781 44.2556513 315.323781 47.8453949 275.851491 47.8453949 275.851491 44.2556513"></polygon>
                            <polygon id="Stroke-25" fill="#00DEF0" points="416.307585 44.763241 416.307585 48.3529846 370.034165 48.3529846 370.034165 44.763241"></polygon>
                            <polygon id="Stroke-27" fill="#1C1C1C" points="456.956614 27.5026769 456.956614 31.0924205 306.376199 31.0924205 306.376199 27.5026769"></polygon>
                            <polygon id="Stroke-29" fill="#00DEF0" points="238.371742 24.7104667 238.371742 28.3002103 225.333142 28.3002103 225.333142 24.7104667"></polygon>
                            <polygon id="Stroke-31" fill="#00DEF0" points="216.129654 24.7104667 216.129654 28.3002103 205.903555 28.3002103 205.903555 24.7104667"></polygon>
                        </g>
                    </g>
                </g>
            </g>
        </g>
    </g>
</svg>